<svg xmlns="http://www.w3.org/2000/svg" viewBox="0 0 1920 1080"><defs><style>.cls-1{fill:#4397ae;}.cls-2{fill:none;}.cls-3{fill:#3b9bbf;}.cls-4{fill:#2890bc;}.cls-5{fill:#3c95b9;}.cls-6{fill:#3495b9;}.cls-7{fill:#2693b6;}.cls-8{fill:#258bb7;}.cls-9{fill:#1b85b4;}.cls-10{fill:#519db2;}.cls-11{fill:#4b9cbe;}.cls-12{fill:#3292b7;}.cls-13{fill:#3c93b8;}.cls-14{fill:#298cb0;}.cls-15{fill:#2f94b6;}.cls-16{fill:#3f95ae;}.cls-17{fill:#3a91af;}.cls-18{fill:#55a1b7;}.cls-19{fill:#67a9ba;}.cls-20{fill:#2e8bac;}.cls-21{fill:#2792b3;}.cls-22{fill:#58a1b4;}.cls-23{fill:#4f9cb1;}.cls-24{fill:#338caa;}.cls-25{fill:#2a88ad;}.cls-26{fill:#348eb5;}.cls-27{fill:#2d8ab0;}.cls-28{fill:#2888ac;}.cls-29{fill:#43829c;}.cls-30{fill:#307294;}.cls-31{fill:#4b9db2;}.cls-32{fill:#3d93ac;}.cls-33{fill:#338fad;}.cls-34{fill:#70abba;}.cls-35{fill:#66a6b8;}.cls-36{fill:#72aebc;}.cls-37{fill:#3a92ad;}.cls-38{fill:#1e88a6;}.cls-39{fill:#1f6887;}.cls-40{fill:#276d8d;}.cls-41{fill:#176584;}</style></defs><title>blue</title><g id="Layer_2" data-name="Layer 2"><rect class="cls-1" y="-1" width="1921" height="1080"/></g><g id="Layer_1" data-name="Layer 1"><path class="cls-2" d="M745.24,685.45c-2.11-6.73-5.3-5.22-7.54,3a48.8,48.8,0,0,1,8-1.45C745.56,686.47,745.4,686,745.24,685.45Z"/><path class="cls-2" d="M446.27,744.57c-2.17-7.31-4.44-9.52-6.78-9.21,2.27,14.26,3.89,25.07,4.88,34.09A158.84,158.84,0,0,0,446.27,744.57Z"/><path class="cls-2" d="M320.07,586.19c.05-.08.1-.18.15-.28s-.09-.19-.14-.29C320.08,585.81,320.07,586,320.07,586.19Z"/><path class="cls-2" d="M489,358.63c0,.89.09,1.49.09,1.49s0-.6.09-1.5A.37.37,0,0,1,489,358.63Z"/><path class="cls-2" d="M460.72,1032.55c.19-.35.38-.69.57-1-.33-.06-.65-.14-1-.23C460.45,1031.72,460.59,1032.13,460.72,1032.55Z"/><path class="cls-2" d="M425,339.75a17.67,17.67,0,0,1-1.73,1.57c.41,1.56.82,3.13,1.22,4.75C424.64,343.91,424.81,341.82,425,339.75Z"/><path class="cls-2" d="M447.48,881.85a15.89,15.89,0,0,1,5.36-1C451.35,876.72,449.57,876.12,447.48,881.85Z"/><path class="cls-2" d="M1771.15,337.6c0,.45,0,.9.07,1.35.31-1.15.61-2.31.91-3.49C1771.8,336.1,1771.47,336.82,1771.15,337.6Z"/><path class="cls-2" d="M1736.89,46.83l.12-1-.15,1Z"/><path class="cls-2" d="M1737.33,43c-.11.92-.22,1.84-.32,2.76.12-.92.25-1.85.37-2.77l0,0Z"/><path class="cls-2" d="M1404.74,230.72c.11-.24.21-.49.32-.73-.23-.55-.47-1.09-.71-1.6a13.49,13.49,0,0,1,.19,1.8Z"/><path class="cls-2" d="M1540.25,867.1a46.63,46.63,0,0,0-.57-5.25c.11,1.3.22,2.63.33,4Z"/><path class="cls-2" d="M547.42,798.59c0,.11,0,.21,0,.32a14.87,14.87,0,0,0,.71-1.86l-.15-.26Z"/><path class="cls-2" d="M1540.36,867.7c0-.2-.07-.4-.11-.6,0,.11,0,.21,0,.31Z"/><path class="cls-2" d="M461.29,1031.54l0-.1v-.11A1.6,1.6,0,0,1,461.29,1031.54Z"/><path class="cls-3" d="M1921,782.36c-6.46,41.92-19.39,42.52-29.54,60.91-6.51-6.55-20.41,15.13-12.32-47.06-.32-15.05-.63-30.07-1.22-58-8,24.21-15.44,38.4-19.6,61.31-7,38.67-13.89,44.12-22.18,11.33-9.53-37.69-22,29.73-31-14.68-2,0-4.08.12-6.12.33-7.25,45-15.92,85.62-19.09,140.58-3.27,57.07-18.43,70.62-30.26,94.32-2.06,16-4.2,32.07-4.14,47.56H1921Z"/><path class="cls-4" d="M1916.1,772.65l4.9.1V708.34C1919,729.2,1917.78,751.29,1916.1,772.65Z"/><path class="cls-5" d="M1537,959.56c-1,.93-2,.93-3,1.39q-3.09,23.53-6.17,47.07c10.63,39.91.46,53.14-6.23,70.83a.77.77,0,0,0,0,.15h58.12c-5-5.77-11.87-20.52-12.23-32.24C1563.92,933.36,1563.92,933.38,1537,959.56Z"/><path class="cls-5" d="M1763.25,874.91c-18.52-22.73-37.52-22.21-56.73-8.1-2.39,22.16-6.49,37.85-12.33,46.84l-3.08.1H1688L1675.7,937.4q-5.16,65-10.31,129.9c-2.54,1.23-5.09,2.51-7.64,3.78,7.13-73.94-5.71-103-17.15-120.55-9.79-15-22.57,12.71-26.77,44.42-6.56,49.52-26.31,19.62-29.1,83.43a5.67,5.67,0,0,1-.06.62h160.88c-.06-15.49,2.08-31.58,4.14-47.56C1745.81,969.66,1761.84,933.89,1763.25,874.91Z"/><path class="cls-6" d="M1899.64,741.45c.13-26,7.62-46.31,5.07-76.09-9.16-27.8-19.12,36.1-29.57-10.18,15.66-63.64,35.49-121,34.65-234.66-2.32-19.5-23.33,76.81-18.35-24.45a64.08,64.08,0,0,1-1.42-7.74c-7.21-31.3-20.26,12.62-28.83-29.71-5.79-28.6-17.86-53.91-31.73-16.65-9.39,25.21-10-36.18-18.29-57.06,0,122.35-24.26,99.38-43,111.16-5.49,10-10.74,23.87-16.51,29.06-14.13,12.65-18.38-7.67-13.76-66.21,1.21-15.26,2.89-28,.81-43.37-1.36-10-2.45-20.88-8.64-19.79,1.3,68.84-14.73,106.43-21.68,163.6-4,32.85-13.11,57.52-11.24,99.38.91,20.09,2.39,42-5.43,38.89-5.27-2.15-8-21.06-8.2-42.8-.31-45.12,3.5-91-1.67-135.2-4.76-10.41-6-27.59-6.16-46.83-5.91,11.26-5.64,39.51-8.86,54.78-10.31-4.36-15.17-67.42-24-39.56-10.8,34.11,5.83,54.5,7.6,85.11,1.26,22,3.42,43.21,5.83,72.68-20.79-39.5-27.89,15.21-36.07,62.09,10.71,102.89,33.66,114.46,58.58,114.08,7.52,35.17-8.3,73.15.19,107,7.33,29.21,19.2,16,27.54,37.83,19.21-14.11,38.21-14.63,56.73,8.1-1.41,59-17.44,94.75-13.56,156.53,11.83-23.7,27-37.25,30.26-94.32,3.17-55,11.84-95.59,19.09-140.58-11.19-9.35-21.5,30.28-33,8.16-7.93-15.27-20.94,3.3-24.13-37.75-2.43-31.18,15.47-51.09,6.86-98-1.51-8.14,4.32-16,6.91-13,21.36,25,46.83-12.35,65.2,65.29,2.12,44.77-12,44.83-15.76,75,9,44.41,21.45-23,31,14.68,8.29,32.79,15.14,27.34,22.18-11.33,4.16-22.91,11.61-37.1,19.6-61.31.59,27.89.9,42.91,1.22,58,7.87,1.32,12,16.88,12.32,47.06,10.15-18.39,23.08-19,29.54-60.91v-9.61l-4.9-.1C1907.4,786.72,1899.37,792.34,1899.64,741.45Z"/><path class="cls-7" d="M1820.92,721.22c-18.37-77.64-43.84-40.26-65.2-65.29-2.59-3-8.42,4.85-6.91,13,8.61,46.94-9.29,66.85-6.86,98,3.19,41,16.2,22.48,24.13,37.75,11.46,22.12,21.77-17.51,33-8.16,2-.21,4.08-.31,6.12-.33C1808.88,766.05,1823,766,1820.92,721.22Z"/><path class="cls-8" d="M1879.14,796.21c-8.09,62.19,5.81,40.51,12.32,47.06C1891.15,813.09,1887,797.53,1879.14,796.21Z"/><path class="cls-9" d="M1848.18,36.74c7.34-3,12.56-15.79,15.8-37.74h-15.33C1848.09,12.14,1847.08,25.63,1848.18,36.74Z"/><path class="cls-9" d="M1881.72,85.69c-8.63,16.3.61,86.51-18.37,64.8-12.1-13.84-15.53,46.63-14,83.09,2,46.89,10.15,93.07,24.2,85.53,18.92-10.18,17.18,33.84,17.85,77,8.69-21.76,17.76-23.35,25.33,3.83a135.08,135.08,0,0,0,4.23,13.27V-1h-45.22a19.06,19.06,0,0,1,.17,2.49C1876.05,33.52,1899.21,52.65,1881.72,85.69Z"/><path class="cls-9" d="M1890,388.33a64.08,64.08,0,0,0,1.42,7.74C1891,393.08,1890.52,390.53,1890,388.33Z"/><path class="cls-8" d="M1891.44,396.07c-5,101.26,16,4.95,18.35,24.45.84,113.69-19,171-34.65,234.66,10.45,46.28,20.41-17.62,29.57,10.18,2.55,29.78-4.94,50.13-5.07,76.09-.27,50.89,7.76,45.27,16.46,31.2,1.68-21.36,2.92-43.45,4.9-64.31V413.17a135.08,135.08,0,0,1-4.23-13.27C1909.2,372.72,1900.13,374.31,1891.44,396.07Z"/><path class="cls-10" d="M460.31,1031.31c-18.17-5.14-33.83-57.15-54.22-33.94-8.84,10.06-17.26-34.12-25.76-54-13.64-32-25.72-37.13-36.15,17.59h0v0c.8,1.66,2.31,3.9,2.26,4.94-.38,7.24-1.28,5.48-2.26-4.94v0h0c-5.05-.64-9.57-5.33-12.32-23.55H325.7c2.89,95.12,3.56,117.56-10.92,141.6h49.87c6.81-17,13-8.15,18.86,0h63.82c4.22-15.38,8.25-36.9,13.39-46.45C460.59,1032.13,460.45,1031.72,460.31,1031.31Z"/><path class="cls-11" d="M1515.38,1055.43c-12.13,6.34-25,2.34-35.84,23.57h42a.77.77,0,0,1,0-.15Q1518.45,1067.12,1515.38,1055.43Z"/><path class="cls-12" d="M1521.59,607.83l0,.07,0-.07Z"/><path class="cls-12" d="M1540.09,866.81l.18.6c0-.1,0-.2,0-.31l-.24-1.28C1540,866.15,1540.06,866.48,1540.09,866.81Z"/><path class="cls-12" d="M1613.83,995c4.2-31.71,17-59.4,26.77-44.42,11.44,17.53,24.28,46.61,17.15,120.55,2.55-1.27,5.1-2.55,7.64-3.78q5.16-64.93,10.31-129.9L1688,913.75c2-12.74,4.09-12.83,6.16-.1,5.84-9,9.94-24.68,12.33-46.84-8.34-21.86-20.21-8.62-27.54-37.83-8.49-33.85,7.33-71.83-.19-107-24.92.38-47.87-11.19-58.58-114.08-8.15,26.41-14.59-17.55-22.48-8.23-1.3,1.51-3.34-6.12-5-9.53,17.26-109-28.11-86.26-25.65-175.13.67-24.14-12.81-11.81-14.62,28.16h-6.17c5.62,106.13,6.51,109,31.88,104.42.37,58.72-12.53,77.83-23.06,106.81-7.31-16.06,1.91-59-6.71-75.19-10.37-10.12-14.88,59.28-26.75,28.69-3.55,32.49-11,43.11-19.09,52-6.35,6.89-10.4,25-10.61,51.11-.23,28.71,5.78,39.66,11.3,49,14.21,24,30.69,35.78,36.47,101.89a46.63,46.63,0,0,1,.57,5.25c0,.2.08.4.11.6l3.76,12.26c1.17,9,.56,14.69-1.83,15.75-.44.19-1.32-5-1.51-8.14-.4-6.77-.49-13.82-.69-20.76-13.72-27.55-14.06,21.55-18.52,47.06q11.84,1.92,12.35,47.08c1-.46,2-.46,3-1.39,27-26.18,27-26.2,30.48,87.2.36,11.72,7.25,26.47,12.23,32.24h5a5.67,5.67,0,0,0,.06-.62C1587.52,1014.57,1607.27,1044.47,1613.83,995Zm-58.52-550.56c5.06,5.72,8.94,13.86,8.36,37.62-1.06,4.37-2.36,13.55-3.29,13-6-3.35-6.52-22.93-7.77-40.76C1551.76,442.33,1552.21,440.91,1555.31,444.39Zm86.52,391.81c1-2,3.94,3.65,4.87,8.77a50.76,50.76,0,0,1-3.44,30.61c-1.06,1.84-2.86-.47-3.57-9.68C1638.81,854.56,1638.73,842,1641.83,836.2Zm31,99.73c-5.12-6.13-8.9-14.82-7.86-43,.43-7.14,2-17.64,5.49-13.19,5.89,7.55,4.47,29.08,5.31,46.47C1676.31,938.26,1675.84,939.58,1672.79,935.93Z"/><path class="cls-13" d="M1393.62,870.66l-1.48-3.85c.24,1.73.49,3.45.75,5.18C1393.26,871.3,1393.62,870.65,1393.62,870.66Z"/><path class="cls-13" d="M1503,819.84c-1.9,31.23-2,79.93-14.5,30-5.88-23.48-16.64-33.76-16.19-77l-6.28-.34q-3.1,11.61-6.2,23.19c.46,12.51,4.87,31.63.47,35.88-6.31,6.14-5.72-19.64-6.5-35.83-14.33-11.91-21.25-59.34-30.86-93.8-4.8-10.4-6-27.6-6.2-46.88-4.87-1.53-11.79,6.75-13.89-11.64-3.94-34.66-6.67-32.07-11.71-4.62-3.46,18.78-7.62,35.91-11.88,52.19-2,7.67-7,17.93-7.31,16.36-28.08-124.74-23.34,108.88-45.24,62-1.83-3.91-3,72.5,4.79,79.09,7.44,6.27,10.57,15.5,11.22,41.83,0,15.62.06,31.3.09,46.94q3.09-11.7,6.17-23.41c2.07-7.69,4.22-15.09,6.13-23.43l0-.1c2-13,4.08-12.9,6.11,0l0,.1c12.46,33.81,19.76-30.53,30.82-23.63,8.92-97.58,9.4-99.61,29.23-32.56,5.37,18.16,7.79,14.57,12.64,4.53,7.76-16.1,10.69,7.05,13.61,28h12.29c5.69,7.46,20.54-18.6,10.63,45.26-4.59,29.56-7.14,63.74-10.6,95.84,3.48,15,7.38,10,11,2,18.85-41.58,33-17.95,44.44,45.5q3.06,11.7,6.14,23.42c6.69-17.69,16.86-30.92,6.23-70.83l-1.32,9.13-1.07-4.06,2.39-5.07q3.09-23.55,6.17-47.07-.51-45.18-12.35-47.08C1512.89,889.72,1515.74,832.43,1503,819.84Z"/><path class="cls-13" d="M1392.14,873.35v-6.54l-.14,6.79Z"/><path class="cls-6" d="M1688,913.75h3.08l3.08-.1C1692.12,900.92,1690.07,901,1688,913.75Z"/><path class="cls-14" d="M1627.56,24.9c-1.19,25.33-6.78,34.11-13.12,42.31-25.11,32.39-50.52,19.93-75.83,10.58-15-5.54-20.38,30-22.42,73.66-1.8,38.4-2.45,85.42,14.44,73.43,8.46-6,10.69,16.76,13.43,36.7,4.52,32.89,10.13,42.61,20,30.54,16.05-19.61,7.88,34.42,10.72,56.39-19.55,19.09-41.74-8.4-58.59,54.43-4.78,17.8-14.4-18.07-19.25,16.57,9,20.19,17.79,26.34,27.94,8,7.33-13.22,15.43-13.26,21.35,15.63h6.17c1.81-40,15.29-52.3,14.62-28.16-2.46,88.87,42.91,66.14,25.65,175.13,1.7,3.41,3.74,11,5,9.53,7.89-9.32,14.33,34.64,22.48,8.23,8.18-46.88,15.28-101.59,36.07-62.09-2.41-29.47-4.57-50.7-5.83-72.68-1.77-30.61-18.4-51-7.6-85.11,8.82-27.86,13.68,35.2,24,39.56,3.22-15.27,3-43.52,8.86-54.78,0-19.18,9.84-53.11.88-53.85-19.94-1.67-29.37-60.92-49.19-98.13,11.34-9.61,18.21-15.4,24.73-20.91,1.51-35.76-14.58-44.78-9.42-66,7.88-32.43,13.45-90.07,27.41-84.65,9.1,3.53,12.46,1.51,7.6-28-1.33-8.09-2.37-15.45-3.06-22.21h-48.26C1627.57,5,1628.12,13.1,1627.56,24.9Zm-42.88,432.67-2.44,2.76c-.19-2.76-.74-7.38-.53-8C1583.87,446.35,1584.91,448.35,1584.68,457.57Z"/><path class="cls-15" d="M1670.11,49.21c-14-5.42-19.53,52.22-27.41,84.65-5.16,21.27,10.93,30.29,9.42,66-6.52,5.51-13.39,11.3-24.73,20.91,19.82,37.21,29.25,96.46,49.19,98.13,9,.74-.84,34.67-.88,53.85.16,19.24,1.4,36.42,6.16,46.83l1.34-9.13,1.06,4.06-2.4,5.07c5.17,44.25,1.36,90.08,1.67,135.2.15,21.74,2.93,40.65,8.2,42.8,7.82,3.15,6.34-18.8,5.43-38.89-1.87-41.86,7.24-66.53,11.24-99.38,6.95-57.17,23-94.76,21.68-163.6,6.19-1.09,7.28,9.77,8.64,19.79,2.08,15.33.4,28.11-.81,43.37-4.62,58.54-.37,78.86,13.76,66.21,5.77-5.19,11-19.09,16.51-29.06q0-23.42-.08-46.85c1.11-3.23,2.15-6.67,3.12-10.27,0-.45,0-.9-.07-1.35a56.16,56.16,0,0,0-3.05,11.59c-2-1.95-5.66-4.31-5.63-5.76,1.45-86.31-17.82-162.21-8.93-251.28,2.1-20.92,8.14-39.19.82-59.68-6.24-17.48-11.44,3.76-17,10.55-.12.92-.25,1.85-.37,2.77l-.12,1c1.29,1.69,2.09,7.37,2.74,17.28,1.14,17.28,0,33.47-4.33,34.89-6.46,2.1-13.09-3.13-19.64-5.24,0-5.38.09-10.75.14-16.14,5.39-8.32,11.07-14.56,16-25.55,2.25-5,3.84-6.76,5-5.27l.15-1c.1-.92.21-1.84.32-2.76-13.21-56.31-26.68-62.1-39.76,11.52-3.1-20.86-5.78-38.93-8.26-55.55h-14.66c.69,6.76,1.73,14.12,3.06,22.21C1682.57,50.72,1679.21,52.74,1670.11,49.21Z"/><path class="cls-8" d="M1809.33,173.3c-9,11.78-17.78-4.44-8.13,54.43,5,30.24-6.91,74.82-17.09,93.88-3.69,6.88-8.26,6.6-12,13.85-.3,1.18-.6,2.34-.91,3.49-1,3.6-2,7-3.12,10.27q0,23.43.08,46.85c18.73-11.78,43,11.19,43-111.16,8.26,20.88,8.9,82.27,18.29,57.06,13.87-37.26,25.94-12,31.73,16.65,8.57,42.33,21.62-1.59,28.83,29.71.5,2.2,1,4.75,1.42,7.74-.67-43.12,1.07-87.14-17.85-77-14,7.54-22.2-38.64-24.2-85.53-1.57-36.46,1.86-96.93,14-83.09,19,21.71,9.74-48.5,18.37-64.8,17.49-33-5.67-52.17-5.77-84.2a19.06,19.06,0,0,0-.17-2.49H1864c-3.24,22-8.46,34.78-15.8,37.74-1.1-11.11-.09-24.6.47-37.74h-35.58c1.64,7.79,3.5,14.91,5.36,22.34C1832,75.64,1828.13,148.78,1809.33,173.3Z"/><path class="cls-16" d="M808.36,26.53A189.38,189.38,0,0,0,813.53-1H795.44C796.77,16.28,802.44,24.77,808.36,26.53Z"/><path class="cls-16" d="M477.59,65.69c-6.68,20.2-12.95-1.63-19.26-4.92-13.27-6.9-7.73,31.59-9.36,52.9h0v0c.8,1.68,2.32,3.92,2.26,5-.39,7.3-1.29,5.52-2.26-5h0C429.36,139,413.32,97.29,396.24,73.41c-11.62-16.21-22.47-27.61-30.91,28.48-4.06,27-6.22,40.61-.8,68.54,6.16,31.66-2,46.69-8,60.84-14.44,61.13-14.44,61.13-13.31,176.65,5.57-66.57,32.11-37.51,34.85-120.53.68-20.33,7.38-19,12.95-14.81,11.67,8.88,21.79,28.72,32.25,68.74a17.67,17.67,0,0,0,1.73-1.57c6.68-77.34,25.26-90.79,37.5-133.32,4.09-14.23,10.41-7,12,13.54.65,8.45-4.45,23.4-6.94,35.41q6.13,23.28,12.25,46.56c5.09-.62,9.64-5.38,12.4-23.76,6.55-33.1,16.08-20.39,24.6-23.31h0c-2.63-26.21-13.34-24.13-14.08-65.76,19.5-10.47,26.56-87.48,41.58-126.23,8.14,38.58-3.37,70.5,1.49,113.8,15.63-86.59,39.54-35.52,59.33-60.86,24.43-31.25,50.7-24.26,76.19-24.1,16.45.08,31.42-61.41,49.33-11.86,4.47,12.38,8.28-17.5,6.47-37.81-1.42-15.85-5.68-26.64-7.17-43H478.07C476.6,11.26,477,31.61,477.59,65.69Zm26.76,41.24c-.7-.25-1.31-3.78-2-5.85q2.43-10.2,4.2,1.53C505.84,104.19,505.05,107.17,504.35,106.93ZM496,33.47c1.57-6.72,5.12-9.29,7.76-9,2.31.25,2.95,9.22,1.49,21.55-1.67,2.89-4.18,10.88-6.59,10.43C495.3,55.85,493.83,42.56,496,33.47Z"/><path class="cls-17" d="M951-1H909.88C923.68,22.87,937.38,11,951-1Z"/><path class="cls-18" d="M365.71-1h-19.4C354.26,15.6,360.4,15.39,365.71-1Z"/><path class="cls-19" d="M280,17.91A161.5,161.5,0,0,1,287-1H261.27c3,5.32,5.84,15.37,8.52,32.59C271.83,44.74,277,27.51,280,17.91Z"/><path class="cls-19" d="M229.63,15c5.65,1.19,11.68-9.4,17.64-16H155.58C179.91,26.59,204.94,9.77,229.63,15Z"/><path class="cls-20" d="M1591.13-1h-12.39C1581.65,9,1587.16,11.43,1591.13-1Z"/><path class="cls-21" d="M1737.33,43v0l0,0c5.54-6.79,10.74-28,17-10.55,7.32,20.49,1.28,38.76-.82,59.68-8.89,89.07,10.38,165,8.93,251.28,0,1.45,3.67,3.81,5.63,5.76a56.16,56.16,0,0,1,3.05-11.59c.32-.78.65-1.5,1-2.14,3.72-7.25,8.29-7,12-13.85,10.18-19.06,22.05-63.64,17.09-93.88-9.65-58.87-.91-42.65,8.13-54.43,18.8-24.52,22.69-97.66,9.1-152-1.86-7.43-3.72-14.55-5.36-22.34H1689.31c2.48,16.62,5.16,34.69,8.26,55.55C1710.65-19.07,1724.12-13.28,1737.33,43Z"/><path class="cls-22" d="M325.7,937.4h0l-12.35-.12c-2,.05-4,0-6.09-.1-2.61-11.57-5.36-22.71-7.79-34.8-3.84-19-8.76-41.87-14.82-30.49-9.2,17.28,1.64,36,1.59,55.33S283.69,956.7,278.9,951a40.77,40.77,0,0,1-10.25-22.71C263.31,883.27,260,832,242,861.7c-1.18,1.93-5.08-6.79-5-9.24,2.46-74.56-19.2-82-25.06-132.75-.79-6.87-.65-15.23-1.27-22.5-3.07-35.57-23-7.31-18.42-55,4.12-43,6.94-93.22,16.31-128.4h0l-6.13-23.42q-3.16-11.56-6.2-23.63H190.1c-6.85,13.43-13.51,17.62-19.37-7a34.63,34.63,0,0,1,0-9.43c5.85-24.72,12.49-20.66,19.35-7.1,2.25-7.12,4.09-15.76,6.16-23.52h0c-4.47-82.59-4.39-79.33-23.93-72.15-9,3.34-22.8,47.59-26.9-5.29-4.46-57.49,15.7-53.4,23.53-83.06,2.69-10.16,9.82-3.2,14.92-4.08,14.74-6.59,16.94-61.11,24.7-94.32-2.16-7.41-4-16.08-6.16-23.52h0c-2-8.17-4.19-15.16-6.11-23.42q-9.27-.09-18.54-.12c2.17,23.8,3.87,46.77-6.2,46.83-12.06.08-19.34,5.54-22.1,67.43-1.8,40.59-21.71,28.63-33.13,42.16-4.65,5.51-21.08,6.15-20.68-57.66C95.93,165.93,80.36,143,80.27,90.5c0-17.16-7.49-22.41-12.78-11C61.7,91.9,55.92,104.57,47.85,122.14c9.81,23,13.62,68.68,27.11,56.35,5.72-5.22,7.34,9.71,7,25.92-2.08,110.82-9.75,212.44-33.71,285.82,15.53,65.45,25.73,8.92,37-23.52l1.33-9.16,1.06,4.05-2.39,5.11c14.35,61.7,34.42,8.24,56.35,35.36-17.49,29.08-24.4,89-43.5,65.23-6.24-7.79-19.35,10.81-12.85,64.14l2.4,5.1-1.07,4.08-1.33-9.18c-29.45,10.11-33.65-3.63-43.14-141.21C25.27,459.73,31,400.08,29.67,349.48c-4.05-.08-8.1-.2-12.16-.3-4.14,22.73-8.26,23.21-12.36-.17A104.47,104.47,0,0,1,0,330.19v60.43a14.53,14.53,0,0,0,5.26,5.82c13.87,7.67,16.33,50.65,18.5,93.4C37.53,547.6,42.51,615,42.41,693.34c-.12,92,8.83,183.42.34,276.51-1.46,16,.26,39.81,2.41,56.41q3.41,26.23,5.55,52.74H62.77c-11.73-46.41-7.33-91.36.6-134.74,5.4-29.56,9.87-53.46,4.49-93.47C59.32,787.32,61,776.88,79.11,725.6v0h0c-1.07-16.74-6.92-35.07-2.58-49.17C80.73,662.77,86.61,677.73,88,695c2,25.36-4.13,27.42-8.84,30.57h0v0c.5,15.56,1.13,34.8,5.58,37.23C94.2,768,114,723.48,102.3,821.38c-.35,2.87,2,14.88,2.7,14.39,17.19-12.51,22,43.71,30.45,79.21,6.35,26.54,12.73,27.51,16.71-6.58,3.88-33.31,8.51-42.1,16.09-18.48,10.79,33.63,29,14.78,36,74.54,7-33,11.8,42.07,15.9,9.26,5.87-46.91,13.16,11,17.3-9,14.48-69.81,24.57-4.75,35.95,15.61,7.39,13.18,12.32,36.69,15.75,64.8-5,15.17-10.24,10.78-14.88,4.5-9.37-12.64-15.74,6.57-17,29.37h57.49C329.26,1055,328.59,1032.52,325.7,937.4Z"/><path class="cls-1" d="M344.17,560.84c-.35-.28-.72-.53-1.09-.79A1.36,1.36,0,0,0,344.17,560.84Z"/><path class="cls-1" d="M458,917.73c-1-13.49-2.64-30-5.12-36.89a15.89,15.89,0,0,0-5.36,1c-1.45,3.95-3,10.89-4.79,21.77-2.17,13.47-3.78,28.54-8.4,30.4-5.86,2.32-13.36,14.07-17-7.76-3.8-23.12-4.12-52.6,5-67.15,2.81-4.48,5.45-10.51,8.17-15.84h0c-1-37.28,9.47-46.69,13.88-73.82-1-9-2.61-19.83-4.88-34.09-7.07.93-14.81,24.79-22.65.85,10.36-17.67,19.4-38.62,27.34-66.36-.21-41.28-11.24-38.93-16.51-59.42-3.3-12.84-6.31-7.77-9.7,6.93-19.13,82.86-49.42,71.55-72.77,121-4.37,9.24-13.53-9.82-19.9-20.67-4.51-7.68-4.14-34.84-1-38.25C343,658.9,349.48,590,361.51,536.62c3.47,35-7.18,105.28,14.63,69.43,5-8.23,11.41-3.63,18.93-5.31-5.66-37.24-23.41-52-13.9-110.51,11.3,8.47,20.33,58,34.72,10.69,9.59-31.54,14.33,24.73,21,43.84,4.19,12,9,19.08,13.7,4.27,4-12.38,1.74-27.76.64-42.2q-4.21-55.32-8.4-110.76c-7.67-4.15-12.08-21.81-3.31-36.54,9.85-16.55,19-35.69,28-57.59q0-23.26.07-46.56h0c2.49-12,7.59-27,6.94-35.41-1.58-20.5-7.9-27.77-12-13.54-12.24,42.53-30.82,56-37.5,133.32-.18,2.07-.35,4.16-.51,6.32-.4-1.62-.81-3.19-1.22-4.75-10.46-40-20.58-59.86-32.25-68.74-5.57-4.21-12.27-5.52-12.95,14.81-2.74,83-29.28,54-34.85,120.53-1.13-115.52-1.13-115.52,13.31-176.65-17.29-23.58-26.95-88-43.13-117.57h0c-2.82,32.64-21.08,69.48,1.87,95.9,1.18,1.36,2.33,24.17,1.14,30.19-3.75,19-9.64,35.17-15.61,20.32-13.61-33.88-16.22-8.45-14.84,37.32,1.13,37.41-6.7,61.08-11.15,98.93,16.59,10.32,21.37-47.52,33.64-59.69-.08,63.79,20.89,70.66,23.43,130,10.64,7,21.34,13.77,12.38,70.71,0,7.8-.05,15.62-.07,23.42-5.36,48.46-14,47.13-23.95,25.07-.05.1-.1.2-.15.28,0-.19,0-.38,0-.57-.18-.41-.37-.82-.55-1.25l-1.33,9.14-1.06-4,2.39-5.09q-3.09-35.29-6.17-70.6h-6.17c-4.59,12.53-5.81,30.24-6,50.94-.79,84.42-4.8,99-25.74,100.69-2.56.2-5.92,8.41-7.43,16.79-3,16.39-1.43,28.51,4.12,30.71,10.39,4.07,15.16,34.53,21.13,61.84,10.3,47.2,23.31,75.11,41.7,61.28-1.07,35-2.08,68.17-3.1,101.38,2.75,18.22,7.27,22.91,12.32,23.55,10.43-54.72,22.51-49.55,36.15-17.59,8.5,19.89,16.92,64.07,25.76,54,20.39-23.21,36.05,28.8,54.22,33.94.33.09.65.17,1,.23a1.6,1.6,0,0,0,0-.21C460.35,993.34,460.59,954,458,917.73ZM378.2,488.86c-3.13-1.86-5.5-7.42-5.1-26,1.16-5.38,2.86-19.92,4.72-20.26,3.53-.61,3.6,15.3,3.06,24.62C380.48,474.23,384.58,492.69,378.2,488.86Zm23.93-37.23c-1.53-3.46-2.94-7.7-4.38-11.75-.32-8.58.86-14.31,3-11.3,1.33,1.84,2.21,9.68,2.95,15.49C403.87,445.37,402.25,451.9,402.13,451.63Z"/><polygon class="cls-1" points="344.19 960.95 344.18 960.95 344.18 960.95 344.19 960.95"/><path class="cls-1" d="M492.14,937.4h0c.54,11.5.79,23.36,1.7,34.4,1.49,18.2,4.77,38.51-.92,51.86-5,11.77-9.71,1.94-13.1-15.53l0-.1q-9.23,11.69-18.45,23.41l0,.1c-.19.32-.38.66-.57,1-5.14,9.55-9.17,31.07-13.39,46.45h71.31c-3.71-19-7.86-46.78-8-71C502.77,991,505.29,934.24,492.14,937.4Z"/><path class="cls-1" d="M364.65,1079h18.86C377.61,1070.85,371.46,1062,364.65,1079Z"/><path class="cls-23" d="M335,836c-18.39,13.83-31.4-14.08-41.7-61.28-6-27.31-10.74-57.77-21.13-61.84-5.55-2.2-7.08-14.32-4.12-30.71,1.51-8.38,4.87-16.59,7.43-16.79,20.94-1.68,24.95-16.27,25.74-100.69.2-20.7,1.42-38.41,6-50.94C301,480.36,290.57,491.69,282.31,480c-13.05-18.47-13,35-18.9,56.13-8.75,31.19-17.58,43.93-21.74-14.4-3.84-53.66-16.7-28.46-24.79-44.33-5.68-11.15-7.26,17.71-8.33,36.35h0c-9.37,35.18-12.19,85.4-16.31,128.4-4.57,47.73,15.35,19.47,18.42,55,.62,7.27.48,15.63,1.27,22.5,5.86,50.73,27.52,58.19,25.06,132.75-.08,2.45,3.82,11.17,5,9.24,18-29.67,21.33,21.57,26.67,66.63A40.77,40.77,0,0,0,278.9,951c4.79,5.66,7.27-4.58,7.33-23.82s-10.79-38.05-1.59-55.33c6.06-11.38,11,11.44,14.82,30.49,2.43,12.09,5.18,23.23,7.79,34.8.55-27.43,2.26-54.43,10.33-60.24,6.69-4.81,7.15,18.68,8.09,36.81h0c0,7.89,0,15.76,0,23.65h6.17C332.88,904.19,333.89,871,335,836Z"/><path class="cls-1" d="M344.19,961v0h0Z"/><path class="cls-1" d="M346.45,965.91c.05-1-1.46-3.28-2.26-4.94C345.17,971.39,346.07,973.15,346.45,965.91Z"/><path class="cls-24" d="M527.52,458.86c.52,5.22,1.05,7.85,1.57,7.85-.57-4.23-1.24-8.35-1.74-12.66A38.74,38.74,0,0,0,527.52,458.86Z"/><path class="cls-24" d="M780.69,990.56c-1.54-3.87,5.62-62.2,13.65-65.87,15.25-7,27.69-62.93,44.83-35.29,3.32,5.36,8.05,1.9,13.19-18-19.75-37.57-33.22-132.71-64.08-41.17,3.77-70,18.76-126.11-3.68-152.34-6.49,18,5.92,63-7.93,74.24-9.19,7.47-15.74,5.59-21.39-24-2.83-14.81-6-29.35-9.57-41.22a48.8,48.8,0,0,0-8,1.45c-.19.67-.37,1.37-.53,2.13-9,40.47-8.87,39.47-17.61,25.07-8.21-13.5-16.41-29.55-26-25.69,2.4,64.25,2,67.43-16.51,129.8C674.55,882.85,662,864,658.94,837c-4-35.92-14.75-66.33-11.16-113.06,2-4.11,3.74-10.71,5.36-10.36,7.1,1.45,7.42,58.09,15.76,36.89,8.87-22.56,4.42-53.09-2.21-77.18-3.87-14-6.67-31.46-1.63-49.1,5.15-18.06,11.79-20.05,16.19.43,11.93,55.5,18.7,10,26.63-16.74-4.85-25-15.27-43.51-3.28-82.32,7.87-25.52,10.17-65.52,9.45-106-10-2.56-9.75-21-4.15-43.48,3.38-13.6,6.23-58,12.57-23.18,8.5,46.83,29.45,4.63,33.58,78.38.84,15.23,9-4.28,13.42-12,19-33.53,36.73-59.59,52.77,26.62,5.1,27.37,12.63,41.38,23.21-15.64,9.86-53.09,36-43,55.17-17.89,9.62,12.59,18.39,34.85,29.19,30.76-1.12-56.39,3.74-76.41,20.37-81.68,17.78-5.62,32.68-19.61,45.17,46,11,58.1,26.21,5.34,39.4,8.5,13.88,3.36,16.27-47.82,18.34-90.53-4.92,1.27-11.6-6.56-14.08,11.94-8.38,62.22-12.93,11.71-15.12-9.89-2.95-29.21-4.08-60.46,10.52-54.19,12.87,5.5,26.83-1.24,31-65.35-21.79-21.71-20-117.9-35-161.15,3.35-12.31,4.26-29.72,4.84-47.84H951c-13.63,12-27.33,23.87-41.13,0H813.53a189.38,189.38,0,0,1-5.17,27.53C802.44,24.77,796.77,16.28,795.44-1H729.93c1.49,16.41,5.75,27.2,7.17,43.05,1.81,20.31-2,50.19-6.47,37.81C712.72,30.31,697.75,91.8,681.3,91.72c-25.49-.16-51.76-7.15-76.19,24.1-19.79,25.34-43.7-25.73-59.33,60.86-4.86-43.3,6.65-75.22-1.49-113.8-15,38.75-22.08,115.76-41.58,126.23.74,41.63,11.45,39.55,14.08,65.76h0c7.54,4.82,15.3,52.29,22.5-5.63,3.16-25.43,8.79-4.28,12.83,3.18,8.37,15.49,16.72,29.32,26.31,26h0c-2.18-18.34-5.59-31.9-10.22-42-3.24-7.09-12.59-1.6-6.22-32.48,3.32-16.07,6.85-44,14.69-24,14.2,36.16,26.15,84.49,43.37,104.43,7,8,.53,113.44-8.17,121.28-5.9,5.33-11.77,10.12-17.54,17.83-14.15,19-14.19,18.51-16.47,84.42-13.44-13.5-11.86-102.72-30.28-88-2-.12-4.07-.15-6.11-.12.09,40.23-5.67,35.4-12.36,23.43v.1q0,11.7,0,23.44t0,23.52c-3.31,63.2-9.89,130.59,16.85,156.22-25.82,64.06-40.45-17.46-57.54-48.06-2.8-5-2.35-35.83-8.9-12.64-10.63,37.56-21,74.3-20.1,137.77.24,17,.09,30.14,4.18,37.73,4.61,8.58,7.63-1.71,10.14-15.57,4-22.46,8.16-44.78,12.24-67.16h0v0c-.79-1.69-2.31-3.89-2.25-4.93.38-7.27,1.28-5.52,2.25,4.93l0,0c5.63-8,11.72-21.12,15.69,8.25,2.78,20.63,0,38.12-4.49,49.45-3.29,8.35-7.56,10.87-11,18.49-3.18,7.08-2.33,19.5-1.09,30.18s2.83,20.88,6.62,11.76c18.61-44.89,37.28-2.14,55.92-.43.11-7.83.15-15.67.33-23.47,1-43,8-51.14,17.35-41.27C569.5,736,572,750.63,571,768c-2.15,37.12-7.55,54.61-17.76,37.65-1.71-2.83-3.42-5.7-5.13-8.55a14.87,14.87,0,0,1-.71,1.86c-3.87,50.59,2.46,85.64,12.53,115,24.21-35.25,23.43,49,30.86,94h23.64c-10.07,26.09-19,49.34-27.42,71.09H707.16c2.22-7.46,4.86-10.68,7.4-6.84a37.47,37.47,0,0,0,5.62,6.84H740c6.15-4.87,12.18-13.18,18.33-21.28,7.93-10.44,11.77,2.07,14.84,21.28h8.21C786.65,1051.41,794.82,1026.51,780.69,990.56Z"/><path class="cls-24" d="M547.61,796.21c-.07.8-.13,1.59-.19,2.38l.54-1.8Z"/><path class="cls-24" d="M707.88,607.9h0Z"/><path class="cls-24" d="M1065.38,208l.08-.18h0Z"/><polygon class="cls-24" points="516.79 254.87 516.79 254.87 516.79 254.87 516.79 254.87"/><path class="cls-25" d="M1146.61,1039.12c7.32,4,15.7-20.77,26.29-36.71-10.9-41.84-29.81.09-33.51-65h0c-4.64-10.56-10.86-13.44-12.73-38.43,5.92-16.37,12.64-5.3,18.89-8.63.35-74.45,14.93-143.23,3-224.71-5-34.54,12.47-28.44,15.5-57.73l-2.39-5.07,1.06-4.05,1.33,9.12c12.25,10.38,3.49-87.63,20.48-56.73,9.06,16.51,19.07,20.49,23.17,66.51,2.49,27.79,36.21,48.52,45.41,37.31,7.53-9.12,2.57-20.16,1.19-32.18-1.73-15.23.2-40-9.12-23.22-7.55,13.64-8.53,5.79-7.15-38.75,5.86-15.67,11.66-31.7,17.61-46.87,6-15.37,7.76-36,4.84-60.52-2.79-23.51-4.44-58.17-14.87-30.8-1,2.7-4.36.54-4.78-2.77-1.49-12,.58-21.71,2.79-29.68,6.18-22.28,19.3-14.76,19.07-64.72-17.37-20.48-35.55-66.14-49.31,23.53.8,1.71,2.33,4,2.26,5-.39,7.23-1.3,5.45-2.27-5-4.36,9.22-10.1,17.85-6.64,41.75,1.81,12.5,6.53,18.33,9.37,29.31,4.12,15.93,11,36.49,4.87,57.27-5.94,20.05-15.67,24.62-21.49-3.52-3.45-16.67-2.79-50.88-11.07-44-6.91,5.78-2.21,32.51-3.27,49.39-.76,12.07-6,20.51-6.12,15-2-91.41-14.39-19.05-21.94-25.31-15.44-12.76-14.51-72.27-17-118,6.5-12.09,9.07,2.88,12.44,9.35,8.89,17,18.62,53.59,27.9,22.34,10.16-34.22,21.83-79.4,13.86-139.63-5.56-42,5.41-54.1,6.77-82.11l-6.21-.34c-10.79-30.95-17.69-3.23-24.62,23.89.17,19.24,1.38,36.5,6.16,46.94.44-3.05,1.05-9,1.32-8.72,1.91,1.55,1.44,5-1.32,8.84V316c-10-37.89-19.15-59-12.36-108.33-18.82-4.65-38.31-44.46-56,16.82-1.33,4.6-6.45,1.2-8.16-5.05-7-25.93-10.78-34.85-17.45,7.69-5.44,34.68-10.58-18.62-17-19.32l-.08.18c-4.14,64.11-18.1,70.85-31,65.35-14.6-6.27-13.47,25-10.52,54.19,2.19,21.6,6.74,72.11,15.12,9.89,2.48-18.5,9.16-10.67,14.08-11.94l1.33-9.14,1.07,4.06-2.4,5.08c-2.07,42.71-4.46,93.89-18.34,90.53-13.19-3.16-28.35,49.6-39.4-8.5-12.49-65.63-27.39-51.64-45.17-46-16.63,5.27-21.49,25.29-20.37,81.68-10.8,4.09-19.57-18.17-29.19-30.76-19.21-25.14-45.31-35.2-55.17,17.89-10.58,57-18.11,43-23.21,15.64-16-86.21-33.73-60.15-52.77-26.62-4.4,7.75-12.58,27.26-13.42,12C751.92,357.6,731,399.8,722.47,353c-6.34-34.86-9.19,9.58-12.57,23.18-5.6,22.5-5.82,40.92,4.15,43.48,2.06-12.91,4.11-12.87,6.16,0,9.44,30.07,4.94,71.66,6.25,108.55.54,15.09-1.73,45.61,7.36,25.57,7-15.4,13.18-6.45,13.23,20.54.05,21.89,1.49,59-8.41,64.89-11.26,6.72-25.22,46.08-30.75-31.28h0c-7.93,26.74-14.7,72.24-26.63,16.74-4.4-20.48-11-18.49-16.19-.43-5,17.64-2.24,35.08,1.63,49.1,6.63,24.09,11.08,54.62,2.21,77.18-8.34,21.2-8.66-35.44-15.76-36.89-1.62-.35-3.34,6.25-5.36,10.36-3.59,46.73,7.13,77.14,11.16,113.06,3,27,15.61,45.83,18.13-17.28l-2.39-5.1,1.05-4,1.34,9.13c18.51-62.37,18.91-65.55,16.51-129.8,9.57-3.86,17.77,12.19,26,25.69,8.74,14.4,8.59,15.4,17.61-25.07.16-.76.34-1.46.53-2.13,2.24-8.2,5.43-9.71,7.54-3,.16.51.32,1,.47,1.53,3.61,11.87,6.74,26.41,9.57,41.22,5.65,29.55,12.2,31.43,21.39,24,13.85-11.24,1.44-56.24,7.93-74.24,22.44,26.23,7.45,82.32,3.68,152.34,30.86-91.54,44.33,3.6,64.08,41.17-5.14,19.87-9.87,23.33-13.19,18-17.14-27.64-29.58,28.33-44.83,35.29-8,3.67-15.19,62-13.65,65.87,14.13,36,6,60.85.68,88.44h285a100,100,0,0,1,2-25.89c10.62-9,18.28,4.34,25.16,25.89h26.52a71.94,71.94,0,0,1,2.57-8.92C1130.5,1048.44,1135.94,1033.34,1146.61,1039.12Zm88.44-508.46c1.39,2.59,2.48,12,2.64,18.8.58,25.5-3.85,7.31-5.56,7.1-2.38-.31-3-9.1-2-17.86C1231.8,535.68,1234,528.7,1235.05,530.66Zm-99.27-22.51c.2-.83,1.34,1.61,2,2.56-.29,3.05-.58,6.12-.87,9.16l-2.12-2.85A81,81,0,0,1,1135.78,508.15ZM1064.3,397.56c2.61.24,5.21,3.86,8.51,6.63-2.24,6.14-3.59,12.89-5,13.16-3.09.53-7.37,7.51-8.2-12.53C1059.52,403.25,1062.66,397.41,1064.3,397.56ZM935.52,435.75c1.63-6.51,3.76-2.09,4.64,6.87-1.08,5.62-1.94,14.53-3.33,16s-4.28-1.75-5.18-6.54C927.78,431.45,934.2,441,935.52,435.75ZM773.84,701c-6.76,10.45-2.71-14.78-4.31-22.46-3.93-1.64-7.87-4.08-10.19-17.9-1.65-9.77-2.39-21.9.32-29.88.47-1.37,4.19,10.51,5.75,18.19,1.76,8.72,2.78,19.64,4.13,29.59C772,683.75,775.1,699,773.84,701Zm325-211.7c9.11,49.6,24.82,59.7,39.43,89.08C1112.14,596.94,1103.17,577.41,1098.81,489.28Z"/><path class="cls-25" d="M714.56,1072.16c-2.54-3.84-5.18-.62-7.4,6.84h13A37.47,37.47,0,0,1,714.56,1072.16Z"/><path class="cls-25" d="M758.32,1057.72c-6.15,8.1-12.18,16.41-18.33,21.28h33.17C770.09,1059.79,766.25,1047.28,758.32,1057.72Z"/><path class="cls-26" d="M1357.34,1046.21c2.4-46.29-5.38-60.74-14.93-87.62-1.33,47.48-2.53,84.36-13.8,101.28-2.7,4-8.74,8.69-10.58,19.13h49.43c0-.17,0-.33,0-.5C1362.15,1076.22,1356.05,1070.93,1357.34,1046.21Z"/><path class="cls-26" d="M1193.57,946.83c5.82-21.16,22.51-23,15.1-64.14-6.25-34.7-15-89.15-31.5-75.41-9,7.51-20.35.14-22.58,53.75-.46,11.3-5.89,19.61-9,29.31-6.25,3.33-13-7.74-18.89,8.63,1.87,25,8.09,27.87,12.73,38.43h0c.44-3.06,1-8.88,1.31-8.67,1.89,1.51,1.43,4.95-1.31,8.67h0c3.7,65.1,22.61,23.17,33.51,65-10.59,15.94-19,40.66-26.29,36.71-10.67-5.78-16.11,9.32-23.93,31a71.94,71.94,0,0,0-2.57,8.92h86.54c-4.26-18.1-9.51-30.27-13.81-42.43C1178.18,995.09,1186.84,971.36,1193.57,946.83Z"/><path class="cls-26" d="M1290.68,1072.88c-15-12.19-1.43-54.49-7.16-73.1-12.7,35-19.33,57.06-20.86,79.22h31.63C1293.17,1076.1,1292,1073.94,1290.68,1072.88Z"/><path class="cls-26" d="M1068.43,1053.11a100,100,0,0,0-2,25.89h27.18C1086.71,1057.45,1079.05,1044.11,1068.43,1053.11Z"/><path class="cls-5" d="M1515.38,1055.43c-11.42-63.45-25.59-87.08-44.44-45.5-3.62,8-7.52,13-11-2-11.6-23.89-24.15-40.64-33.58-79.38-5-20.72-11.18-13-15.25,10.6-4.43,25.7-1.82,41.7,4.77,55.31,8.88,18.33,17.88,32.75,28.76,23.57-19.76,63-26.56,60.31-55-15.64-7.77,23.17-12.18,61.86-22.15,76.13h0c0,.17,0,.33,0,.5h112.08C1490.38,1057.77,1503.25,1061.77,1515.38,1055.43Z"/><path class="cls-5" d="M1481.8,695.67c-3.27,24-9,42-15.71,53.43v.12q0,11.68,0,23.32l6.28.34c10.18,16.15,19.08,44.37,30.69,47,12.7,12.59,9.85,69.88,18.53,94,4.46-25.51,4.8-74.61,18.52-47.06,0-.33,0-.66-.08-1-.11-1.34-.22-2.67-.33-4-5.78-66.11-22.26-77.9-36.47-101.89-5.52-9.33-11.53-20.28-11.3-49,.21-26.15,4.26-44.22,10.61-51.11,8.12-8.85,15.54-19.47,19.09-52l0-.07C1503.89,607.78,1490.32,633.21,1481.8,695.67Z"/><path class="cls-14" d="M1533.92,513.77c-2.12,17.49-4.93,36.87-9.76,39.81-15.67,9.59-7,32.66-2.57,54.25l0,.07c11.87,30.59,16.38-38.81,26.75-28.69,8.62,16.15-.6,59.13,6.71,75.19,10.53-29,23.43-48.09,23.06-106.81-25.37,4.61-26.26,1.71-31.88-104.42Z"/><path class="cls-5" d="M1670.42,879.7c-3.46-4.45-5.06,6-5.49,13.19-1,28.22,2.74,36.91,7.86,43,3,3.65,3.52,2.33,2.94-9.76C1674.89,908.78,1676.31,887.25,1670.42,879.7Z"/><path class="cls-14" d="M1560.38,495c.93.53,2.23-8.65,3.29-13,.58-23.76-3.3-31.9-8.36-37.62-3.1-3.48-3.55-2.06-2.7,9.88C1553.86,472.1,1554.39,491.68,1560.38,495Z"/><path class="cls-5" d="M1643.26,875.58A50.76,50.76,0,0,0,1646.7,845c-.93-5.12-3.83-10.74-4.87-8.77-3.1,5.84-3,18.36-2.14,29.7C1640.4,875.11,1642.2,877.42,1643.26,875.58Z"/><path class="cls-5" d="M1540.09,866.81c.2,6.94.29,14,.69,20.76.19,3.12,1.07,8.33,1.51,8.14,2.39-1.06,3-6.79,1.83-15.75l-3.76-12.26-.09-.29Z"/><path class="cls-27" d="M1404.48,231.3c.09-.2.17-.39.26-.58l-.2-.53A5.29,5.29,0,0,1,1404.48,231.3Z"/><path class="cls-27" d="M1342.41,958.59c9.55,26.88,17.33,41.33,14.93,87.62-1.29,24.72,4.81,30,10.11,32.29h0c.44-33.08,5.44-65.85-2.54-98.38-5.9-24-3.17-59.12-3.6-89.68l0-.1h-6.11l0,.1c-1.91,8.34-4.06,15.74-6.13,23.43s-4.11,15.61-6.17,23.41c-6.12-15.48-6.09-31.14-.09-46.94-.65-26.33-3.78-35.56-11.22-41.83-7.81-6.59-6.62-83-4.79-79.09,21.9,46.85,17.16-186.77,45.24-62,.36,1.57,5.28-8.69,7.31-16.36,4.26-16.28,8.42-33.41,11.88-52.19,5-27.45,7.77-30,11.71,4.62,2.1,18.39,9,10.11,13.89,11.64,10.07-7.75,9.88-7.22,4.81-33.66-5.95-31.07,2.06-80-11.94-99.07,10.31-30,18.46,39.67,25.64-8.72-11-82.91-18.09-93.24-37.87-48.89-7.74,17.36-14.51,7-19.06-9.83-6.35-23.41.23-43.7,5.32-53.16,6.51-12.16,5.34-42.79,13.55-55.6,19-29.7,18.41-35.59,7.24-114.81-.27,1.27-1.2,1.14-2.74-.76a82.88,82.88,0,0,1-5-7.73c.48-2.87,1.16-8.41,1.38-8.14a19.48,19.48,0,0,1,4.79,8,40.21,40.21,0,0,1,1.4,5.7c.24.51.48,1.05.71,1.6,5.91-13.21,12.33-24.59,13-53.51-8.7-61.91-24.32,52.78-34.84-26.41-4.6-34.64-22.55,1.87-33.81-23.26-12.15-27.11-25.36-47.09-39.14-72-5.36,24.68,12.38,90.67-9.53,87.53-4.29-.62-8.69,18.78-8,31.07,5.46,96.68-20.08,101.66-30,152.09.23,50-12.89,42.44-19.07,64.72-2.21,8-4.28,17.69-2.79,29.68.42,3.31,3.76,5.47,4.78,2.77,10.43-27.37,12.08,7.29,14.87,30.8,2.92,24.5,1.18,45.15-4.84,60.52-6,15.17-11.75,31.2-17.61,46.87-1.38,44.54-.4,52.39,7.15,38.75,9.32-16.83,7.39,8,9.12,23.22,1.38,12,6.34,23.06-1.19,32.18-9.2,11.21-42.92-9.52-45.41-37.31-4.1-46-14.11-50-23.17-66.51-17-30.9-8.23,67.11-20.48,56.73-3,29.29-20.55,23.19-15.5,57.73,11.94,81.48-2.64,150.26-3,224.71,3.14-9.7,8.57-18,9-29.31,2.23-53.61,13.56-46.24,22.58-53.75,16.54-13.74,25.25,40.71,31.5,75.41,7.41,41.15-9.28,43-15.1,64.14-6.73,24.53-15.39,48.26-.73,89.74,4.3,12.16,9.55,24.33,13.81,42.43h56c1.53-22.16,8.16-44.22,20.86-79.22,5.73,18.61-7.89,60.91,7.16,73.1,1.3,1.06,2.49,3.22,3.61,6.12H1318c1.84-10.44,7.88-15.09,10.58-19.13C1339.88,1043,1341.08,1006.07,1342.41,958.59Zm53-664.57,1.23,8.69c-.54,2.47-1.09,5-1.64,7.4-.41-2.88-1.19-5.88-1.14-8.6S1394.89,296.52,1395.44,294Z"/><path class="cls-12" d="M1524.9,427.54c-10.15,18.31-19,12.16-27.94-8l-.06.23c-2,12.76-4.05,12.82-6.09,0h-6.25c-2.73,18.22-7.25,22.72-12.27,23.31-.81,18.54-2.06,45.9-7.35,41.13-11.84-10.68-19.56,24.14-29.65,29.47-7.18,48.39-15.33-21.31-25.64,8.72,14,19,6,68,11.94,99.07,5.07,26.44,5.26,25.91-4.81,33.66.17,19.28,1.4,36.48,6.2,46.88,13.56-55,20.77,11.89,30.86,23.5,9.72-34.56,11-5.38,12.25,23.62,6.74-11.39,12.44-29.47,15.71-53.43,8.52-62.46,22.09-87.89,39.79-87.84h0c-4.46-21.59-13.1-44.66,2.57-54.25,4.83-2.94,7.64-22.32,9.76-39.81l-2.39-5.08,1.06-4.06,1.33,9.14,12.33-70.6C1540.33,414.28,1532.23,414.32,1524.9,427.54Z"/><path class="cls-26" d="M1459.91,866.81c-4.09,23.27-8.19,23.19-12.29,0-2.92-21-5.85-44.13-13.61-28-4.85,10-7.27,13.63-12.64-4.53-19.83-67-20.31-65-29.23,32.56l1.48,3.85s-.36.64-.73,1.33c.55,3.81,1.1,7.64,1.45,11.72.09,1.19-1.43,4.36-2.2,6.63l-1.34,9.17-1.07-4.08,2.41-5.09v-17l-.14.25.14-6.79c-11.06-6.9-18.36,57.44-30.82,23.63.43,30.56-2.3,65.68,3.6,89.68,8,32.53,3,65.3,2.54,98.38,10-14.27,14.38-53,22.15-76.13,28.47,75.95,35.27,78.69,55,15.64-10.88,9.18-19.88-5.24-28.76-23.57-6.59-13.61-9.2-29.61-4.77-55.31,4.07-23.63,10.21-31.32,15.25-10.6,9.43,38.74,22,55.49,33.58,79.38,3.46-32.1,6-66.28,10.6-95.84C1480.45,848.21,1465.6,874.27,1459.91,866.81Z"/><path class="cls-27" d="M1453.84,795.78a46.67,46.67,0,0,0,6,0q3.11-11.6,6.2-23.19,0-11.64,0-23.32c-4.08-7.93-8.16-15.82-12.24-23.74-10.09-11.61-17.3-78.53-30.86-23.5C1432.59,736.44,1439.51,783.87,1453.84,795.78Z"/><path class="cls-27" d="M1488.54,849.84c12.5,49.93,12.6,1.23,14.5-30-11.61-2.59-20.51-30.81-30.69-47C1471.9,816.08,1482.66,826.36,1488.54,849.84Z"/><path class="cls-5" d="M1453.84,795.78c.78,16.19.19,42,6.5,35.83,4.4-4.25,0-23.37-.47-35.88A46.67,46.67,0,0,1,1453.84,795.78Z"/><path class="cls-5" d="M1459.91,866.81h-12.29C1451.72,890,1455.82,890.08,1459.91,866.81Z"/><path class="cls-26" d="M1342.85,937.28c0-15.64-.06-31.32-.09-46.94C1336.76,906.14,1336.73,921.8,1342.85,937.28Z"/><path class="cls-26" d="M1355.18,890.34h6.11C1359.26,877.44,1357.22,877.39,1355.18,890.34Z"/><polygon class="cls-5" points="1526.43 1017.14 1527.75 1008.02 1525.36 1013.09 1526.43 1017.14"/><path class="cls-28" d="M1182.53,66.5l0,.2c16.17,8.27,11.3,56.59,12.27,93.81l6.21.34c5.66,7,11.75,11.11,16.94,21.59,29.46,59.32,29.38,59.84,54.43,13.8.29,49.4-13.92,80.72-9.72,129.24,10-50.43,35.49-55.41,30-152.09-.7-12.29,3.7-31.69,8-31.07,21.91,3.14,4.17-62.85,9.53-87.53,13.78,24.93,27,44.91,39.14,72,11.26,25.13,29.21-11.38,33.81,23.26,10.52,79.19,26.14-35.5,34.84,26.41-.64,28.92-7.06,40.3-13,53.51-.11.24-.21.49-.32.73s-.17.38-.26.58c0,0,0,0,0,.06,11.17,79.22,11.81,85.11-7.24,114.81-8.21,12.81-7,43.44-13.55,55.6-5.09,9.46-11.67,29.75-5.32,53.16,4.55,16.82,11.32,27.19,19.06,9.83,19.78-44.35,26.88-34,37.87,48.89,10.09-5.33,17.81-40.15,29.65-29.47,5.29,4.77,6.54-22.59,7.35-41.13,2.73-18.15,7.23-22.79,12.27-23.31h6.25c2-.05,4.07-.05,6.09,0l.06-.23c4.85-34.64,14.47,1.23,19.25-16.57,16.85-62.83,39-35.34,58.59-54.43-2.84-22,5.33-76-10.72-56.39-9.89,12.07-15.5,2.35-20-30.54-2.74-19.94-5-42.69-13.43-36.7-16.89,12-16.24-35-14.44-73.43,2-43.7,7.45-79.2,22.42-73.66,25.31,9.35,50.72,21.81,75.83-10.58,6.34-8.2,11.93-17,13.12-42.31.56-11.8,0-19.91-1.17-25.9h-35.26c-4,12.43-9.48,10-12.39,0h-68.25c-1.17,3.87-2.66,6.15-4.59,6C1504.36,5,1503,2.71,1502-1H1260.07c-2.15,3.82-4.44,3.48-6.81,0h-20l1,2.06-1.06,4.05L1232.3-1h-28c-1.92,7.18-4,14.77-6.16,22.69-.24-7.57-.27-15.17-.19-22.69H1185.3C1185.76,20.85,1182.7,44.4,1182.53,66.5Zm367.06-51.74c1-12,4.18-15.8,7.24-13.51s5.94,7.32,4.44,26.12c-1.18,8.46-3.84,12.58-6.93,10.57S1548.36,29.07,1549.59,14.76ZM1488.5,332.54c2.47-53.66,12.6-61.61,24.55-57.55,2.41,55.74-5.62,80.37-17.53,88.93C1491.73,366.64,1487.75,349,1488.5,332.54Z"/><path class="cls-12" d="M1581.71,452.37c-.21.58.34,5.2.53,8l2.44-2.76C1584.91,448.35,1583.87,446.35,1581.71,452.37Z"/><path class="cls-21" d="M1731.85,52.07c-5,11-10.66,17.23-16,25.55,0,5.39-.1,10.76-.14,16.14,6.55,2.11,13.18,7.34,19.64,5.24,4.34-1.42,5.47-17.61,4.33-34.89-.65-9.91-1.45-15.59-2.74-17.28l0,0C1735.69,45.31,1734.1,47.12,1731.85,52.07Z"/><polygon class="cls-6" points="1683.2 410.5 1681.87 419.63 1684.26 414.56 1683.2 410.5"/><path class="cls-29" d="M17.25,491.89l.57-1.93-.58.68C17.24,491.06,17.24,491.47,17.25,491.89Z"/><path class="cls-29" d="M17.82,490c2,0,4,0,5.94-.12-2.17-42.75-4.63-85.73-18.5-93.4A14.53,14.53,0,0,1,0,390.62v43.12A549.38,549.38,0,0,1,17.82,490Z"/><path class="cls-30" d="M23.78,678.16a8.46,8.46,0,0,1-.52-.76C23.43,677.9,23.61,678.16,23.78,678.16Z"/><path class="cls-30" d="M42.75,969.85c8.49-93.09-.46-184.53-.34-276.51.1-78.36-4.88-145.74-18.65-203.5-2,.09-4,.12-5.94.12l-.57,1.93q.16,22.46.35,44.93c10.43,31.41-1.9,62.8,0,94.21q3,12,6,24c0,7.72.09,15.46.16,23.18a40,40,0,0,1,5.93.73c1.33,5.64,3.7,10.9,3.85,17,1.55,59.39-5.15,116.32.67,179.94,4.61,50.29-4.48,112.71-.67,167.12,3.16,45.1-16.46-2-10.86,36.08h28q-2.18-26.49-5.55-52.74C43,1009.66,41.29,985.86,42.75,969.85Z"/><path class="cls-31" d="M313.38,113.69h0c16.18,29.53,25.84,94,43.13,117.57,6-14.15,14.17-29.18,8-60.84-5.42-27.93-3.26-41.51.8-68.54,8.44-56.09,19.29-44.69,30.91-28.48C413.32,97.29,429.36,139,449,113.68h0c1.63-21.31-3.91-59.8,9.36-52.9,6.31,3.29,12.58,25.12,19.26,4.92-.62-34.08-1-54.43.48-66.69H365.71c-5.31,16.39-11.45,16.6-19.4,0H326.64c3,27,11.51,42,16.12,73.06C331.87,81.57,311.28,2.87,313.38,113.69Z"/><path class="cls-32" d="M492.19,278.18c-2.76,18.38-7.31,23.14-12.4,23.76q-3.09,23.51-6.19,47H486q3.06-19.12,6.11,0c8.22-10,16.48-70.37,24.68.11,9.82,26.45,25.35,16.72,30.81,70.85,18.42-14.72,16.84,74.5,30.28,88,2.28-65.91,2.32-65.46,16.47-84.42,5.77-7.71,11.64-12.5,17.54-17.83,8.7-7.84,15.12-113.24,8.17-121.28-17.22-19.94-29.17-68.27-43.37-104.43-7.84-20-11.37,8-14.69,24-6.37,30.88,3,25.39,6.22,32.48,4.63,10.09,8,23.65,10.22,42,.79,1.72,2.32,4,2.26,5-.39,7.25-1.29,5.47-2.27-5-9.59,3.34-17.94-10.49-26.31-26-4-7.46-9.67-28.61-12.83-3.18-7.2,57.92-15,10.45-22.5,5.63C510.24,288.08,500.73,275.66,492.19,278.18Z"/><polygon class="cls-32" points="516.8 254.87 516.79 254.87 516.79 254.87 516.8 254.87"/><path class="cls-24" d="M467.47,301.94q0,23.38.08,46.77c2,.11,4,.19,6.05.19q3.09-23.46,6.19-47-6.14-23.26-12.25-46.56h0Q467.5,278.65,467.47,301.94Z"/><path class="cls-31" d="M498.63,56.45c2.41.45,4.92-7.54,6.59-10.43,1.46-12.33.82-21.3-1.49-21.55-2.64-.29-6.19,2.28-7.76,9C493.83,42.56,495.3,55.85,498.63,56.45Z"/><path class="cls-24" d="M516.79,254.87c-8.52,2.92-18-9.79-24.6,23.31,8.54-2.52,18.05,9.9,24.6-23.31h0Z"/><path class="cls-31" d="M502.39,101.08c.65,2.07,1.26,5.6,2,5.85s1.49-2.74,2.24-4.32Q504.82,90.88,502.39,101.08Z"/><path class="cls-31" d="M449,113.67h0Z"/><path class="cls-31" d="M451.25,118.64c.06-1-1.46-3.27-2.26-5C450,124.16,450.86,125.94,451.25,118.64Z"/><path class="cls-33" d="M1260.07-1h-6.81C1255.63,2.48,1257.92,2.82,1260.07-1Z"/><path class="cls-33" d="M1198.15,21.69c2.21-7.92,4.24-15.51,6.16-22.69H1198C1197.88,6.52,1197.91,14.12,1198.15,21.69Z"/><path class="cls-34" d="M5.15,349l12.36.17c4.06.1,8.11.22,12.16.3,15.45-19,18.9-61.58,13-113a228,228,0,0,1-.55-52.21c-10.7-19.13-17.05-68.34-31.45-63.53-3.5,1.16-8.2-11.11-8.94-27.84-1-22,3.08-36.09,7.77-45.29,6.28-12.33,13.28-36.12,19.88-22.39,28.43,59.17,58.11-.88,86.79,18,2-.1,4-.22,6.07-.35,1.92-8.37,4.37-14.63,6.25-23.1,2,0,4.05-.15,6.08-.36q0-10.23.18-20.41H0V286.06C5.11,298.45,5.22,323.51,5.15,349Z"/><path class="cls-18" d="M134.58,19.41c-2,.21-4.05.33-6.08.36-1.88,8.47-4.33,14.73-6.25,23.1-2,.13-4,.25-6.07.35,6.2,27.06,13.85,50.51,23.28,35.5,15.61-24.84,27.58-9.43,38.29,35q9.27,0,18.54.12c1.92,8.26,4.16,15.25,6.11,23.42h0c2.16,7.44,4,16.11,6.16,23.52-7.76,33.21-10,87.73-24.7,94.32,13.81,32.8,20.57,84.2,23.65,141.68,2.15,40.18-5.35,30.25-11.27,22.91-2.07,7.76-3.91,16.4-6.16,23.52h0c0,7.84,0,15.67,0,23.54h6.11q3,12,6.2,23.63l6.13,23.42h0c1.07-18.64,2.65-47.5,8.33-36.35,8.09,15.87,21-9.33,24.79,44.33,4.16,58.33,13,45.59,21.74,14.4,5.93-21.13,5.85-74.6,18.9-56.13,8.26,11.67,18.71.34,24.88,33.75h6.17c-1.22-58.06,13.36-25.54,18.5-47.06-2.54-59.38-23.51-66.25-23.43-130-12.27,12.17-17.05,70-33.64,59.69,4.45-37.85,12.28-61.52,11.15-98.93-1.38-45.77,1.23-71.2,14.84-37.32,6,14.85,11.86-1.31,15.61-20.32,1.19-6,0-28.83-1.14-30.19-22.95-26.42-4.69-63.26-1.87-95.9h0c-2.1-110.82,18.49-32.12,29.38-41.63C338.15,41,329.62,26,326.64-1H287a161.5,161.5,0,0,0-7,18.91c-2.95,9.6-8.12,26.83-10.16,13.68C267.11,14.37,264.25,4.32,261.27-1h-14c-6,6.59-12,17.18-17.64,16-24.69-5.22-49.72,11.6-74-16H140.27Q137.44,9.22,134.58,19.41Zm114.7,256.45c4.44,33.2,2.39,66.74-1.31,100.17-6,54.08-18,16.26-26.87,24.4-8.63,8-5.09-31.7-6.36-51.41h0v0c-.8-1.68-2.31-3.89-2.26-4.92.38-7.26,1.27-5.51,2.26,4.92v0h0c6.22,3.85,16,45.22,15.92-19.15-.06-27.68,3.24-42.91,8.23-57.06C242.56,262.41,247.1,259.61,249.28,275.86Z"/><path class="cls-35" d="M274.31,1049.63c4.64,6.28,9.9,10.67,14.88-4.5-3.43-28.11-8.36-51.62-15.75-64.8C262.06,960,252,894.91,237.49,964.72c-4.14,20-11.43-37.91-17.3,9-4.1,32.81-8.87-42.24-15.9-9.26-7-59.76-25.25-40.91-36-74.54-7.58-23.62-12.21-14.83-16.09,18.48-4,34.09-10.36,33.12-16.71,6.58-8.49-35.5-13.26-91.72-30.45-79.21-.69.49-3-11.52-2.7-14.39C114,723.48,94.2,768,84.69,762.83c-4.45-2.43-5.08-21.67-5.58-37.23C61,776.88,59.32,787.32,67.86,850.79c5.38,40,.91,63.91-4.49,93.47-7.93,43.38-12.33,88.33-.6,134.74H71.9c-.4-7.53-1-15-1.76-22.43-4.67-43.57,3.57-65.28,11-85.84s11.27-13.35,19.3,13.08c8.23,27.06,24.72,16.45,37.48,24.75,16.11,10.49,32.55,20,42.07,70.44h77.27C258.57,1056.2,264.94,1037,274.31,1049.63Z"/><path class="cls-35" d="M79.11,725.58v0Z"/><path class="cls-19" d="M139.46,78.72c-9.43,15-17.08-8.44-23.28-35.5-28.68-18.88-58.36,41.17-86.79-18-6.6-13.73-13.6,10.06-19.88,22.39C4.82,56.81.77,70.86,1.74,92.9c.74,16.73,5.44,29,8.94,27.84,14.4-4.81,20.75,44.4,31.45,63.53l1.33-9.1,1.06,4-2.39,5.08a228,228,0,0,0,.55,52.21c5.89,51.42,2.44,94-13,113,1.3,50.6-4.4,110.25,12.47,140.75h6.15c24-73.38,31.63-175,33.71-285.82.3-16.21-1.32-31.14-7-25.92-13.49,12.33-17.3-33.31-27.11-56.35C55.92,104.57,61.7,91.9,67.49,79.46c5.29-11.37,12.75-6.12,12.78,11,.09,52.52,15.66,75.43,15.37,121.93-.4,63.81,16,63.17,20.68,57.66,11.42-13.53,31.33-1.57,33.13-42.16,2.76-61.89,10-67.35,22.1-67.43,10.07-.06,8.37-23,6.2-46.83C167,69.29,155.07,53.88,139.46,78.72Z"/><path class="cls-36" d="M138,1008.56c-12.76-8.3-29.25,2.31-37.48-24.75-8-26.43-11.85-33.61-19.3-13.08s-15.7,42.27-11,85.84c.79,7.41,1.36,14.9,1.76,22.43H180C170.5,1028.58,154.06,1019.05,138,1008.56Z"/><path class="cls-35" d="M42.14,490.23c9.49,137.58,13.69,151.32,43.14,141.21-6.5-53.33,6.61-71.93,12.85-64.14,19.1,23.81,26-36.15,43.5-65.23-21.93-27.12-42,26.34-56.35-35.36-11.26,32.44-21.46,89-37,23.52Z"/><path class="cls-23" d="M207.5,396.73c-3.08-57.48-9.84-108.88-23.65-141.68-5.1.88-12.23-6.08-14.92,4.08-7.83,29.66-28,25.57-23.53,83.06,4.1,52.88,17.86,8.63,26.9,5.29,19.54-7.18,19.46-10.44,23.93,72.15h0C202.15,427,209.65,436.91,207.5,396.73Z"/><path class="cls-23" d="M190.07,443.17h0c-6.86-13.56-13.5-17.62-19.35,7.1a34.63,34.63,0,0,0,0,9.43c5.86,24.64,12.52,20.45,19.37,7C190.09,458.84,190.08,451,190.07,443.17Z"/><polygon class="cls-35" points="79.12 725.58 79.11 725.58 79.12 725.58 79.12 725.58"/><path class="cls-35" d="M88,695c-1.35-17.28-7.23-32.24-11.42-18.6-4.34,14.1,1.51,32.43,2.58,49.17C83.83,722.43,90,720.37,88,695Z"/><path class="cls-1" d="M325.67,913.75h0c-.94-18.13-1.4-41.62-8.09-36.81-8.07,5.81-9.78,32.81-10.33,60.24,2,.1,4.07.15,6.09.1C316.11,919.17,320.62,914.43,325.67,913.75Z"/><path class="cls-19" d="M0,286.06v44.13A104.47,104.47,0,0,0,5.15,349C5.22,323.51,5.11,298.45,0,286.06Z"/><path class="cls-19" d="M17.51,349.18,5.15,349C9.25,372.39,13.37,371.91,17.51,349.18Z"/><path class="cls-10" d="M325.67,913.75h0c-5.05.68-9.56,5.42-12.33,23.53l12.35.12C325.68,929.51,325.67,921.64,325.67,913.75Z"/><polygon class="cls-35" points="86.61 457.55 85.28 466.71 87.67 461.6 86.61 457.55"/><polygon class="cls-35" points="87.68 636.54 85.28 631.44 86.61 640.62 87.68 636.54"/><path class="cls-32" d="M479.21,525.05c-5,11.66-15.79,15.77-14.48-10.06,3.81-75.31-11.68-87.8-21.92-118.92q4.2,55.38,8.4,110.76c1.1,14.44,3.32,29.82-.64,42.2-4.73,14.81-9.51,7.76-13.7-4.27-6.65-19.11-11.39-75.38-21-43.84-14.39,47.31-23.42-2.22-34.72-10.69-9.51,58.53,8.24,73.27,13.9,110.51-7.52,1.68-13.95-2.92-18.93,5.31-21.81,35.85-11.16-34.43-14.63-69.43C349.48,590,343,658.9,324.28,679.43c-3.12,3.41-3.49,30.57,1,38.25,6.37,10.85,15.53,29.91,19.9,20.67,23.35-49.44,53.64-38.13,72.77-121,3.39-14.7,6.4-19.77,9.7-6.93,5.27,20.49,16.3,18.14,16.51,59.42-7.94,27.74-17,48.69-27.34,66.36,7.84,23.94,15.58.08,22.65-.85,2.34-.31,4.61,1.9,6.78,9.21a158.84,158.84,0,0,1-1.9,24.88C440,796.58,429.49,806,430.49,843.27c.8,1.69,2.34,4,2.28,5-.4,7.3-1.31,5.5-2.29-5-2.72,5.33-5.36,11.36-8.17,15.84-9.09,14.55-8.77,44-5,67.15,3.59,21.83,11.09,10.08,17,7.76,4.62-1.86,6.23-16.93,8.4-30.4,1.75-10.88,3.34-17.82,4.79-21.77,2.09-5.73,3.87-5.13,5.36-1,2.48,6.85,4.15,23.4,5.12,36.89,2.63,36.29,2.39,75.61,3.38,113.6v.11q9.24-11.72,18.45-23.41c-.33-1-.29-4.6.21-10.48.54-6.46,1.34-12.59,2-18.89.75,1.81,2.2,4.44,2.13,5.28-.51,6.37-1,13.38-2.1,18.28s-1.87,6.82-2.24,5.91c3.39,17.47,8.09,27.3,13.1,15.53,5.69-13.35,2.41-33.66.92-51.86-.91-11-1.16-22.9-1.7-34.4h0v0c-.8-1.69-2.32-3.92-2.27-4.94.39-7.27,1.29-5.5,2.27,4.94v0c13.15-3.16,10.63,53.56,18.49,70.62.45-15,1.05-43.23,1.32-43.18,11.78,1.95,19-57,32.12-35,6.12,10.23,11.71,5.82,15.86-16-10.07-29.32-16.4-64.37-12.53-115,0-.11,0-.21,0-.32.06-.79.12-1.58.19-2.38h0c-18.64-1.71-37.31-44.46-55.92.43-3.79,9.12-5.36-.94-6.62-11.76s-2.09-23.1,1.09-30.18c3.44-7.62,7.71-10.14,11-18.49,4.46-11.33,7.27-28.82,4.49-49.45-4-29.37-10.06-16.27-15.69-8.25h0c-4.08,22.38-8.19,44.7-12.24,67.16-2.51,13.86-5.53,24.15-10.14,15.57-4.09-7.59-3.94-20.72-4.18-37.73-.88-63.47,9.47-100.21,20.1-137.77,6.55-23.19,6.1,7.61,8.9,12.64C505.5,629,520.13,710.51,546,646.45c-26.74-25.63-20.16-93-16.85-156.22C511.82,488,494.81,488.53,479.21,525.05Zm-7.34,436.32c-.06,2.63-1,5-1.53,7.46-1.78-6.19-1.64-11.55.4-16C471.15,955.67,471.93,958.66,471.87,961.37Z"/><path class="cls-23" d="M319.53,584.37c.18.43.37.84.55,1.25.05.1.09.2.14.29,10,22.06,18.59,23.39,23.95-25.07a1.36,1.36,0,0,1-1.09-.79c-4.47-3-10.13-5.25-7.66-29,2-19,6.28-6.34,8.82,6.36,9-56.94-1.74-63.76-12.38-70.71-5.14,21.52-19.72-11-18.5,47.06Q316.45,549.08,319.53,584.37Z"/><path class="cls-32" d="M467.47,301.94c-9,21.9-18.12,41-28,57.59-8.77,14.73-4.36,32.39,3.31,36.54,6.23-31.15,17.25-25.84,24.74-47.36Q467.51,325.31,467.47,301.94Z"/><path class="cls-32" d="M380.88,467.18c.54-9.32.47-25.23-3.06-24.62-1.86.34-3.56,14.88-4.72,20.26-.4,18.62,2,24.18,5.1,26C384.58,492.69,380.48,474.23,380.88,467.18Z"/><path class="cls-18" d="M335.42,531.06c-2.47,23.74,3.19,26,7.66,29,.37.26.74.51,1.09.79,0-7.8,0-15.62.07-23.42C341.7,524.72,337.38,512.06,335.42,531.06Z"/><path class="cls-32" d="M400.75,428.58c-2.14-3-3.32,2.72-3,11.3,1.44,4.05,2.85,8.29,4.38,11.75.12.27,1.74-6.26,1.57-7.56C403,438.26,402.08,430.42,400.75,428.58Z"/><polygon class="cls-23" points="318.2 593.51 319.53 584.38 317.14 589.46 318.2 593.51"/><path class="cls-37" d="M590.79,1007.91c-15,37.19-29.18-16.07-45-5.74-10.72,7-23.38,7-35.19,5.85.15,24.2,4.3,52,8,71H587c8.38-21.75,17.35-45,27.42-71.09Z"/><path class="cls-25" d="M1065.38,208l0-.19c-3.89-31.2-8.54-61.94-4.58-97.38,8.46-11.69,11.31,40.65,14,28.61,9.35-41.85,30.4-16.33,33.6-91.29-2.92,0-5.87-1.65-8.64.39-4.38,3.2-8.14,3.82-8.44-17.86-.17-12,1.4-22.12,4.48-27.57a15,15,0,0,1,2.85-3.7h-63.48c-.58,18.12-1.49,35.53-4.84,47.84C1045.34,90.09,1043.59,186.28,1065.38,208Z"/><path class="cls-16" d="M516.79,349c-8.2-70.48-16.46-10.15-24.68-.11v0q-1.49,9.39-3,9.7c0,.9-.09,1.5-.09,1.5s0-.6-.09-1.49q-1.5-.25-3-9.73H473.6c-2,0-4-.08-6.05-.19-7.49,21.52-18.51,16.21-24.74,47.36,10.24,31.12,25.73,43.61,21.92,118.92-1.31,25.83,9.5,21.72,14.48,10.06,15.6-36.52,32.61-37,49.89-34.82q0-11.76,0-23.52c-.52,0-1.05-2.63-1.57-7.85a38.74,38.74,0,0,1-.17-4.81c-.16-1.39-.31-2.81-.43-4.25-.1-1.17,1.42-4.3,2.2-6.53v-.1c2.75-18.35,7.29-22.94,12.36-23.43,2,0,4.07,0,6.11.12C542.14,365.73,526.61,375.46,516.79,349Zm-31.63,53.1,2.4,3.28c-.25,2.69-.5,5.4-.75,8.07-.8-1.08-1.74-1.58-2.32-3.58C484.27,409.13,484.91,404.8,485.16,402.11Zm30.56-34c-.23,1.24-1.68,9.7-3.41,17.23-.13.56-2.22-5.45-3.4-8.42,1.78-7.8,3.39-16.22,5.36-23.2C516.76,344.93,517.64,347.51,515.72,368.12Z"/><path class="cls-1" d="M544.07,929.82c-13.16-22-20.34,37-32.12,35-.27-.05-.87,28.15-1.32,43.18,11.81,1.19,24.47,1.19,35.19-5.85,15.79-10.33,30,42.93,45,5.74-7.43-45-6.65-129.29-30.86-94C555.78,935.64,550.19,940.05,544.07,929.82Z"/><path class="cls-25" d="M704.6,525.58c-12,38.81-1.57,57.33,3.28,82.32h0c11.83-55.38,12.8-121.14,12.32-188.27h-6.16C714.77,460.06,712.47,500.06,704.6,525.58Z"/><path class="cls-32" d="M548,796.79l.15.26c1.71,2.85,3.42,5.72,5.13,8.55,10.21,17,15.61-.53,17.76-37.65,1-17.32-1.5-32-5.7-36.48-9.3-9.87-16.36-1.73-17.35,41.27-.18,7.8-.22,15.64-.33,23.47h0Z"/><path class="cls-32" d="M529.13,443.17c6.69,12,12.45,16.8,12.36-23.43C536.42,420.23,531.88,424.82,529.13,443.17Z"/><path class="cls-32" d="M527.35,454.05c.5,4.31,1.17,8.43,1.74,12.66q0-11.74,0-23.44c-.78,2.23-2.3,5.36-2.2,6.53C527,451.24,527.19,452.66,527.35,454.05Z"/><path class="cls-32" d="M486,678.48v0h0Z"/><path class="cls-32" d="M483.7,673.55c-.06,1,1.46,3.24,2.25,4.93C485,668,484.08,666.28,483.7,673.55Z"/><path class="cls-38" d="M1095.84,2.7c-3.08,5.45-4.65,15.58-4.48,27.57.3,21.68,4.06,21.06,8.44,17.86,2.77-2,5.72-.39,8.64-.39-3.2,75-24.25,49.44-33.6,91.29-2.68,12-5.53-40.3-14-28.61-4,35.44.69,66.18,4.58,97.38h0c6.39.7,11.53,54,17,19.32,6.67-42.54,10.44-33.62,17.45-7.69,1.71,6.25,6.83,9.65,8.16,5.05,17.66-61.28,37.15-21.47,56-16.82q0-11.64.11-23.27c2-13,4-13,6.09-.13v.13c6.93-27.12,13.83-54.84,24.62-23.89-1-37.22,3.9-85.54-12.27-93.81-.45,3-1.06,8.89-1.33,8.67-1.91-1.58-1.45-5.07,1.3-8.87.17-22.1,3.23-45.65,2.77-67.5h-86.61A15,15,0,0,0,1095.84,2.7Z"/><path class="cls-27" d="M1272.41,196.24c-25.05,46-25,45.52-54.43-13.8-5.19-10.48-11.28-14.56-16.94-21.59-1.36,28-12.33,40.12-6.77,82.11,8,60.23-3.7,105.41-13.86,139.63-9.28,31.25-19-5.31-27.9-22.34-3.37-6.47-5.94-21.44-12.44-9.35,2.5,45.78,1.57,105.29,17,118.05,7.55,6.26,19.89-66.1,21.94,25.31.12,5.49,5.36-2.95,6.12-15,1.06-16.88-3.64-43.61,3.27-49.39,8.28-6.91,7.62,27.3,11.07,44,5.82,28.14,15.55,23.57,21.49,3.52,6.15-20.78-.75-41.34-4.87-57.27-2.84-11-7.56-16.81-9.37-29.31-3.46-23.9,2.28-32.53,6.64-41.75h0c13.76-89.67,31.94-44,49.31-23.53C1258.49,277,1272.7,245.64,1272.41,196.24Z"/><path class="cls-24" d="M707.89,607.9h0c5.53,77.36,19.49,38,30.75,31.28,9.9-5.93,8.46-43,8.41-64.89,0-27-6.25-35.94-13.23-20.54-9.09,20-6.82-10.48-7.36-25.57-1.31-36.89,3.19-78.48-6.25-108.55C720.69,486.76,719.72,552.52,707.89,607.9Z"/><path class="cls-27" d="M1138.24,578.36c-14.61-29.38-30.32-39.48-39.43-89.08C1103.17,577.41,1112.14,596.94,1138.24,578.36Z"/><path class="cls-27" d="M1164.12,184.4q-.06,11.63-.11,23.27c-6.79,49.32,2.32,70.44,12.36,108.33V231.34c-4.78-10.44-6-27.7-6.16-46.94v-.13C1168.18,184.28,1166.15,184.33,1164.12,184.4Z"/><path class="cls-24" d="M1067.79,417.35c1.43-.27,2.78-7,5-13.16-3.3-2.77-5.9-6.39-8.51-6.63-1.64-.15-4.78,5.69-4.71,7.26C1060.42,424.86,1064.7,417.88,1067.79,417.35Z"/><path class="cls-24" d="M765.41,648.93c-1.56-7.68-5.28-19.56-5.75-18.19-2.71,8-2,20.11-.32,29.88,2.32,13.82,6.26,16.26,10.19,17.9h0C768.19,668.57,767.17,657.65,765.41,648.93Z"/><path class="cls-24" d="M931.65,452c.9,4.79,3.67,8.09,5.18,6.54s2.25-10.34,3.33-16c-.88-9-3-13.38-4.64-6.87C934.2,441,927.78,431.45,931.65,452Z"/><path class="cls-27" d="M1230.12,538.7c-1,8.76-.37,17.55,2,17.86,1.71.21,6.14,18.4,5.56-7.1-.16-6.83-1.25-16.21-2.64-18.8C1234,528.7,1231.8,535.68,1230.12,538.7Z"/><path class="cls-27" d="M1137.83,510.71c-.71-.95-1.85-3.39-2-2.56a81,81,0,0,0-.94,8.87l2.12,2.85C1137.25,516.83,1137.54,513.76,1137.83,510.71Z"/><path class="cls-24" d="M769.53,678.52c1.6,7.68-2.45,32.91,4.31,22.46,1.26-2-1.8-17.23-4.3-22.46Z"/><path class="cls-38" d="M1177.69,222.62c-.27-.23-.88,5.67-1.32,8.72v.12C1179.13,227.65,1179.6,224.17,1177.69,222.62Z"/><polygon class="cls-24" points="1055.49 320.4 1054.42 316.34 1053.09 325.48 1055.49 320.4"/><path class="cls-27" d="M1215.64,354c.07-1-1.46-3.31-2.26-5h0C1214.34,359.48,1215.25,361.26,1215.64,354Z"/><path class="cls-24" d="M720.21,419.63c-2.05-12.87-4.1-12.91-6.16,0Z"/><polygon class="cls-27" points="1161.66 602.83 1164.05 607.9 1162.72 598.78 1161.66 602.83"/><polygon class="cls-24" points="674.68 814.64 677.07 819.74 675.73 810.61 674.68 814.64"/><path class="cls-25" d="M1139.4,937.4h0Z"/><path class="cls-25" d="M1140.71,928.72c-.27-.21-.87,5.61-1.31,8.67C1142.14,933.67,1142.6,930.23,1140.71,928.72Z"/><path class="cls-28" d="M1404.54,230.19a13.49,13.49,0,0,0-.19-1.8,40.21,40.21,0,0,0-1.4-5.7,19.48,19.48,0,0,0-4.79-8c-.22-.27-.9,5.27-1.38,8.14a82.88,82.88,0,0,0,5,7.73c1.54,1.9,2.47,2,2.74.76,0,0,0,0,0-.06A5.29,5.29,0,0,0,1404.54,230.19Z"/><path class="cls-28" d="M1396.67,302.71l-1.23-8.69c-.55,2.5-1.48,4.85-1.55,7.49s.73,5.72,1.14,8.6C1395.58,307.66,1396.13,305.18,1396.67,302.71Z"/><path class="cls-5" d="M1466.08,749.22v-.12c-1.28-29-2.53-58.18-12.25-23.62C1457.92,733.4,1462,741.29,1466.08,749.22Z"/><path class="cls-14" d="M1484.56,419.74c-5,.52-9.54,5.16-12.27,23.31C1477.31,442.46,1481.83,438,1484.56,419.74Z"/><path class="cls-14" d="M1496.9,419.74c-2-.05-4.06-.05-6.09,0C1492.85,432.56,1494.88,432.5,1496.9,419.74Z"/><polygon class="cls-14" points="1531.53 508.69 1533.92 513.77 1532.59 504.63 1531.53 508.69"/><path class="cls-13" d="M1392.14,890.34c.77-2.27,2.29-5.44,2.2-6.63-.35-4.08-.9-7.91-1.45-11.72-.26-1.73-.51-3.45-.75-5.18v23.53Z"/><polygon class="cls-13" points="1390.8 899.51 1392.14 890.34 1389.73 895.43 1390.8 899.51"/><path class="cls-14" d="M1495.52,363.92c11.91-8.56,19.94-33.19,17.53-88.93-12-4.06-22.08,3.89-24.55,57.55C1487.75,349,1491.73,366.64,1495.52,363.92Z"/><path class="cls-20" d="M1505.9,5c1.93.11,3.42-2.17,4.59-6H1502C1503,2.71,1504.36,5,1505.9,5Z"/><path class="cls-14" d="M1554.34,37.94c3.09,2,5.75-2.11,6.93-10.57,1.5-18.8-1.39-23.85-4.44-26.12s-6.21,1.53-7.24,13.51C1548.36,29.07,1551.13,35.83,1554.34,37.94Z"/><polygon class="cls-33" points="1234.26 1.06 1233.28 -1 1232.3 -1 1233.2 5.11 1234.26 1.06"/><path class="cls-39" d="M20.37,815.85c-3.86-32.74,4-59.17,3.28-90.19L0,748.14v3c.57-.42,1,1.25,0,.27V1079H7.73C15,994.83,31.93,914.05,20.37,815.85Z"/><path class="cls-39" d="M12.08,639.54c1.9-2.07,3.68-5.64,5.52-8.51-1.9-31.41,10.43-62.8,0-94.21-2.34,12.51-5.23,22.2-9,9.84-2.39-7.76-2.07-20.65,0-29,2.55-10.23,5.73-18.13,8.65-27h0l.58-.68A549.38,549.38,0,0,0,0,433.74v196C4.1,636.92,8.25,643.72,12.08,639.54Z"/><path class="cls-40" d="M33.56,1042.92c-3.81-54.41,5.28-116.83.67-167.12-5.82-63.62.88-120.55-.67-179.94-.15-6.07-2.52-11.33-3.85-17-.1,19.22-1.34,36.3-6.06,46.77.74,31-7.14,57.45-3.28,90.19C31.93,914.05,15,994.83,7.73,1079h15C17.1,1041,36.72,1088,33.56,1042.92Z"/><path class="cls-41" d="M29.71,678.89a40,40,0,0,0-5.93-.73c-.17,0-.35-.26-.52-.76-2-3.17-2.74-8.54-1.88-15.44.37-3,1.47-4.7,2.24-7q-3-12-6-24c-1.84,2.87-3.62,6.44-5.52,8.51-3.83,4.18-8-2.62-12.08-9.82V748.14l23.65-22.48C28.37,715.19,29.61,698.11,29.71,678.89Z"/><path class="cls-41" d="M17.24,490.63c-2.92,8.9-6.1,16.8-8.65,27-2.09,8.35-2.41,21.24,0,29,3.8,12.36,6.69,2.67,9-9.84q-.18-22.47-.35-44.93c0-.42,0-.83,0-1.25Z"/><path class="cls-39" d="M23.26,677.4a8.46,8.46,0,0,0,.52.76c-.07-7.72-.12-15.46-.16-23.18-.77,2.28-1.87,4-2.24,7C20.52,668.86,21.27,674.23,23.26,677.4Z"/><path class="cls-24" d="M580.7,283.4c.06-1-1.47-3.28-2.26-5h0C579.41,288.87,580.31,290.65,580.7,283.4Z"/><path class="cls-24" d="M492.12,348.92v0q-3.06-19.14-6.11,0h0C488,348.9,490.07,348.9,492.12,348.92Z"/><path class="cls-19" d="M140.27-1h-5.51q-.15,10.17-.18,20.41Q137.43,9.2,140.27-1Z"/><polygon class="cls-23" points="214.73 349.01 214.74 349.01 214.74 349.01 214.73 349.01"/><path class="cls-23" d="M230.66,329.87c.12,64.37-9.7,23-15.92,19.15,1.27,19.71-2.27,59.37,6.36,51.41C229.94,392.29,242,430.11,248,376c3.7-33.43,5.75-67,1.31-100.17-2.18-16.25-6.72-13.45-10.39-3.05C233.9,287,230.6,302.19,230.66,329.87Z"/><path class="cls-23" d="M212.47,344.06c-.05,1,1.46,3.24,2.26,4.92C213.74,338.55,212.85,336.8,212.47,344.06Z"/><path class="cls-23" d="M214.73,349v0h0Z"/><polygon class="cls-34" points="43.46 175.17 42.13 184.27 44.52 179.19 43.46 175.17"/><path class="cls-1" d="M470.34,968.83c.54-2.47,1.47-4.83,1.53-7.46s-.72-5.7-1.13-8.56C468.7,957.28,468.56,962.64,470.34,968.83Z"/><path class="cls-1" d="M482.06,1002.22c1.1-4.9,1.59-11.91,2.1-18.28.07-.84-1.38-3.47-2.13-5.28-.69,6.3-1.49,12.43-2,18.89-.5,5.88-.54,9.44-.21,10.48l0,.1C480.19,1009,481,1007.16,482.06,1002.22Z"/><path class="cls-1" d="M432.77,848.27c.06-1-1.48-3.31-2.28-5h0C431.46,853.77,432.37,855.57,432.77,848.27Z"/><path class="cls-1" d="M489.86,932.44c-.05,1,1.47,3.25,2.27,4.94C491.15,926.94,490.25,925.17,489.86,932.44Z"/><path class="cls-1" d="M492.13,937.4h0v0Z"/><path class="cls-32" d="M508.91,376.93c1.18,3,3.27,9,3.4,8.42,1.73-7.53,3.18-16,3.41-17.23,1.92-20.61,1-23.19-1.45-14.39C512.3,360.71,510.69,369.13,508.91,376.93Z"/><path class="cls-32" d="M486.81,413.46c.25-2.67.5-5.38.75-8.07l-2.4-3.28c-.25,2.69-.89,7-.67,7.77C485.07,411.88,486,412.38,486.81,413.46Z"/><path class="cls-32" d="M489,358.63a.37.37,0,0,0,.18,0q1.49-.31,3-9.7c-2.05,0-4.09,0-6.13,0Q487.48,358.38,489,358.63Z"/><path class="cls-28" d="M1181.23,75.37c.27.22.88-5.64,1.33-8.67l0-.2C1179.78,70.3,1179.32,73.79,1181.23,75.37Z"/><path class="cls-25" d="M1170.21,184.27c-2-12.84-4.08-12.88-6.09.13C1166.15,184.33,1168.18,184.28,1170.21,184.27Z"/><path class="cls-41" d="M0,751.18v.27C1,752.43.57,750.76,0,751.18Z"/></g></svg>