<svg xmlns="http://www.w3.org/2000/svg" viewBox="0 0 1920 1080" preserveAspectRatio="none slice"><defs><style>.cls-1{fill:#e2e2e2;}.cls-2{fill:none;}.cls-3{fill:#d1d1d1;}.cls-4{fill:#cacaca;}.cls-5{fill:#d0d0d0;}.cls-6{fill:#d3d3d3;}.cls-7{fill:#d7d7d7;}.cls-8{fill:#ddd;}.cls-9{fill:#dedede;}.cls-10{fill:#ededed;}.cls-11{fill:#dfdfdf;}.cls-12{fill:#d9d9d9;}.cls-13{fill:#b7b7b7;}.cls-14{fill:#c2c2c2;}.cls-15{fill:#b1b1b1;}</style></defs><title>gray</title><g id="Layer_2" data-name="Layer 2"><rect class="cls-1" width="1921" height="1080"/></g><g id="Layer_1" data-name="Layer 1"><path class="cls-2" d="M903.55,1h-17c.87,1,1.75,2,2.65,2.92Z"/><path class="cls-2" d="M835,1H772.26c8.32,3.21,16.18,8.37,24.36,12.17C809.41,9.15,822.24,5,835,1Z"/><path class="cls-2" d="M438.42,7.23c0,2.09-.07,4.18-.1,6.29C438.35,11.41,438.39,9.32,438.42,7.23Z"/><polygon class="cls-2" points="902.17 114.4 902.17 114.4 902.18 114.42 902.17 114.4"/><path class="cls-2" d="M1050.37,7.48c20.26,16.9,48.35.45,71.31,5.74,2.17-4.36,4.26-8.42,6.29-12.22h0c-2,3.8-4.11,7.86-6.28,12.22C1098.72,7.92,1070.63,24.38,1050.37,7.48Z"/><path class="cls-2" d="M1916.31,1081H1921v-3Z"/><path class="cls-2" d="M668.57,12.81c-.19.57-.37,1.12-.55,1.63C668.2,13.93,668.38,13.38,668.57,12.81Z"/><path class="cls-2" d="M669.54,9.81l-.27.85Z"/><path class="cls-2" d="M670.18,7.74l-.06.22Z"/><path class="cls-2" d="M17.38,337.91c1.64-40.84,10.48-66.3,24.42-95,9-18.56,18.44-43.5,27.67-65.05,4.25-9.93,10.81-27.69,12.38-26.44,21,16.67,57-103.89,85.33-141.28C167,7,166.79,3.89,166.51,1H13.08C8.74,13.19,4.38,25.23,0,37V433.46l7-25.39C12.67,387.65,16.67,355.73,17.38,337.91Z"/><path class="cls-3" d="M876.82,1061.39c-7.17-.53-16.93,10.28-29.35,19.07,10.08-44.57,19.72-87.16,30.52-134.9-2.6-92.16-1.18-100.46,37-210,4.69-85.79,18.49-121.17,47.34-214.46,29.26-94.63,48.22-88.52,74.74-169.67-.16,18.55-.27,32.38-.43,50.36,9.4-32.48,18.19-62.86,26.87-92.83,6,1.42,10.21,7.86,16.54,2.07,4.58-4.18,12-24.61,18.19-37.79-.19-12.81,1.65-33.05-1-37-6.31-9.4-14.72-11.13-23.59-16.79-2.71,10.47-7.42,28.62-16.12,62.17-25.44-45.07-49.22-91.5-75-130.64-9.59-14.56-23.87-12.07-36-17.34q-22.2-9.63-44.4-19.22v0l-41.63,36.21c5.14,29.84,3,86,33.61,17,8.33-18.74,17.15-8.38,23.16-1.58,19.71,22.32,53-7.2,60.43,62,.37,3.44,2.08,4.53,3.84,2.39,14-17.16,21-7,10.79,44.93-4.33,22-19.5,51.82-29.69,75.46-16.15,37.44-32.32,69.46-48.37,109.52-34.73,86.73-61.65,94.24-62.38,21-.25-25.68-5.78-43.24-13.51-44.91-21.81-4.7-46.29,2-69,1-3.71-.18-5.52-13-4.83-27.2,1.14-23.44,4.42-51.82,7.9-79.81,7.59-61,8.88-97.66-11.23-83.48-24.16,17-23.63-53.08-5.42-124.51,4.58,10.89,8.06,27.16,14.63,31,2.76,1.59,13.43-20.72,18-36.87,3.88-13.72,4.72-35.31,5.88-51.39,1.33-18.49,1.53-34.75,2.23-52-8.18-3.8-16-9-24.36-12.17h-100c-.7,2.33-1.39,4.62-2.05,6.74l-.06.22-.58,1.85-.27.85c-.24.75-.47,1.47-.7,2.15s-.37,1.12-.55,1.63c-.32.93-.62,1.74-.89,2.43a6.09,6.09,0,0,1-1.27,2.38c-17.86,8.59-32.86,27-55,126.56-11.15,50.06-32.89,100.95-48.68,148L510,349.16q2.09-15.59,4.15-31.17c15.08-25.94,31.57-60.6,44.87-75.48,14.64-16.4,23.66-30.66,29-86.88.94-9.94,4.44-24.88,4.82-33.36,1.18-25.66,5.63-66.37.84-68.94s-19.11,30.42-29.46,52.43c-6.8,14.45-14,37-30.12,80.49,4.19-27.95,6.3-41.47,8.17-54.66,5.72-40.24,20.39-93.27,15.79-119.7-.17-.94.75-5.1,2.2-10.89H438.52q-.06,3.1-.1,6.23c0,2.09-.07,4.18-.1,6.29q-.09,5.88-.19,11.88t-.19,12.24c16.38-35.45,29.24-50.49,28.18-1.55-.13,6.24,7.17-6,8.81-2.06,2.53,6,5.11,14.84,3.9,29.66-.9,11.15-7.52,33.75-12,50.89-1.61,6.21-4.34,11.22-6.55,17C415.63,248.72,416,247.55,405,176.51c-5.35-34.33-11.47-66.67-19.13-93.87C376.39,49.11,373.63,49.18,387.34,1h-8.56L358.37,45.13a94.37,94.37,0,0,1-.25-14.85q.94-16.7,1-29.28H320.32c-7.09,16-12.91,37.51-14.88,70.14-1.41,23.37-9.87,61.25-15.78,96.43,2.23-4.62,6.12-13.34,9.84-20.22,5.08-9.4,11-22.29,14.67-24.08,2-1,1.8,18.26-.33,26.91-4.78,19.45-12.16,46.35-17.08,55.26-12.71,23-26,45.51-36.64,54.63-28.2,24.21-55.21,41.83-82.36,60.34-3.15,2.14-4.52-5.59-6.17-10.55-6.8-20.53-16.07-10.06-32,56.51-4.23,17.69-13.44,45.11-17.44,49.7C99.35,442.32,89.65,495.8,81.26,554.58c-2.81,19.66-5.09,38.62-7.22,54.93,1.76,1.86,2.32,3.74,3.36,3.35,6.71-2.53,20.25-13.76,19.23-7.12-8,52-17.32,49.24-27.36,66.18-6.95,11.71-17.4,40.33-23.7,64.21Q22.32,824.29,0,913.57V1081H740.24l.53-.26a2.34,2.34,0,0,0,0,.26H763.3c12.51-41.87,25.31-85.17,39.22-131.85,1.8,38.14-.85,61.28-16.09,108.09q-3.82,11.73-7.58,23.76h100.7C879.78,1070.39,879.12,1061.56,876.82,1061.39Z"/><path class="cls-4" d="M1833.31,1071.27a51.19,51.19,0,0,1-9.12,9.73h20.25C1846,1061.83,1839,1063.81,1833.31,1071.27Z"/><path class="cls-4" d="M1790.47,965.7c23.82-53.12,51-147.12,56.83-66.67q2.67-17.09,5.32-34.17c-1.58-7.28-3.16-14.56-5.19-23.93l33.83-77.49c.21-10.12.54-14.11.31-16.55-2.07-21.94-4.24-43.6-6.38-65.34,11.88-24.87,24-52.21,35.6-74,3.42-6.42,6.82-12.59,10.21-18.62V101.82c-8.3,10-17.58,18.81-27.89,33.13,10.56-30.62,14.84-41.4,18.4-53.73,2.81-9.72,6.62-22.48,9.49-33.22V6.5a16,16,0,0,0-3-3.89c-.76-.69-11.62,31.42-14.51,46.33-9.79,50.28-20.77,72.12-31.76,85.19-10,12-15.54,10.44-6.33-39.51,6-32.48,7.68-61.55,11.23-93.62h-173.8q-7,17.06-14,34.14c-15.91,38.77-30.63,78.66-35.66,135.42-2.32,26.17-20.58,62.69-27.2,57.36-4.71-3.79-13.25-9.38-16.39.54-11.74,37.13-24,81.11-32.32,121-15.56,74.91-29,149.18-42.29,222.92-6.18,34.13-11.49,68.62-14.86,99.05-10.1,91.22-26.82,181.5-59.91,278.94-3.91,11.48-7.73,42.45-7.88,55.68-.31,27.26,1.44,49.68,2,74.9h71.14c8.13-12.47,16-18.91,20.33-15.07,1.24,1.11,1.56,6.87,1.22,15.07h114.67c10.13-23.24,16.56-23.73,18.65,0h130.27c-10.81-12.08-12.58-56.09-20.9-76.77C1787.65,999.21,1790.08,979.09,1790.47,965.7Z"/><path class="cls-5" d="M1893.11,135c10.31-14.32,19.59-23.13,27.89-33.13V48c-2.87,10.74-6.68,23.5-9.49,33.22C1908,93.55,1903.67,104.33,1893.11,135Z"/><path class="cls-5" d="M1921,588.93c-3.39,6-6.79,12.2-10.21,18.62-11.62,21.79-23.72,49.13-35.6,74,2.14,21.74,4.31,43.4,6.38,65.34.23,2.44-.1,6.43-.31,16.55l-33.83,77.49c2,9.37,3.61,16.65,5.19,23.93Q1850,881.95,1847.3,899c-5.82-80.45-33,13.55-56.83,66.67-.39,13.39-2.82,33.51-.8,38.53,8.32,20.68,10.09,64.69,20.9,76.77h13.62a51.19,51.19,0,0,0,9.12-9.73c5.66-7.46,12.67-9.44,11.13,9.73h71.87l4.69-3Z"/><path class="cls-5" d="M1871.69,134.13c11-13.07,22-34.91,31.76-85.19,2.89-14.91,13.75-47,14.51-46.33a16,16,0,0,1,3,3.89V1h-44.41c-3.55,32.07-5.25,61.14-11.23,93.62C1856.15,144.57,1861.64,146.09,1871.69,134.13Z"/><path class="cls-4" d="M1084.67,989c13.49-39.86,27.21-78.72,40.38-119.89,3.81-11.92,9.24-39.41,8.59-44.31-4.21-31.53-9.86-58.9-15.16-87.26-.78-4.21-3.91-4.22-3.08-9.93,2.72-18.52,7.18-49.84,10.24-56.55,17.94-39.49,17-124.65,42.36-142.85,4.77-3.42,12.53-22.7,18.92-34.66.65-18.32,4.22-46.8,1.35-52.89-6.34-13.45-13.36-20.92-3.71-77,2-11.39-4.62-15.63-8-20.43-13.43-19-28.74-31.5-40.09-57.62-5.51-12.69.65-54.63,17.3-92.19,22.93-51.75,45.77-100.12,68.71-152.35,4.78-10.89,9.64-25.5,14.51-40.12h-53.84q1,5.69,1.93,12c-2.18,21-4.36,41.92-7.24,69.56-16.48,19.24-34.1,52-42,46.35-14-10-23.56-38.76-32.23-68.53-6.68-22.95-15.92-16.86-34.72,38-26.23,76.6-44.2,86.54-42.89,25.92.14-6.56.44-15.23-1-16.09-15.72-9.26-30.59-22.37-48.1-24-18.78-1.72-40,7-60.5,13-3.75,1.1-9.4,11.18-14.18,17.11h0q22.2,9.6,44.4,19.22c12.14,5.27,26.42,2.78,36,17.34,25.79,39.14,49.57,85.57,75,130.64,8.7-33.55,13.41-51.7,16.12-62.17,8.87,5.66,17.28,7.39,23.59,16.79,2.63,3.92.79,24.16,1,37-6.17,13.18-13.61,33.61-18.19,37.79-6.33,5.79-10.51-.65-16.54-2.07-8.68,30-17.47,60.35-26.87,92.83.16-18,.27-31.81.43-50.36-26.52,81.15-45.48,75-74.74,169.67C933.52,614.34,919.72,649.72,915,735.51c-38.22,109.59-39.64,117.89-37,210-10.8,47.74-20.44,90.33-30.52,134.9,12.42-8.79,22.18-19.6,29.35-19.07,2.3.17,3,9,2.73,19.61h178.16c3.41-12.73,6.94-26.81,10.63-42.39C1072.35,1021.68,1079.13,1005.37,1084.67,989Z"/><path class="cls-4" d="M1050.37,7.48c20.26,16.9,48.35.44,71.31,5.74,2.17-4.36,4.26-8.42,6.28-12.22h-83.69A38.93,38.93,0,0,0,1050.37,7.48Z"/><path class="cls-6" d="M1392.3,926.29c3.43-18.53,16.81-51.92,24.36-65.41,30-53.63,52.72-160.41,52.61-239.85,0-14.73,3-38,6.39-59.46,6.06-38.18,13.47-77.94,23-132.56h0c.53-1.34,5.74-14.51,11.9-30.12.72-11.41,2-23.54,2-32.76.12-49.73,1.19-101.95-.62-146.7-1-24.4-7.59-34.13-10.72-53.29-5.34-32.74,1.84-61.22,22.7-104.92,12.88-27,24.21-47.37,34.7-60.22h-86.4c-8.16,22.63-16.07,43.14-23.11,55.2-12.07,20.65-22.16,10.86-29.17.17-3.34-5.09-1.39-29.37-.4-55.37h-35.27c-10.47,33.76-20.94,67.55-31.46,101.14-41.58,132.77-81.94,223.45-121.3,273.53-24.88,31.66-28.69,22-24.14-50.71,1.2-19.12-1-34.32-4.89-39.45-10.82-14.37-11.48-11.93-10.69-67C1215.1,151.92,1219.62,40.27,1256,5l.69-4H1237c-4.87,14.62-9.73,29.23-14.51,40.12-22.94,52.23-45.78,100.6-68.71,152.35-16.65,37.56-22.81,79.5-17.3,92.19,11.35,26.12,26.66,38.6,40.09,57.62,3.39,4.8,10,9,8,20.43-9.65,56-2.63,63.5,3.71,77,2.87,6.09-.7,34.57-1.35,52.89-6.39,12-14.15,31.24-18.92,34.66-25.35,18.2-24.42,103.36-42.36,142.85-3.06,6.71-7.52,38-10.24,56.55-.83,5.71,2.3,5.72,3.08,9.93,5.3,28.36,11,55.73,15.16,87.26.65,4.9-4.78,32.39-8.59,44.31-13.17,41.17-26.89,80-40.38,119.89-5.54,16.37-12.32,32.68-16.33,49.61-3.69,15.58-7.22,29.66-10.63,42.39h78.79l1.45-5.85c20-79.93,37-156.3,43.52-228.06,2.06-22.72,9.31-58.79,16.53-86.41,20-76.56,38.36-150.43,49.75-226.51,1.8-12,17.75-51.83,23.26-56.81,18.65-16.84,33.22-53.77,47-127.06,3.44-18.31,6.46-36.31,11.64-65.57,14.72,20.33,37.19-53.39,57.36-100.84,39.75-93.56,55.42-97.87,61.15-25.41,1.56,19.64,9.42,25.5,17.49,23.1,9.13-2.72,17.59-10.68,11.58,37-2.15,17.13,1.92,32.27,6.89,29.76,26.32-13.3,22.27,85.09-9,194-9.16,31.85-19.48,62.28-27.78,94.62-8.43,32.88-15,67.32-24.9,112.43L1458.52,590c-8.86,35.78-13.78,55.62-18.09,73,3.09,23.66,11.3,37.51,7,69-3.38,24.66-22.1,72.84-34.35,107.69-28.51,81.16-57.06,162.65-85.81,241.24h9.24c3.43-7.76,6.91-15.12,10.44-22C1364,1025.57,1379.39,996.1,1392.3,926.29Z"/><path class="cls-7" d="M1545.76,1065.93c-4.28-3.84-12.2,2.6-20.33,15.07H1547C1547.32,1072.8,1547,1067,1545.76,1065.93Z"/><path class="cls-7" d="M1452.27,1006.1c.15-13.23,4-44.2,7.88-55.68C1493.24,853,1510,762.7,1520.06,671.48c3.37-30.43,8.68-64.92,14.86-99.05,13.34-73.74,26.73-148,42.29-222.92,8.3-39.94,20.58-83.92,32.32-121,3.14-9.92,11.68-4.33,16.39-.54,6.62,5.33,24.88-31.19,27.2-57.36,5-56.76,19.75-96.65,35.66-135.42q7-17.05,14-34.14H1558.63c-10.49,12.85-21.82,33.22-34.7,60.22-20.86,43.7-28,72.18-22.7,104.92,3.13,19.16,9.72,28.89,10.72,53.29,1.81,44.75.74,97,.62,146.7,0,9.22-1.26,21.35-2,32.76-6.16,15.61-11.37,28.78-11.9,30.12-9.56,54.62-17,94.38-23,132.56-3.39,21.42-6.41,44.73-6.39,59.46.11,79.44-22.61,186.22-52.61,239.85-7.55,13.49-20.93,46.88-24.36,65.41-12.91,69.81-28.27,99.28-45.37,132.7-3.53,6.89-7,14.25-10.44,22h117.8C1453.71,1055.78,1452,1033.36,1452.27,1006.1Z"/><path class="cls-7" d="M1498.69,429Z"/><path class="cls-8" d="M358.37,45.13,378.78,1H359.1q0,12.59-1,29.28A94.37,94.37,0,0,0,358.37,45.13Z"/><path class="cls-8" d="M69.27,671.92c10-16.94,19.37-14.23,27.36-66.18,1-6.64-12.52,4.59-19.23,7.12-1,.39-1.6-1.49-3.36-3.35,2.13-16.31,4.41-35.27,7.22-54.93,8.39-58.78,18.09-112.26,40.92-138.51,4-4.59,13.21-32,17.44-49.7,15.9-66.57,25.17-77,32-56.51,1.65,5,3,12.69,6.17,10.55,27.15-18.51,54.16-36.13,82.36-60.34,10.62-9.12,23.93-31.61,36.64-54.63,4.92-8.91,12.3-35.81,17.08-55.26,2.13-8.65,2.36-27.91.33-26.91-3.64,1.79-9.59,14.68-14.67,24.08-3.72,6.88-7.61,15.6-9.84,20.22,5.91-35.18,14.37-73.06,15.78-96.43,2-32.63,7.79-54.17,14.88-70.14H232.08c-23.33,80.47-38.45,75.13-56.17,97.71-17,21.69-33.34,38.5-50.76,63.38C98.8,199.69,73,284,50.52,363,32.6,425.88,13.48,490.69.34,566.1c-.11.62-.23,1.25-.34,1.88V913.57q22.17-89.13,45.57-177.44C51.87,712.25,62.32,683.63,69.27,671.92Z"/><path class="cls-9" d="M794.39,65.15c-1.16,16.08-2,37.67-5.88,51.39-4.57,16.15-15.24,38.46-18,36.87-6.57-3.79-10-20.06-14.63-30.95C737.67,193.89,737.14,264,761.3,247c20.11-14.18,18.82,22.48,11.23,83.48-3.48,28-6.76,56.37-7.9,79.81-.69,14.2,1.12,27,4.83,27.2,22.68,1.07,47.16-5.67,69-1,7.73,1.67,13.26,19.23,13.51,44.91.73,73.27,27.65,65.76,62.38-21,16-40.06,32.22-72.08,48.37-109.52,10.19-23.64,25.36-53.48,29.69-75.46,10.22-51.92,3.22-62.09-10.79-44.93-1.76,2.14-3.47,1-3.84-2.39-7.41-69.25-40.72-39.73-60.43-62-6-6.8-14.83-17.16-23.16,1.58-30.66,69-28.47,12.81-33.61-17-2.8-15.88-5.38-32.45-8.5-47.38-1.85-8.86-4.55-15.12-8.32-27.19L889.15,3.92C888.25,3,887.37,2,886.5,1H835c-12.78,4-25.61,8.15-38.4,12.17C795.92,30.4,795.72,46.66,794.39,65.15Z"/><path class="cls-10" d="M50.52,363C73,284,98.8,199.69,125.15,162.09c17.42-24.88,33.75-41.69,50.76-63.38C193.63,76.13,208.75,81.47,232.08,1H166.51c.28,2.89.51,6,.67,9.19-28.33,37.39-64.29,158-85.33,141.28-1.57-1.25-8.13,16.51-12.38,26.44C60.24,199.46,50.83,224.4,41.8,243c-13.94,28.65-22.78,54.11-24.42,95-.71,17.82-4.71,49.74-10.37,70.16L0,433.46V568c.11-.63.23-1.26.34-1.88C13.48,490.69,32.6,425.88,50.52,363Z"/><path class="cls-11" d="M802.52,949.15c-13.91,46.68-26.71,90-39.22,131.85h15.55q3.76-12,7.58-23.76C801.67,1010.43,804.32,987.29,802.52,949.15Z"/><path class="cls-12" d="M1191.8,218.53c-.79,55-.13,52.61,10.69,67,3.86,5.13,6.09,20.33,4.89,39.45-4.55,72.67-.74,82.37,24.14,50.71,39.36-50.08,79.72-140.76,121.3-273.53,10.52-33.59,21-67.38,31.46-101.14H1369.2c-4.18,4.3-7.26,3.64-9.69,0h-15.43c-36.72,90.55-75.21,122.37-77.62,60.38-.88-22.46.38-41.46,4.58-60.38H1256.7L1256,5C1219.62,40.27,1215.1,151.92,1191.8,218.53Z"/><path class="cls-10" d="M0,1V37C4.38,25.23,8.74,13.19,13.08,1Z"/><path class="cls-4" d="M1266.46,61.38c2.41,62,40.9,30.17,77.62-60.38h-73C1266.84,19.92,1265.58,38.92,1266.46,61.38Z"/><path class="cls-4" d="M1420,56.37c7,10.69,17.1,20.48,29.17-.17,7-12.06,15-32.57,23.11-55.2h-52.68C1418.56,27,1416.61,51.28,1420,56.37Z"/><path class="cls-4" d="M1369.2,1h-9.69C1361.94,4.64,1365,5.3,1369.2,1Z"/><path class="cls-13" d="M878.89,108.93l23.29,5.49v0c4.78-5.93,10.43-16,14.18-17.11,20.53-6,41.72-14.72,60.5-13,17.51,1.61,32.38,14.72,48.1,24,1.47.86,1.17,9.53,1,16.09-1.31,60.62,16.66,50.68,42.89-25.92,18.8-54.89,28-61,34.72-38,8.67,29.77,18.22,58.49,32.23,68.53,7.91,5.66,25.53-27.11,42-46.35,2.88-27.64,5.06-48.6,7.24-69.56-2.77,4.65-5.71,7.22-8.28,14.26-27.2,74.67-40.49,84.77-37.45,13.79.37-8.51-5.74-2.28-8-6-3.6-5.93-6.48-14.45-9.67-21.88-23-5.29-51,11.16-71.31-5.74a38.93,38.93,0,0,1-6.1-6.48H922.08q-20.85,45.81-41.71,91.61Q879.64,100.77,878.89,108.93Z"/><path class="cls-14" d="M385.82,82.64c7.66,27.2,13.78,59.54,19.13,93.87,11.08,71,10.68,72.21,55.35-44.92,2.21-5.79,4.94-10.8,6.55-17,4.46-17.14,11.08-39.74,12-50.89,1.21-14.82-1.37-23.63-3.9-29.66-1.64-3.91-8.94,8.3-8.81,2.06,1.06-48.94-11.8-33.9-28.18,1.55q.09-6.18.19-12.24t.19-11.88c0-2.11.07-4.2.1-6.29s.06-4.16.1-6.23H387.34C373.63,49.18,376.39,49.11,385.82,82.64Z"/><path class="cls-1" d="M558.08,11.89c4.6,26.43-10.07,79.46-15.79,119.7-1.87,13.19-4,26.71-8.17,54.66,16.11-43.46,23.32-66,30.12-80.49,10.35-22,24.55-55.07,29.46-52.43s.34,43.28-.84,68.94c-.38,8.48-3.88,23.42-4.82,33.36-5.33,56.22-14.35,70.48-29,86.88-13.3,14.88-29.79,49.54-44.87,75.48q-2.07,15.58-4.15,31.17l52.12-55.32c15.79-47.08,37.53-98,48.68-148,22.17-99.56,37.17-118,55-126.56a6.09,6.09,0,0,0,1.27-2.38c.27-.69.57-1.5.89-2.43.18-.51.36-1.06.55-1.63s.46-1.4.7-2.15l.27-.85L670.12,8l.06-.22c.66-2.12,1.35-4.41,2.05-6.74h-112C558.83,6.79,557.91,11,558.08,11.89Z"/><path class="cls-1" d="M1661.65,1081h18.65C1678.21,1057.27,1671.78,1057.76,1661.65,1081Z"/><path class="cls-4" d="M843.73,76.06c3.77,12.07,6.47,18.33,8.32,27.19,3.12,14.93,5.7,31.5,8.5,47.38l41.63-36.21-23.29-5.49q.75-8.16,1.48-16.32Q901.22,46.8,922.08,1H903.55l-14.4,2.92Z"/><path class="cls-15" d="M1131.35,35.1c2.25,3.7,8.36-2.53,8,6-3,71,10.25,60.88,37.45-13.79,2.57-7,5.51-9.61,8.28-14.26q-.93-6.34-1.93-12H1128c-2,3.8-4.12,7.86-6.29,12.22C1124.87,20.65,1127.75,29.17,1131.35,35.1Z"/><path class="cls-4" d="M1447.41,732.07c4.32-31.51-3.89-45.36-7-69,4.31-17.43,9.23-37.27,18.09-73l-36.14,59.39c9.89-45.11,16.47-79.55,24.9-112.43,8.3-32.34,18.62-62.77,27.78-94.62,31.3-108.94,35.35-207.33,9-194-5,2.51-9-12.63-6.89-29.76,6-47.65-2.45-39.69-11.58-37-8.07,2.4-15.93-3.46-17.49-23.1-5.73-72.46-21.4-68.15-61.15,25.41-20.17,47.45-42.64,121.17-57.36,100.84-5.18,29.26-8.2,47.26-11.64,65.57-13.75,73.29-28.32,110.22-47,127.06-5.51,5-21.46,44.82-23.26,56.81-11.39,76.08-29.75,150-49.75,226.51-7.22,27.62-14.47,63.69-16.53,86.41C1175,918.85,1158,995.22,1138,1075.15l-1.45,5.85h190.75c28.75-78.59,57.3-160.08,85.81-241.24C1425.31,804.91,1444,756.73,1447.41,732.07Z"/></g></svg>
