<svg id="Layer_1" data-name="Layer 1" xmlns="http://www.w3.org/2000/svg" viewBox="0 0 1872.02 332.79"><title>icu-logo</title><g fill="white"><path d="M0,328.38V4.81H109.34V328.38Z"/><path d="M296.6,332.79c-109.34,0-146.25-59.15-146.25-166.42,0-124.92,57-166,144.43-166,26.88,0,58.77,4.42,100.23,18.1l-20,91.82C327.58,94,313,91.77,297.51,91.77c-24.14,0-32.8,6.62-32.8,73.72,0,71.51,7.74,75.92,36,75.92,16.41,0,33.72-2.64,81.1-22.95l16.86,94.47C337.15,331.47,322.11,332.79,296.6,332.79Z"/><path d="M566.78,332.79c-75.63,0-137.59-17.21-137.59-129.34V4.81H539V208.75c0,25.6,2.28,31.78,30.07,31.78,26.88,0,30.07-6.18,30.07-31.78V4.81H704.38V203.45C704.38,296.59,661.1,332.79,566.78,332.79Z"/><path d="M771,52.71V85.62H755.83V5h47.32V17.61H771V40h30.26V52.71Z"/><path d="M845.41,85.62l-.66-4.08h-.88c-9,4.41-12.66,5.18-16.18,5.18-10.12,0-15.74-5-15.74-16,0-10.79,6.94-15.52,16.73-16.62l15.41-1.76V42c0-2.86-1.32-4.07-4.74-4.07-4,0-13.42,1.43-21.34,4l-2.65-11.34c10.9-3.3,19.7-4.51,25.76-4.51,10.23,0,15.84,3.74,15.84,14.09V85.62ZM844.09,61.3l-17,1.65a11.52,11.52,0,0,0-2,6.82c0,5,2,6.93,7.59,6.93,2.86,0,6.82-1,11.34-2.75Z"/><path d="M896.25,86.72c-15.85,0-24.32-9.25-24.32-30.49,0-20.58,9-30.15,23.88-30.15,4.18,0,7.92.33,15.73,2.09l-2.31,12c-5.94-2-9.24-2.31-11.77-2.31-8.37,0-11.23,4.51-11.23,18.26,0,15.08,3.19,18.71,11.23,18.71,2.75,0,5.5-.55,12.76-3.74l2.42,12C903.84,86.17,899.88,86.72,896.25,86.72Z"/><path d="M960.62,85.62V43.47c0-3.63-.88-5.17-5.61-5.17a36.4,36.4,0,0,0-15.18,3.85V85.62H926.4v-84L939.83,0V32h.88c9-5,14.74-5.94,19.36-5.94,9.14,0,14,4.18,14,14.31V85.62Z"/><path d="M1019.06,85.62H1004.2L985.94,27.18h13.64l10.79,36.1a39,39,0,0,1,1.21,8.36h.88a39.13,39.13,0,0,1,1.32-8.36l10.45-36.1h13Z"/><path d="M1071.22,86.72c-17.6,0-26.08-9.58-26.08-29.17,0-21.68,9.36-31.47,24.87-31.47,13.87,0,22.12,7.7,22.12,23.22a94.23,94.23,0,0,1-.55,9.9s-21.46.55-32.35.88c0,11.56,3.41,14.75,12,14.75,2.2,0,5.83-.22,17.28-3.74l2.42,11.55C1081.24,85.62,1075.29,86.72,1071.22,86.72Zm7.71-39.95c0-7.92-3.2-11.12-9.14-11.12-6.6,0-10.23,3.42-10.34,15.74,7.59-.11,19.37-.33,19.37-.33C1078.93,49.19,1078.93,47.76,1078.93,46.77Z"/><path d="M1137.47,40.5a20.82,20.82,0,0,0-5.39-1c-3.74,0-6.27.88-11.45,4.07v42h-13.42V27.18h13.42V33h.77c6.61-5.83,9.47-6.93,13-6.93a20.23,20.23,0,0,1,4.4.66Z"/><path d="M1173.34,86.72c-17.6,0-26.08-9.58-26.08-29.17,0-21.68,9.36-31.47,24.87-31.47,13.87,0,22.12,7.7,22.12,23.22a94.23,94.23,0,0,1-.55,9.9s-21.46.55-32.35.88c0,11.56,3.41,14.75,12,14.75,2.2,0,5.84-.22,17.28-3.74L1193,82.64C1183.36,85.62,1177.42,86.72,1173.34,86.72Zm7.71-39.95c0-7.92-3.19-11.12-9.14-11.12-6.6,0-10.23,3.42-10.34,15.74,7.59-.11,19.37-.33,19.37-.33C1181.05,49.19,1181.05,47.76,1181.05,46.77Z"/><path d="M1215.93,17.83c-4.84,0-8-2.75-8-7.71s3.19-7.59,8.14-7.59c4.62,0,8,2.42,8,7.59C1224.07,15,1221.1,17.83,1215.93,17.83Zm-6.6,67.79V27.18h13.42V85.62Z"/><path d="M1275.91,85.62V43.47c0-3.63-1.1-5.17-5.62-5.17a36,36,0,0,0-15.18,3.85V85.62h-13.43V27.18h13.43V32h.88c8.69-5,14.41-5.94,19.37-5.94,8.58,0,14,3.63,14,14.31V85.62Z"/><path d="M1331.59,85.62V5h15.18V85.62Z"/><path d="M1401,85.62V43.47c0-3.63-1.1-5.17-5.62-5.17a36,36,0,0,0-15.18,3.85V85.62H1366.8V27.18h13.43V32h.88c8.69-5,14.41-5.94,19.37-5.94,8.58,0,14,3.63,14,14.31V85.62Z"/><path d="M1464.52,12.55a34.54,34.54,0,0,0-6.27-.56c-5.39,0-7.37,1.77-7.37,6.72v8.47h14.41V38.74h-14.41V85.62h-13.43V38.74h-8.25V27.18h8.25V21c0-13.54,7.7-21,20.47-21a54,54,0,0,1,7.37.66Z"/><path d="M1500.51,86.72c-16,0-26.19-8.92-26.19-30.27,0-21.9,10.67-30.37,26.41-30.37,14.74,0,26.08,7.7,26.08,30.37C1526.81,77.47,1516.79,86.72,1500.51,86.72Zm.11-49.85c-7.82,0-12,3.19-12,19.58,0,15.85,3.74,19.48,12,19.48,8,0,11.88-3.52,11.88-19.37C1512.5,39.73,1508,36.87,1500.62,36.87Z"/><path d="M1572.15,40.5a20.81,20.81,0,0,0-5.4-1c-3.74,0-6.27.88-11.44,4.07v42h-13.43V27.18h13.43V33h.77c6.6-5.83,9.46-6.93,13-6.93a20.23,20.23,0,0,1,4.4.66Z"/><path d="M1649.29,85.62V43.47c0-3.74-.88-5.17-5.17-5.17-3.31,0-7.27,1-13.21,3.85V85.62h-13.43V43.47c0-3.85-1.1-5.17-4.84-5.17-3.08,0-8.25,1.32-13.42,3.85V85.62h-13.43V27.18h13.43V32h1c9-5,14.19-5.94,19-5.94,5.28,0,8.58,1.43,10.12,6.16h1c9-5.28,13.87-6.16,18.71-6.16,9.68,0,13.64,4.84,13.64,14.53v45Z"/><path d="M1710.8,85.62l-.66-4.08h-.88c-9,4.41-12.65,5.18-16.17,5.18-10.13,0-15.74-5-15.74-16,0-10.79,6.93-15.52,16.73-16.62l15.4-1.76V42c0-2.86-1.32-4.07-4.73-4.07-4,0-13.42,1.43-21.35,4l-2.64-11.34c10.9-3.3,19.7-4.51,25.75-4.51,10.24,0,15.85,3.74,15.85,14.09V85.62Zm-1.32-24.32L1692.54,63a11.52,11.52,0,0,0-2,6.82c0,5,2,6.93,7.59,6.93,2.86,0,6.82-1,11.33-2.75Z"/><path d="M1758.68,86.72c-9.47,0-13.43-4.63-13.43-14.86V38.74h-7.81V27.18h7.81V14.86l13.43-2.31V27.18H1775V38.74h-16.28V71c0,2.31.88,3.19,3,3.19,1.87,0,4.29-.44,13.09-4l2.2,11.66C1766.05,86.28,1762.31,86.72,1758.68,86.72Z"/><path d="M1797.63,17.83c-4.84,0-8-2.75-8-7.71s3.19-7.59,8.14-7.59c4.62,0,8,2.42,8,7.59C1805.77,15,1802.8,17.83,1797.63,17.83ZM1791,85.62V27.18h13.42V85.62Z"/><path d="M1853.42,49.63,1864.87,70c1.32,2.42,2.09,2.86,3.85,2.86a11.35,11.35,0,0,0,2.2-.22v13a24.39,24.39,0,0,1-4.07.33c-5.83,0-9.13-1.88-12.44-8L1844.73,60l-8.36,9.91V85.62h-13v-84l13-1.65V53.59h.88a45.15,45.15,0,0,1,6.16-9.57l14.64-17.17,14,.66Z"/><path d="M784.88,208.05c-17.83,0-29.6-6.49-29.6-29.82V126.29h15.07v51.94c0,11.55,3.64,16.72,14.75,16.72,10.57,0,15.19-4.29,15.19-16.72V126.29h14.63v51.94C814.92,199.36,804.36,208.05,784.88,208.05Z"/><path d="M868.63,207V164.8c0-3.63-1.1-5.17-5.62-5.17a36,36,0,0,0-15.18,3.85V207H834.4V148.52h13.43v4.84h.88c8.69-5,14.41-5.94,19.37-5.94,8.58,0,14,3.63,14,14.3V207Z"/><path d="M907.25,139.16c-4.84,0-8-2.75-8-7.7s3.19-7.59,8.14-7.59c4.62,0,8,2.42,8,7.59C915.4,136.3,912.42,139.16,907.25,139.16ZM900.65,207V148.52h13.43V207Z"/><path d="M959.41,207H944.56l-18.27-58.43h13.65l10.78,36.09a39,39,0,0,1,1.21,8.36h.88a39.13,39.13,0,0,1,1.32-8.36l10.46-36.09h13Z"/><path d="M1011.58,208.05c-17.61,0-26.08-9.57-26.08-29.16,0-21.68,9.35-31.47,24.87-31.47,13.86,0,22.12,7.7,22.12,23.21a94.26,94.26,0,0,1-.55,9.91s-21.46.55-32.36.88c0,11.55,3.41,14.75,12,14.75,2.2,0,5.83-.22,17.27-3.75l2.43,11.56C1021.59,207,1015.65,208.05,1011.58,208.05Zm7.7-40c0-7.92-3.19-11.11-9.13-11.11-6.61,0-10.24,3.41-10.35,15.74,7.6-.11,19.37-.33,19.37-.33C1019.28,170.52,1019.28,169.09,1019.28,168.1Z"/><path d="M1077.83,161.83a21,21,0,0,0-5.4-1c-3.74,0-6.27.88-11.44,4.07v42h-13.43V148.52H1061v5.83h.77c6.6-5.83,9.46-6.93,13-6.93a20.38,20.38,0,0,1,4.41.66Z"/><path d="M1106.88,208.05c-4.85,0-9-.66-19.48-3.52l2.53-11.12c11.88,3.2,15.08,3.75,18.16,3.75,4.4,0,7.37-1.65,7.37-6.06,0-3.74-1.54-5.17-7.59-7.37l-8.92-3.19c-6.82-2.42-10.89-6.82-10.89-14,0-12.65,9.57-19.14,21.9-19.14a81.19,81.19,0,0,1,16.39,1.87L1124,160.62c-9.46-2-12.21-2.31-15.4-2.31-4.51,0-7.6,1.87-7.6,6.6,0,3.19,1.21,4,7.27,6.28l9,3.3c6.6,2.42,11,6.71,11,15.18C1128.34,201.78,1119.64,208.05,1106.88,208.05Z"/><path d="M1149.46,139.16c-4.84,0-8-2.75-8-7.7s3.19-7.59,8.14-7.59c4.63,0,8,2.42,8,7.59C1157.61,136.3,1154.64,139.16,1149.46,139.16Zm-6.6,67.79V148.52h13.43V207Z"/><path d="M1192.71,208.05c-9.46,0-13.42-4.62-13.42-14.86V160.07h-7.82V148.52h7.82V136.19l13.42-2.31v14.64H1209v11.55h-16.29v32.24c0,2.31.88,3.2,3,3.2,1.87,0,4.29-.45,13.1-4l2.2,11.67C1200.09,207.61,1196.34,208.05,1192.71,208.05Z"/><path d="M1254.56,207l-.66-4.07H1253c-9,4.4-12.66,5.17-16.18,5.17-10.12,0-15.74-5-15.74-16,0-10.78,6.94-15.51,16.73-16.61l15.41-1.76V163.37c0-2.86-1.32-4.07-4.74-4.07-4,0-13.42,1.43-21.34,4l-2.65-11.33c10.9-3.3,19.7-4.51,25.75-4.51,10.24,0,15.85,3.74,15.85,14.08V207Zm-19.92-65.26c-4.18,0-6.71-2.31-6.71-6.82s2.64-6.82,6.71-6.82c3.85,0,6.71,2.09,6.71,6.82C1241.35,139.27,1238.93,141.69,1234.64,141.69Zm18.6,40.94-17,1.65a11.52,11.52,0,0,0-2,6.82c0,5,2,6.94,7.59,6.94,2.86,0,6.82-1,11.34-2.76Zm3.19-40.94c-4.07,0-6.72-2.31-6.72-6.82s2.65-6.82,6.83-6.82c3.74,0,6.6,2.09,6.6,6.82C1263.14,139.27,1260.72,141.69,1256.43,141.69Z"/><path d="M1302.43,208.05c-9.47,0-13.43-4.62-13.43-14.86V160.07h-7.81V148.52H1289V136.19l13.43-2.31v14.64h16.28v11.55h-16.28v32.24c0,2.31.88,3.2,3,3.2,1.87,0,4.29-.45,13.09-4l2.2,11.67C1309.8,207.61,1306.06,208.05,1302.43,208.05Z"/><path d="M1352.28,207V193l38.73-54H1355.8l-1.21-12.65h52.27v13.86L1368,194.29h37.86l1,12.66Z"/><path d="M1455.17,207V202h-.77c-9,4.84-14.09,6.05-19.48,6.05-9.68,0-14-4.62-14-14.75V148.52h13.43v42.25c0,3.41.88,5.07,5.5,5.07a30.46,30.46,0,0,0,14.75-3.86V148.52H1468V207Zm-21.57-65.26c-4.18,0-6.71-2.31-6.71-6.82s2.64-6.82,6.71-6.82c3.85,0,6.71,2.09,6.71,6.82C1440.31,139.27,1437.89,141.69,1433.6,141.69Zm21.79,0c-4.07,0-6.71-2.31-6.71-6.82s2.64-6.82,6.82-6.82c3.74,0,6.6,2.09,6.6,6.82C1462.1,139.27,1459.68,141.69,1455.39,141.69Z"/><path d="M1517.24,161.83a21,21,0,0,0-5.4-1c-3.74,0-6.27.88-11.44,4.07v42H1487V148.52h13.43v5.83h.77c6.6-5.83,9.46-6.93,13-6.93a20.3,20.3,0,0,1,4.41.66Z"/><path d="M1537.48,139.16c-4.84,0-8-2.75-8-7.7s3.19-7.59,8.14-7.59c4.63,0,8,2.42,8,7.59C1545.63,136.3,1542.66,139.16,1537.48,139.16Zm-6.6,67.79V148.52h13.43V207Z"/><path d="M1583.7,208.05c-15.84,0-24.32-9.24-24.32-30.48,0-20.58,9-30.15,23.88-30.15,4.18,0,7.93.33,15.74,2.09l-2.31,12c-5.94-2-9.25-2.31-11.78-2.31-8.36,0-11.22,4.51-11.22,18.27,0,15.07,3.19,18.71,11.22,18.71,2.75,0,5.51-.55,12.77-3.75l2.42,12C1591.3,207.5,1587.33,208.05,1583.7,208.05Z"/><path d="M1648.08,207V164.8c0-3.63-.88-5.17-5.61-5.17a36.4,36.4,0,0,0-15.19,3.85V207h-13.43V123l13.43-1.66v32h.88c9-5,14.75-5.94,19.37-5.94,9.13,0,14,4.18,14,14.3V207Z"/><path d="M814.37,317H800.84l-10.57-36.54a37.33,37.33,0,0,1-1.43-7H788a36.58,36.58,0,0,1-1.32,7L776.08,317H762.54l-13.2-58.44h13.2l6.71,34.67a65.1,65.1,0,0,1,1.1,7.59h.78a43.52,43.52,0,0,1,1.54-7.59l9.46-33.13h13.65l9.35,33.13a39.78,39.78,0,0,1,1.43,7.59h.88a65.1,65.1,0,0,1,1.1-7.59l7.15-34.67h12.22Z"/><path d="M901.2,317H887.66L877.1,280.46a37.33,37.33,0,0,1-1.43-7h-.88a36.58,36.58,0,0,1-1.32,7L862.9,317H849.37l-13.21-58.44h13.21l6.71,34.67a65.1,65.1,0,0,1,1.1,7.59H858a43.52,43.52,0,0,1,1.54-7.59L869,260.1H882.6L892,293.23a39.23,39.23,0,0,1,1.44,7.59h.88a65.1,65.1,0,0,1,1.1-7.59l7.15-34.67h12.21Z"/><path d="M988,317H974.49l-10.57-36.54a37.33,37.33,0,0,1-1.43-7h-.88a36.58,36.58,0,0,1-1.32,7L949.73,317H936.19L923,258.56h13.2l6.72,34.67a65.1,65.1,0,0,1,1.1,7.59h.77a43.52,43.52,0,0,1,1.54-7.59l9.46-33.13h13.65l9.35,33.13a39.78,39.78,0,0,1,1.43,7.59h.88a65.1,65.1,0,0,1,1.1-7.59l7.16-34.67h12.21Z"/><path d="M1015.87,317.88c-5.17,0-8.48-3-8.48-8.15s3.42-8,8.48-8,8.58,2.53,8.58,8C1024.45,314.8,1021.37,317.88,1015.87,317.88Z"/><path d="M1047.67,249.21c-4.84,0-8-2.75-8-7.7s3.19-7.6,8.14-7.6c4.62,0,8,2.42,8,7.6C1055.81,246.35,1052.84,249.21,1047.67,249.21Zm-6.6,67.79V258.56h13.42V317Z"/><path d="M1093.89,318.1c-15.85,0-24.32-9.25-24.32-30.48,0-20.58,9-30.16,23.88-30.16,4.18,0,7.92.33,15.74,2.09l-2.32,12c-5.94-2-9.24-2.31-11.77-2.31-8.36,0-11.23,4.51-11.23,18.26,0,15.08,3.2,18.71,11.23,18.71,2.75,0,5.5-.55,12.76-3.74l2.43,12C1101.48,317.55,1097.52,318.1,1093.89,318.1Z"/><path d="M1158.16,317v-4.95h-.77c-9,4.84-14.09,6.05-19.48,6.05-9.69,0-14-4.62-14-14.75V258.56h13.43v42.26c0,3.41.88,5.06,5.5,5.06a30.47,30.47,0,0,0,14.75-3.85V258.56H1171V317Z"/><path d="M1196.12,317.88c-5.17,0-8.47-3-8.47-8.15s3.41-8,8.47-8,8.59,2.53,8.59,8C1204.71,314.8,1201.62,317.88,1196.12,317.88Z"/><path d="M1255.44,317v-4.95h-.77c-9,4.84-14.09,6.05-19.48,6.05-9.69,0-14-4.62-14-14.75V258.56h13.43v42.26c0,3.41.88,5.06,5.5,5.06a30.47,30.47,0,0,0,14.75-3.85V258.56h13.42V317Z"/><path d="M1282.84,317V305l29.27-35.32h-25.75l-.77-11.12h41.71v12L1298,305.88h28l1.43,11.12Z"/><path d="M1377.37,317V274.85c0-3.63-.88-5.17-5.61-5.17a36.4,36.4,0,0,0-15.19,3.85V317h-13.43V233l13.43-1.65v32h.88c9-5,14.75-6,19.37-6,9.13,0,14,4.18,14,14.31V317Z"/><path d="M1415.55,317.88c-5.17,0-8.47-3-8.47-8.15s3.41-8,8.47-8,8.59,2.53,8.59,8C1424.14,314.8,1421.06,317.88,1415.55,317.88Z"/><path d="M1461.22,318.1c-15.84,0-24.32-9.25-24.32-30.48,0-20.58,9-30.16,23.88-30.16,4.18,0,7.92.33,15.74,2.09l-2.31,12c-6-2-9.25-2.31-11.78-2.31-8.36,0-11.22,4.51-11.22,18.26,0,15.08,3.19,18.71,11.22,18.71,2.75,0,5.5-.55,12.77-3.74l2.42,12C1468.82,317.55,1464.85,318.1,1461.22,318.1Z"/><path d="M1525.6,317V274.85c0-3.63-.88-5.17-5.61-5.17a36.4,36.4,0,0,0-15.19,3.85V317h-13.43V233l13.43-1.65v32h.88c9-5,14.75-6,19.37-6,9.13,0,14,4.18,14,14.31V317Z"/></g></svg>
