<svg xmlns="http://www.w3.org/2000/svg" viewBox="0 0 1920 1080"><defs><style>.cls-1{fill:#d3e8f2;}.cls-2{fill:none;}.cls-3{fill:#d5e7f3;}.cls-4{fill:#d0e2ef;}.cls-5{fill:#cee3f2;}.cls-6{fill:#d1dff2;}.cls-7{fill:#caddee;}.cls-8{fill:#c8d5eb;}.cls-9{fill:#e2eef3;}.cls-10{fill:#d9ddef;}.cls-11{fill:#daeaf2;}.cls-12{fill:#dbeaf2;}.cls-13{fill:#dae8f1;}.cls-14{fill:#d5ddef;}.cls-15{fill:#d4e0f0;}.cls-16{fill:#dbe7f1;}.cls-17{fill:#bacee4;}.cls-18{fill:#c7daea;}.cls-19{fill:#c8def0;}.cls-20{fill:#c7dbf1;}.cls-21{fill:#c1d9ee;}.cls-22{fill:#c8e1f1;}.cls-23{fill:#bdd4ec;}.cls-24{fill:#afcae2;}.cls-25{fill:#aec5e1;}.cls-26{fill:#9fbfdd;}</style></defs><title>light</title><g id="Layer_2" data-name="Layer 2"><rect class="cls-1" width="1921" height="1080"/></g><g id="Layer_1" data-name="Layer 1"><path class="cls-2" d="M848.87,153.22a2.29,2.29,0,0,1-.19.35c0,.57,0,1.17,0,1.78.06-.53.12-1.19.17-2A.57.57,0,0,1,848.87,153.22Z"/><path class="cls-2" d="M848.87,153.22c1.19-2.77.74-11.28,0,0Z"/><path class="cls-2" d="M880.86,5.54h-.16c-.3.73-.61,2.37-.66,5.74l.75-3.47C880.84,7,880.86,6.21,880.86,5.54Z"/><path class="cls-2" d="M879.71,5.07a2.64,2.64,0,0,0,1,.46,1.9,1.9,0,0,1,.16-.32C880.73-3.74,876.51,2.92,879.71,5.07Z"/><path class="cls-2" d="M850.11,787.54c-.48-1.79-1-3.3-1.42-4.59.24,2.46.45,4.83.65,7.14C849.59,789.23,849.85,788.38,850.11,787.54Z"/><path class="cls-2" d="M37.14,507.29c.73,2.63,1.44,5.32,2.16,8.06l0-9.59C38.59,506.3,37.85,506.81,37.14,507.29Z"/><path class="cls-2" d="M8.83,477.27a28.63,28.63,0,0,1,2.2-2.76q-.3-3.84-.57-8.12Q9.69,471.58,8.83,477.27Z"/><path class="cls-2" d="M40,519.52c.05-1.71.1-3.43.16-5.14l-.9,1C39.54,516.75,39.79,518.13,40,519.52Z"/><path class="cls-2" d="M327.86,489l.09,0q-.07-.32-.15-.66l0,.26C327.8,488.76,327.83,488.87,327.86,489Z"/><path class="cls-2" d="M1023.29,421.2a36.7,36.7,0,0,0,.91-3.65q-1.44,4.77-3.05,9.08A25,25,0,0,0,1023.29,421.2Z"/><path class="cls-2" d="M330.64,441.86c2.18-11.62,4.95-23.26,8.06-34.2C334,406.21,332,421.89,330.64,441.86Z"/><path class="cls-2" d="M880.86,5.21v.33C881.56,5.54,881.28,4.58,880.86,5.21Z"/><path class="cls-2" d="M73.8,0h-.54c0,.3,0,.6,0,.9Z"/><path class="cls-2" d="M945,46.38l.16.13-.06-.86C945.08,45.9,945,46.14,945,46.38Z"/><path class="cls-2" d="M1442.2,383.58c.24-1.05.46-2.12.69-3.18v0C1442.66,381.41,1442.43,382.49,1442.2,383.58Z"/><path class="cls-2" d="M848.57,156.24c-.16.25-.32.51-.48.79C848.26,157.24,848.42,157.05,848.57,156.24Z"/><path class="cls-2" d="M817.6,227.16l-.06.2c0,.12,0,.25.05.38C817.64,227.19,817.66,227,817.6,227.16Z"/><path class="cls-2" d="M1441.41,387.17v.3c.26-1.3.53-2.6.79-3.89-.3,1.35-.6,2.67-.91,4C1441.33,387.43,1441.38,387.29,1441.41,387.17Z"/><path class="cls-2" d="M756.12,774.44c-.75,7.7-1.82,16.68-3.21,27.32,1.75-6.22,3.75-13.1,6-20.94C758,778.68,757.05,776.56,756.12,774.44Z"/><path class="cls-3" d="M1920,383.09v-66.6C1917.89,333,1918.27,355.45,1920,383.09Z"/><path class="cls-3" d="M1920,522.08c-12.19-30.62-25.14-42.53-37.85-54.27-20.06-18.5-23.57-29.47-24.77-115.76-.17-12.38.91-25.16,1.13-37.8.26-14.83-1.33-26.07-4.59-23-2.35,2.25-4.75,10.64-6.37,19.31-1,5.08-1.14,17.52-.49,24.27,8.64,88.59-2.31,105.41-17.76,143.21-16.82,41.19-26.6,39.42-37.8-21.65-9-49.24-23-48.6-34.83-77.05-1.35-11.68,3.15-20.67,2.65-29.73-2-35.5,13.47-55.91,5-87-8-29.48-12.17,22.07-16.6,41.65-10.43,46-15.36,31.14-19.34-24.15-1.42-19.57-6.51-35.31-6.9-54.12-1-47.82-2.41-79.33-15.76-60.48-7,9.76-8-43.39-15.1-46.08-7.15,10.07-3.71,45.1-6.91,63.73-4,23.18-8.1,30.69-12.9.31-10.65-67.41-13.25-71.13-24.59-18.37-6,28-13.31,45.07-19.59,69.66-4.42,17.25-10.64,33.11-15,15.64-16.1-64.06-26.32-12.59-37.13,34.25,4.71,46.56,13,57.61,23,46.76,5.71-6.15,11.8-12.19,13.37,21.52,1.77,37.61-2.66,69.9-10.24,79.65-8.74,11.17-17.75,11.75-26.16-18.17-11-39.3-15.47.43-16,42.56-.58,49.17,2.82,99-.22,148.66-1.94-1-3.64-1.22-5.28-2.75-8.15-7.58-6.53-107.21-18.53-56-9.1,38.84,8.53,50.21,10.83,84.11.78,11.36,3,21.24,4.94,30.37,8.77,42,7.49,66.31-5.63,72.08-4.7,2.12-8.86,10.59-12.38,33.43,3,52.52,14-8.21,20,29.17,9,55.34,15.12,222.11,3.76,267.44-1.4,5.58-2.5,11.08-3.37,16.53h66.54c.19-2.81.41-5.59.65-8.29,5.5-60.72,6.26-112.86-1-178.26-10.5-94.89-2.87-162,23-262.37,5.8,17.33,9.05,41.85,8.23,73.95-.57,22.09-1.78,45.85,4.43,50,6,4,10.35-13.59,12.92-38.43,13-125.51,13-125.57,30.57-11,10.58-11.93,15-60.46,23.15-86,11.57-35.93,21.86-12,21.3,53-1.14,128.65,12.29,233.56,22,341.21,8.59,4.63,8.06-24.2,10.62-39.34,3.94-23.42,8.13-12.38,11.7,2.06,3.38,13.75,6.85,28.31,3.12,53.1-2.42,16.08-4.5,33.25-6.59,50.38H1920Z"/><path class="cls-4" d="M385.43,1080h10.32C392,1071.87,388.38,1067.79,385.43,1080Z"/><path class="cls-4" d="M615.26,866c-14.39-4.76-28-34.82-44.26-4.14-11.76,22.2-29.43,27.09-39.74-45.6-8.2,78.71-8.2,78.71-2.56,223.73-9.23,11.29-12.19-29.35-17.93-46.42-10.9-32.49-20.58-30.63-32.67,12.81-5.4,19.46-9.84,9.25-15.28,4.12-12.13-11.44-23.22-13.83-28,60.9q-.3,4.65-.65,8.65h209.6c-4-47.09-12.55-61-19.14-88.81C638.87,906.14,636.85,873,615.26,866Z"/><path class="cls-4" d="M315.28,941.16c0-25.54,1.11-51.22-.17-73.94-3-52.33-6.74-101.05,11.6-54.37,2.61,6.61,5.37-2.24,7.15-12.65,1.86-11,2-30.36-.2-32.74-7.63-8.41-11-98.35-23.27-24.93-4.35,26.14-7.95.65-9.3-19.44-2-29.66-1.79-58.87,4.4-80a1070.9,1070.9,0,0,0,.08-153.88c0-8.47,0-17,0-25.48-4.62,6.93-15.53-16.64-10.45,38.44,3.06,33.2,6.78,61,.31,92.07-6.94,33.31-13.82,4.42-20.39-3.36-8.7-10.32-17.91-21.67-19.28-73.61-.21.32-.42.67-.63,1.07.17-1.16.32-2.32.48-3.48-6.38.46-12.83.22-16.8,30.23C234.65,576.56,228.07,585,220.68,594c-35.53,43.38-36.76,40.17-37-130.32-9.95-103.76-10.43-104.78-30.73-84.64-4.37,4.3-8.91,5.07-13.37,7.51q-.15,76.95-.29,153.87l.13.14c3.29,7.77,6.54,15.67,9.83,23.24,4.12,9.44,9.37,19.19,8.56,43.27-1,31.07-7.44,33.06-13,35.95-1.93,8.15-3.59,17.52-5.53,25.68-1.08,68.81.67,134,10.47,190.15,10.3,59,4.41,129.68,6.08,195,6.49-.58,12.37,3.78,18.23,21.11.6,1.76,1.19,3.44,1.78,5.06h41.82q2.7-8.34,5.21-19c10.25-43.53,24.69-53.2,35.29-17.76,3.28,10.93,6.2,23.28,8.81,36.78h88.18c-6.09-13.21-12-27.84-16.6-52.16C341.66,924,337.29,906.83,315.28,941.16Zm18.94,94.2c-3.72,4.43-5.68-1.74-6.11-15.48-.37-12.06.39-26.64,3.48-24.58,2.13,1.41,4.41,12.38,5.74,21.82C340.79,1041.52,333.26,1022.9,334.22,1035.36Z"/><path class="cls-5" d="M1447,361.5q-1.7,7.89-3.38,15.69C1444.82,372.44,1446,367.19,1447,361.5Z"/><path class="cls-5" d="M1442.89,380.35v0c.16-.74.33-1.47.48-2.21.07-.33.15-.67.22-1v0Q1443.24,378.76,1442.89,380.35Z"/><path class="cls-5" d="M1552.21,796c-6.06-37.38-17,23.35-20-29.17,3.52-22.84,7.68-31.31,12.38-33.43,13.12-5.77,14.4-30,5.63-72.08-1.9-9.13-4.16-19-4.94-30.37-2.3-33.9-19.93-45.27-10.83-84.11,12-51.22,10.38,48.41,18.53,56,1.64,1.53,3.34,1.8,5.28,2.75,3-49.68-.36-99.49.22-148.66.5-42.13,4.93-81.86,16-42.56,8.41,29.92,17.42,29.34,26.16,18.17,7.58-9.75,12-42,10.24-79.65-1.57-33.71-7.66-27.67-13.37-21.52-10,10.85-18.28-.2-23-46.76-4.84-11.74-10-21.18-14.46-35.69-16.63-54.75-21.82-54.25-34.55,14.57-2.83,15.4-3.61,42.36-8.88,42.8-14.8,1.28-19.54,53.08-25.12,101.61-2.41,20.81-6.55,27.94-11.26,30.57l-1.19,9.94-1-4.43,2.14-5.51c-.67-16.51-1.33-41.22-4.78-41.42-13.86-.64-18.49-61.51-28.4-86.88-5.79,17.15-.66,34.23,0,51.31,4.19,31.65,11.92,63.88,11.66,94.81-.3,35.95-11.07,56.76-13.53,103.09-1.33,24.92-16.6,22.41-22.33,17.6-8.7-7.4-13.76-8.87-21.53,14.35-12.53,37.36-13.84,32.1-15.83-48.79-.64-25.87-1.51-39.1-7.46-39.61-12.06-1-18.31-63.63-32.44-57.47-9.67,4.17-14-45.58-10.18-112.35,2-35-3.78-30.81-6.13-41.92-4.54-21.57-12.94-47.26-16.57-19.65-14.28,108.29-27.43,26.31-40.94,2.35-3.26-5.78-6.12-16.31-9.63-26-3.57,27.92-6.73,52.59-10,77.94,9.1,22.42,20,27.61,26,69.86,2.15,15,2.74,32.23.12,47.05-2,11-4.3,5.78-7.15,2-17.34-23.3-33.57-61.31-50.1-92.27-15.75-29.47-23.71-109.53-23.22-196.26-10.46,19.65-19.58,8.6-27.69-25.63-8.65,92.82,6.85,143.79,16.49,204.92,0-.15.1-.29.15-.45,0,.29,0,.57,0,.85,7.46,12.89,9.73,49.51,15.14,71.27,6.6,26.58,5.34,50.06,0,75.16-8.61,40.57-13.88,75.18-.44,123.9,9,32.62,2.53,77.87-3.65,110.1-2.93,15.27-7.77,22.28-11.51,34.6-6.3,20.73-5.67,51.72-4.65,81.14,1.35,38.51,8,41.14,14.69,41.86,5.52.64,11.11-1.93,16.52,1.56,12.55,8.09,12.23,12.24,6.75,84.59-3.06,40.38,5.56,62.53,11,72.5,7.06,12.91,15.74,6.93,25.11,9.51,2.25-54.13-9-91.74-8.41-142.08l-2.14-5.51.94-4.37,1.2,9.88c25-42.8,49.84-62.17,75.46-7.34,9,19.2,18.92,31.64,27.18-16.56,4.78-28,10.86-24.44,16.66-.05,5.84,24.59,5.59,50.21,2.12,79.42-5.82,48.93-7.9,94.44,1.29,124.53H1552.6c.87-5.45,2-11,3.37-16.53C1567.33,1018.14,1561.19,851.37,1552.21,796Z"/><path class="cls-6" d="M1098,130.54c12.76-6.15,22.52,29.09,33.22,51.32,9.66-60.86,19.63-74.08,38.81-51.29,8.11,34.23,17.23,45.28,27.69,25.63-6.28-89-10.93-117.74-23.29-146.18a66.46,66.46,0,0,1-4-10h-74.33c-.2,7.58-.51,16-.92,25.4C1093.55,63.58,1090.07,99.35,1098,130.54Z"/><path class="cls-6" d="M1413.11,0h-10.36c1.81,5.24,3.61,10.75,5.4,16.43C1410.28,12.2,1411.88,6.55,1413.11,0Z"/><path class="cls-6" d="M1441.53,130.7c1,26.71,3.13,58,9.94,35.58,6.92-22.86,13.59-15.41,20.62-18.35,5-2.12,9.49-3.47,11.15,21.5,2,29.34-3.32,33.78-7.68,40.26-1.72,2.57-4.72,6.67-4.76,10.38-.62,72.3-15.2,64.27-23.81,90.12,9.91,25.37,14.54,86.24,28.4,86.88,3.45.2,4.11,24.91,4.78,41.42,4.71-2.63,8.85-9.76,11.26-30.57,5.58-48.53,10.32-100.33,25.12-101.61,5.27-.44,6-27.4,8.88-42.8,12.73-68.82,17.92-69.32,34.55-14.57,4.42,14.51,9.62,23.95,14.46,35.69,10.81-46.84,21-98.31,37.13-34.25,4.4,17.47,10.62,1.61,15-15.64,6.28-24.59,13.57-41.68,19.59-69.66,11.34-52.76,13.94-49,24.59,18.37,4.8,30.38,8.93,22.87,12.9-.31,3.2-18.63-.24-53.66,6.91-63.73,7.11,2.69,8.14,55.84,15.1,46.08,13.35-18.85,14.78,12.66,15.76,60.48.39,18.81,5.48,34.55,6.9,54.12,4,55.29,8.91,70.16,19.34,24.15,4.43-19.58,8.56-71.13,16.6-41.65,8.49,31.13-7,51.54-5,87,.5,9.06-4,18.05-2.65,29.73,11.81,28.45,25.79,27.81,34.83,77.05,11.2,61.07,21,62.84,37.8,21.65,15.45-37.8,26.4-54.62,17.76-143.21-.65-6.75-.47-19.19.49-24.27,1.62-8.67,4-17.06,6.37-19.31,3.26-3.09,4.85,8.15,4.59,23-.22,12.64-1.3,25.42-1.13,37.8,1.2,86.29,4.71,97.26,24.77,115.76,12.71,11.74,25.66,23.65,37.85,54.27v-139c-1.73-27.64-2.11-50.09,0-66.6V0H1586.47a1.56,1.56,0,0,1-.57,0H1438a61.86,61.86,0,0,0,3.58,9.83C1456.21,40,1455.3,58.11,1441.53,130.7Z"/><path class="cls-7" d="M327.78,488.64l0,.31.11.05C327.83,488.87,327.8,488.76,327.78,488.64Z"/><path class="cls-7" d="M804.18,1080h.22l0-.45Z"/><path class="cls-7" d="M732.14,718.23c0,.45,0,.9,0,1.34a.14.14,0,0,0,0,.06l.27-.76Z"/><path class="cls-7" d="M732.39,718.87c.15.36.29.73.44,1.09C733.67,719.08,734.07,714.36,732.39,718.87Z"/><path class="cls-7" d="M748.58,951.13c-.34-3.85-.75-7.58-1.06-11.49-6.49-82.76-7.27-92.8,5.39-137.88,1.39-10.64,2.46-19.62,3.21-27.32-7.9-17.85-15.38-34.86-23.29-54.48-.22.23-.46.19-.71-.33l0,.07c0,.19,0,.38,0,.57-.12-.34-.22-.7-.33-1,6,50.85-.19,72.2-8.92,84.5-6.26,8.78-12.17,4.93-6.76-34.23,7.2-52.11-1.88-77.61-8.51-84.93-7.95-8.81-15.67,15.59-13.42,64.25,1,21.51-.65,39.28-3.91,37.31-11.81-7-23.13-29.87-30.06-73.92-7.89-50.07,4.78-60.4,10.2-84,1.13-4.88,1.37-14.18,3.29-35.75-12.48,27.54-22.31,29.06-29.26-27.49-3.43-27.79-11.31-22.48-17.75-24.6-4.95-1.66-11.25,10.78-13.2-27.66-2.36-46.55-7.76-43.47-12.87-9.39C595.37,538,590,550.66,582.84,516.82c-5.18-24.71-10.35-20.35-13.63,5.06-3.8,29.49-6.14,64.21,3,85.91,2.71,6.41,8.38-8.28,7.73,20.35-.41,18.93-4.54,31.07-8,25-10.48-18.18-19.7,3.19-29.56,11-6.66,5.25-18.37,22-15.14-49.25,1.26-27.74-4-24.28-6.86-21.07-9.7,11-19.21,23.31-29.42,18.48-4.7-2.25-3.92,72.93-15.37,12.25-8.25-43.72-5.65-64.64-1.72-109.26-20.06,57.65-39.13,18.6-58.18,16.92-8.29-.77-15,4.42-17-38C396.51,450.88,409.28,469,410.86,438c-12.95-38.92-22.55-4.44-31.67,33.1-4.05,16.69-6.8,40.12-10.85,56.87-2.82,11.63-6.82,11.63-9.76-3.35a130.56,130.56,0,0,1-.25-45.76c5.61-31.33,16.21-43.2,17.12-93.4-5.78-29.86-9.46-4.56-13.5,10.07-4.14,15-8,45.83-13.76,29.46-4-11.38-7.11-16.58-9.49-17.32-3.11,10.94-5.88,22.58-8.06,34.2-1,14.9-1.69,32.19-2.84,46.52q.07.35.15.66c6.94,3.16,15.52-5,15.37,46.5-.05,17-2.58,40.68-5.95,35.74-7.95-11.82-8.62-48.79-9.71-82.3-7.36-25.32-14.74.18-22.09.24a1070.9,1070.9,0,0,1-.08,153.88l2.15,5.59-.95,4.36-1.2-9.95c-6.19,21.12-6.39,50.33-4.4,80,1.35,20.09,5,45.58,9.3,19.44,12.27-73.42,15.64,16.52,23.27,24.93,2.2,2.38,2.06,21.76.2,32.74-1.78,10.41-4.54,19.26-7.15,12.65-18.34-46.68-14.56,2-11.6,54.37,1.28,22.72.19,48.4.17,73.94,22-34.33,26.38-17.18,23.28,86.68,4.62,24.32,10.51,39,16.6,52.16h30.27c2.95-12.21,6.57-8.13,10.32,0h38.44q.35-4,.65-8.65c4.76-74.73,15.85-72.34,28-60.9,5.44,5.13,9.88,15.34,15.28-4.12,12.09-43.44,21.77-45.3,32.67-12.81,5.74,17.07,8.7,57.71,17.93,46.42-5.64-145-5.64-145,2.56-223.73,10.31,72.69,28,67.8,39.74,45.6,16.29-30.68,29.87-.62,44.26,4.14,21.59,7.07,23.61,40.19,9.39,125.24,6.59,27.81,15.14,41.72,19.14,88.81H771.27c-7.18-16-14-39.5-20.91-61.66C744.14,998.37,746.52,975,748.58,951.13ZM475.84,711.55c1.08,5.53,2.93,10.71,3,16.7.18,8.91-1.68,12.45-3.7,8.13-.71-1.53-1.4-5.51-1.63-9C472.93,717.66,473.81,712.26,475.84,711.55Z"/><path class="cls-8" d="M222.68,53.15h5.5l0-.11c1.83-8.47,3.87-16,5.5-25.49,19.22,13.88,2.7,69.53,5.54,102.59,3,11.05,4.86,24.73,5.36,42.63,1.78,66,10.36,82.56,23.42,71.21,7.14-6.28,14.5-10.66,21.75-10.65,21.55.15,29.1,51.69,22,146.64l-6.24,83.77c0,8.48,0,17,0,25.48,7.35-.06,14.73-25.56,22.09-.24v-.08l.09.05,0-.31,0-.26c1.15-14.33,1.81-31.62,2.84-46.52,1.37-20,3.39-35.65,8.06-34.2,2.38.74,5.46,5.94,9.49,17.32,5.79,16.37,9.62-14.43,13.76-29.46,4-14.63,7.72-39.93,13.5-10.07-.91,50.2-11.51,62.07-17.12,93.4a130.56,130.56,0,0,0,.25,45.76c2.94,15,6.94,15,9.76,3.35,4.05-16.75,6.8-40.18,10.85-56.87,9.12-37.54,18.72-72,31.67-33.1,2.25-6.61,5.55-10.73,6.59-20.16,8.12-72.86,19.88-57.07,32.22-31.13,1.06-45.89-.51-88.91-8.36-123.19,9.62-30.74,17.36,6.36,25-5.06,0-17.09,0-34.15,0-51.29-8.84-37.11-4.91-67,2.62-94.25C476.24,86.8,483.29,59,491,36.14c5.55-16.36,3.85-24.67,1.29-36.14H221.18C219.6,16.34,220.55,34.23,222.68,53.15Z"/><path class="cls-1" d="M1368.68,955.47c3.47-29.21,3.72-54.83-2.12-79.42-5.8-24.39-11.88-28-16.66.05-8.26,48.2-18.19,35.76-27.18,16.56-25.62-54.83-50.49-35.46-75.46,7.34-.62,50.34,10.66,88,8.41,142.08-9.37-2.58-18.05,3.4-25.11-9.51-5.48-10-14.1-32.12-11-72.5,5.48-72.35,5.8-76.5-6.75-84.59-5.41-3.49-11-.92-16.52-1.56-6.64-.72-13.34-3.35-14.69-41.86-1-29.42-1.65-60.41,4.65-81.14,3.74-12.32,8.58-19.33,11.51-34.6,6.18-32.23,12.66-77.48,3.65-110.1-13.44-48.72-8.17-83.33.44-123.9,5.32-25.1,6.58-48.58,0-75.16-5.41-21.76-7.68-58.38-15.14-71.27-1.05,22.66,1.91,51.25-4.83,63-.93,1.6-3.58-5.14-3.79-9.64-1.41-31.29,4-40.62,8.51-53.8-9.64-61.13-25.14-112.1-16.49-204.92-19.18-22.79-29.15-9.57-38.81,51.29,7.33,48.41,14.16,97.83,14,166.34-7.2,25.42-25.24-38-25.15,57,0,11.88-4,20.49-6.47,10.91-11.17-43.46-21.22-23.18-32.57,1.86-4.84,10.65-13-11.44-15.79,28.62-1.71,24-4.85,50.2-4,72.8,2.34,65,14.94,21.64,23,38.58-1.29,45.52-1.9,91.42-4,135.71-1.89,39.55-8.21,74.09,4.55,106.05,5,12.47,3.08,65,.39,96.31-3.28,38.44-10.3,24.39-16.42,14.89-6.28-9.83-10.72,5.89-14.52,24.76-7.68,38.2-16.33,51.87-28,61.22s-17.56,41.83-20.8,83.11H1063c3.7-5.67,9.2,2,12.16-7.71,9.92-32.62,15.89-31.55,18,7.71h20c11-69,29.21-104.43,47-86.89,13.38,13.16,27.36,8.1,40.37,34.69,6.5,13.24,10.55,26.92,11,52.2H1370C1360.78,1049.91,1362.86,1004.4,1368.68,955.47Z"/><path class="cls-9" d="M0,281.06v9.63c.31-2.27.61-4.53,1-6.79C.64,282.92.33,282,0,281.06Z"/><path class="cls-9" d="M14.59,879c3.71-21.77-4.56-50.34-1.78-76.92C20,733.48,25.26,670.9,2.25,646.36c-.76-.79-1.56-4.34-2.25-9V886.61c1,1.25,2,2.79,2.94,4.22C6.47,896.09,10.06,899.62,14.59,879Z"/><path class="cls-9" d="M5.86,1009.07c.33-23.54-1.63-42-5.86-53.26V1080H7.18C6,1057.35,5.51,1034,5.86,1009.07Z"/><path class="cls-10" d="M1586.47,0h-.57A1.56,1.56,0,0,0,1586.47,0Z"/><path class="cls-11" d="M1786.77,976.52c-3.57-14.44-7.76-25.48-11.7-2.06-2.56,15.14-2,44-10.62,39.34-9.72-107.65-23.15-212.56-22-341.21.56-65-9.73-89-21.3-53-8.2,25.56-12.57,74.09-23.15,86-17.6-114.54-17.58-114.48-30.57,11-2.57,24.84-7,42.42-12.92,38.43-6.21-4.16-5-27.92-4.43-50,.82-32.1-2.43-56.62-8.23-73.95-25.91,100.38-33.54,167.48-23,262.37,7.25,65.4,6.49,117.54,1,178.26-.24,2.7-.46,5.48-.65,8.29H1783.3c2.09-17.13,4.17-34.3,6.59-50.38C1793.62,1004.83,1790.15,990.27,1786.77,976.52Z"/><path class="cls-12" d="M1160.17,993.11c-17.83-17.54-36,17.85-47,86.89h98.46c-.5-25.28-4.55-39-11-52.2C1187.53,1001.21,1173.55,1006.27,1160.17,993.11Z"/><path class="cls-12" d="M1075.14,1072.29c-3,9.76-8.46,2-12.16,7.71h30.18C1091,1040.74,1085.06,1039.67,1075.14,1072.29Z"/><path class="cls-5" d="M1059.16,310q1.59-7.35,3.19-14.71C1061.23,300,1060.1,304.52,1059.16,310Z"/><path class="cls-5" d="M1026.12,996.89c11.69-9.35,20.34-23,28-61.22,3.8-18.87,8.24-34.59,14.52-24.76,6.12,9.5,13.14,23.55,16.42-14.89,2.69-31.34,4.6-83.84-.39-96.31-12.76-32-6.44-66.5-4.55-106.05,2.14-44.29,2.75-90.19,4-135.71-8-16.94-20.62,26.38-23-38.58-.82-22.6,2.32-48.79,4-72.8,2.83-40.06,11-18,15.79-28.62,11.35-25,21.4-45.32,32.57-1.86,2.46,9.58,6.49,1,6.47-10.91-.09-95,18-31.56,25.15-57,.17-68.51-6.66-117.93-14-166.34-10.7-22.23-20.46-57.47-33.22-51.32-3.5,74.48-3.5,74.48,16.8,63.63-13.43,65-30.46,95.63-50.11,90.23-.7,3.83-1.49,7.23-2.28,10.57-1.09,5-2.18,10.06-3.27,15-1.86,8.61-3.7,17.15-5.56,25.69,2.43,25,9.2,1.61,12.26,26.51,1.17,33.89-5.45,21.25-9.07,26.13-11.66,15.86-20.12,44-18.55,107.46.58,23.56,5.64,54.82-2.2,64.25-6.61,8-9.2,47.25-19.22,33.77-11.43-15.42-36.29,59.42-39.62,104.36-1.67,22.53.22,42.62,4.83,53.42,4.41,10.32,6.43-7,8.72-20.23,16.7-96.09,34.63-91.26,50,6.25,5.13,32.48-1,46.15-2.21,65.74-1.83,30.3-7.8,18.87-10.78,3.28-8.67-45.27-13.93-24.54-18.73,16.35-11.56-.65-18.31,52.56-30.19,54.74C968.93,879.6,979,944,968.35,958c-5,3.59-6.86-28.56-11.78-38.53-7.21-14.63-13.45-14.76-15.3,22.4-4.92,99.32-21.76,63.87-34.36,65.41-8.43,1-17.41-16.64-8.58-71.13,3.45-21.32,2.41-40.77-3.05-50-4-6.86-6.76,5.14-8.74,21-.91,7.33-2.66,13.42-3,21-3.77,80.25-10.68,124.72-30.7,80.43-5.82-12.91-11.72-1.55-9.76,56.15.18,5.27.37,10.35.59,15.27h161.67C1008.56,1038.72,1014.54,1006.15,1026.12,996.89Zm-11.78-169.21c2.13.33,2.71,9.82,1.79,19.38-1.51,3.27-3.48,10.91-4.42,8.72-1.24-2.81-2.22-13-2.36-20.41C1008.84,807.57,1012.81,827.48,1014.34,827.68Z"/><path class="cls-13" d="M222.88,1061q-2.5,10.68-5.21,19H267c-2.61-13.5-5.53-25.85-8.81-36.78C247.57,1007.78,233.13,1017.45,222.88,1061Z"/><path class="cls-13" d="M155.84,1053.83q.69,13.07,1.26,26.17h18.75c-.59-1.62-1.18-3.3-1.78-5.06C168.21,1057.61,162.33,1053.25,155.84,1053.83Z"/><path class="cls-14" d="M84.27,78.14c26.92-29.58,33.6,78.59,41.53,150,5.3,47.71,12.22,100.22,13.79,158.45,4.46-2.44,9-3.21,13.37-7.51,20.3-20.14,20.78-19.12,30.73,84.64,7.32-25.95,6.12-71.53,11.13-102.78h0v0c-.72-1.86-2.08-4.28-2-5.38.35-7.89,1.15-6,2,5.38v0c13-4.63,17.36-40.31,16.31-98.92-8.35-6-14.35,27.21-21.42,29.06-6,1.54-13.26-16-14.38-49.94-1.05-31.78,5.86-38.84,10.59-50.33,5.45-13.15,11.09-6.6,16,3.79,17.26,36.21,28.7,4.84,37.29-64.43-2.84-33.06,13.68-88.71-5.54-102.59-1.63,9.44-3.67,17-5.5,25.49l0,.11q-2.76,21.1-5.5,0c-2.13-18.92-3.08-36.81-1.5-53.15H73.8l-.53.9Q78.78,39.51,84.27,78.14Z"/><path class="cls-15" d="M1,283.9c2.31,12.53,4.6,25.17,6.92,37.57,12.91,68.65,13.5,71.76,2.59,144.92q.27,4.28.57,8.12C22.14,462.3,30,481.3,37.14,507.29c.71-.48,1.45-1,2.19-1.53q.18-46.8.35-93.56c-1.51-73.65,8.9-145.67,1.25-221.16-1-9.76,2-31.14,4-44C52.89,97.5,61,48.82,69.14,0H8.07C6.52,18.66,4.85,37,2.69,54-.86,81.82-1.75,98,5.88,109.29c2.68,4,5.17,24.28,3.09,27.75-4.67,7.67-7.43,17.42-9,28.48v74.62C.76,255.25,1.4,270.19,1,283.9Z"/><path class="cls-16" d="M5.88,109.29C-1.75,98-.86,81.82,2.69,54,4.85,37,6.52,18.66,8.07,0H0V165.52C1.54,154.46,4.3,144.71,9,137,11.05,133.57,8.56,113.28,5.88,109.29Z"/><path class="cls-16" d="M0,240.14v40.92c.33.92.64,1.86,1,2.84C1.4,270.19.76,255.25,0,240.14Z"/><path class="cls-17" d="M40.93,191c7.65,75.49-2.76,147.51-1.25,221.16q5.55-38.54,11.1-77c3.31-30.82,6.38-62.33,5.52-97.77C53.92,140.57,66.44,100.34,84.08,79.17l.19-1Q78.78,39.53,73.27.9c0-.3,0-.6,0-.9H69.14C61,48.82,52.89,97.5,45,147,42.93,159.9,40,181.28,40.93,191Z"/><path class="cls-7" d="M311.79,380c7.09-95-.46-146.49-22-146.64-7.25,0-14.61,4.37-21.75,10.65-13.06,11.35-21.64-5.22-23.42-71.21-.5-17.9-2.4-31.58-5.36-42.63-8.59,69.27-20,100.64-37.29,64.43-5-10.39-10.59-16.94-16-3.79-4.73,11.49-11.64,18.55-10.59,50.33,1.12,33.9,8.37,51.48,14.38,49.94,7.07-1.85,13.07-35.1,21.42-29.06,1.05,58.61-3.35,94.29-16.31,98.92h0c-5,31.25-3.81,76.83-11.13,102.78.23,170.49,1.46,173.7,37,130.32,7.39-9,14-17.45,18.11-48.91,4-30,10.42-29.77,16.8-30.23,3.06-22.77,5.19-45.83,11.69-39.47,1,1,2.42,13.29,2.07,17.6-2.48,30.39-8.51,16.5-13.61,24.28,1.37,51.94,10.58,63.29,19.28,73.61,6.57,7.78,13.45,36.67,20.39,3.36,6.47-31.07,2.75-58.87-.31-92.07-5.08-55.08,5.83-31.51,10.45-38.44Z"/><path class="cls-18" d="M133.75,617.41c-2,7.69-3.69,17.13-5.52,25.74C130.07,634.54,131.91,626,133.75,617.41Z"/><path class="cls-18" d="M155.84,1053.83c-1.67-65.29,4.22-136-6.08-195-9.8-56.18-11.55-121.34-10.47-190.15,1.94-8.16,3.6-17.53,5.53-25.68q-2.7-51.24-5.39-102.46l-.13-.14c-1.82.14-3.65.2-5.46.39,0,25.55-.06,51-.09,76.59-1.83,8.6-3.68,17.13-5.52,25.74v.06c-1.92,8.16-3.75,16.74-5.57,25.49,8,88.4,14.95,179.3,24.36,264.37,5.94,53.79-4.17,65.41-7.85,94.56,7.17,3.72,10.25,22.43,10.78,52.37h7.16Q156.52,1066.91,155.84,1053.83Z"/><path class="cls-17" d="M125.8,228.11c-7.93-71.38-14.61-179.55-41.53-150l-.19,1c10.1,79.73,31.59,124.29,33.21,230.34,3.2,27.09,4.93,58.74,11,77.3,10,44.88,3.82,102.58,5.6,154,1.81-.19,3.64-.25,5.46-.39q.15-76.93.29-153.87C138,328.33,131.1,275.82,125.8,228.11Z"/><path class="cls-14" d="M144.82,643c5.56-2.89,12-4.88,13-35.95.81-24.08-4.44-33.83-8.56-43.27-3.29-7.57-6.54-15.47-9.83-23.24Q142.13,591.78,144.82,643Z"/><path class="cls-7" d="M331.59,995.3c-3.09-2.06-3.85,12.52-3.48,24.58.43,13.74,2.39,19.91,6.11,15.48-1-12.46,6.57,6.16,3.11-18.24C336,1007.68,333.72,996.71,331.59,995.3Z"/><path class="cls-19" d="M1197.74,156.2c-.49,86.73,7.47,166.79,23.22,196.26,16.53,31,32.76,69,50.1,92.27,2.85,3.8,5.2,9,7.15-2,2.62-14.82,2-32-.12-47.05-6-42.25-16.9-47.44-26-69.86,3.24-25.35,6.4-50,10-77.94,3.51,9.7,6.37,20.23,9.63,26,13.51,24,26.66,105.94,40.94-2.35,3.63-27.61,12-1.92,16.57,19.65,2.35,11.11,8.14,6.94,6.13,41.92-3.82,66.77.51,116.52,10.18,112.35,14.13-6.16,20.38,56.5,32.44,57.47,6,.51,6.82,13.74,7.46,39.61,2,80.89,3.3,86.15,15.83,48.79,7.77-23.22,12.83-21.75,21.53-14.35,5.73,4.81,21,7.32,22.33-17.6,2.46-46.33,13.23-67.14,13.53-103.09.26-30.93-7.47-63.16-11.66-94.81-1,5.69-2.15,10.94-3.38,15.69-.07.33-.15.67-.22,1-.15.74-.32,1.47-.48,2.21-.23,1.06-.45,2.13-.69,3.18-.26,1.29-.53,2.59-.79,3.89,0,8.45,0,16.88,0,25.38l2.15,5.52-1,4.37-1.19-9.89c-.69-6.16-1.51-12-2-18.49-.08-1.22,1.14-4.4,1.85-6.8.31-1.31.61-2.63.91-4,.23-1.09.46-2.17.69-3.23s.46-2.1.69-3.12v0q1.68-7.8,3.38-15.69c-.64-17.08-5.77-34.16,0-51.31,8.61-25.85,23.19-17.82,23.81-90.12,0-3.71,3-7.81,4.76-10.38,4.36-6.48,9.64-10.92,7.68-40.26-1.66-25-6.12-23.62-11.15-21.5-7,2.94-13.7-4.51-20.62,18.35-6.81,22.41-9-8.87-9.94-35.58-2.51,4.88-5,9.82-7.51,14.7-2.79,2.83-5.75,2.19-6.42-12.46-.7-15.07,2-22.14,4.89-23.68,4-2.24,6.89,6.49,9,21.44,13.77-72.59,14.68-90.7,0-120.87A61.86,61.86,0,0,1,1438,0h-24.87c-1.23,6.55-2.83,12.2-5,16.43-1.79-5.68-3.59-11.19-5.4-16.43H1170.5a66.46,66.46,0,0,0,4,10C1186.81,38.46,1191.46,67.17,1197.74,156.2Z"/><polygon class="cls-6" points="1478.98 448.43 1480.17 438.49 1478.03 444 1478.98 448.43"/><polygon class="cls-1" points="1245.12 894.49 1247.26 900 1246.06 890.12 1245.12 894.49"/><path class="cls-20" d="M882,27.86c2.73,21.19,5.27,49,11.8,39S898,25.49,898.63,2.19L898.78,0H882.86L882,2.18C882,10.71,882,19.32,882,27.86Z"/><path class="cls-20" d="M880.86,5.21a1.9,1.9,0,0,0-.16.32h.16Z"/><path class="cls-20" d="M937.77,0h-12.6c2,21.25,2.57,48.41,9,61.08C937.29,44.37,937.74,22.81,937.77,0Z"/><path class="cls-20" d="M843.19,53.44h11.09c6.7-21.43,16,5.48,22.18-25.6.32-1.83.65-3.33,1-4.52L880,11.27c.05-3.37.36-5,.66-5.74a2.64,2.64,0,0,1-1-.46c-3.2-2.15,1-8.81,1.15.14.42-.63.7.33,0,.33,0,.67,0,1.42-.07,2.26.41-1.87.82-3.75,1.22-5.62L882.27,0H832.61c-.15.72-.31,1.44-.47,2.16Q837.66,27.87,843.19,53.44Z"/><path class="cls-20" d="M945.17,46.51C956.4,56,962.92,24.89,969.54,0H949.6c-.82,15.16-2.22,30.27-4.49,45.65Z"/><path class="cls-20" d="M976.32,109.43c9.22,62.39,7.11,63.89-8.54,83.65-7.3,9.23-14.1-11.05-20.88,4.29,2.27,36.41,9.29,44.88,14.87,51.18,16.15,18.28,15.68,58.79,8.71,112.72-1.3,15.67-3.66,31.4-3.62,46.93,0,16.43,3.56,13.74,5.76,6.22,7.15-24.51,9,7.26,12.69,23.18,4.71,20.17,11,26.91,11.92-11.29,1.64-65.94,9.5-44.86,17.44-34.86,3.54,4.43,2,42.34,6.48,35.18q1.61-4.31,3.05-9.08c2.7-13.54,1.46-37.3,1.69-56.25l-2.15-5.53,1-4.41,1.19,9.94c9.9,7,18.24-22.59,27.71-25.6,1.86-8.54,3.7-17.08,5.56-25.69.94-5.49,2.07-10.05,3.19-14.71q1.17-5.44,2.36-10.9c19.65,5.4,36.68-25.26,50.11-90.23-20.3,10.85-20.3,10.85-16.8-63.63-8-31.19-4.47-67-2.77-105.14.41-9.39.72-17.82.92-25.4H983.35a68.71,68.71,0,0,1-3.44,17.76C971.31,42.86,969.66,64.29,976.32,109.43Z"/><path class="cls-20" d="M1064.71,284.4,1062.43,295C1063.22,291.63,1064,288.23,1064.71,284.4Z"/><path class="cls-21" d="M732.12,719.63c.25.52.49.56.71.33-.15-.36-.29-.73-.44-1.09Z"/><path class="cls-21" d="M732.09,719.7l0-.07a.14.14,0,0,1,0-.06Z"/><path class="cls-21" d="M893.8,66.9c-6.53,9.94-9.07-17.85-11.8-39h-5.54C870.27,58.93,861,32,854.28,53.45c-2.17,24.28-5.88,41.42-11.13,51.3-5.1,32.39,5.12,29.27,5.53,48.82a2.29,2.29,0,0,0,.19-.35c.74-11.28,1.19-2.77,0,0a.57.57,0,0,0,0,.13c-.05.81-.11,1.47-.17,2V156l-.12.2c-.15.81-.31,1-.48.79-6.33,11-11.92,35.33-19.64,6.2-14.65-55.36-15.19-53.29-18.44,31.3-.48,12.47-.11,25.62-.14,38.47,2.63-2.24,7-10,7.62-6,0,.11,0,.23,0,.34l.06-.2c.06-.15,0,0,0,.58,6.32,44.91,1.7,138-8.67,144.12-16.72,9.79-30.4,52-45.95,72.33-6.25,8.19-8-8-8.58-31.62a.14.14,0,0,1,0-.07c-5.25-8.62-11.31-24-9,25.5.89,19.14-1,33.52-4.9,39-4.59,6.68-6.93-8-7.64-25.63-3.75-92.82-25.38-83.19-36.46-135.07-3.4-15.87-10.46-1.61-13.18,26.82-3.64,37.94-5,82.36-14.2,106.24-9-14.06-16-45-21.44-75.51C629.45,273,619.8,263,595.35,338.05c-4.87,15-8.53,4.05-12.69-2.58,0,12.66,0,25.36-.07,38-.09,16.69.14,38.91-3.63,42.84-2.88,2.94-8.09-5.47-9.51-16.46C565.2,367,561.82,336,552.26,327.69c-7.89-6.87-15.85,10.71-14.82,34.66,3.76,86.92-10.48,35.18-15.76,50.07-12.51,78.95-26.31-12.08-39.66,5.25-3.5,4.55-2.19-24.34-1.17-39.74,1.71-25.55,2.65-52.38-4.64-61.58-6.14-7.7-10.79,8.28-13.25,33.13-1.86,18.87-1.15,45.78-3.85,59.7-7.41,38.25-7.73-1.3-9.44-22.48-12.34-25.94-24.1-41.73-32.22,31.13-1,9.43-4.34,13.55-6.59,20.16-1.58,31-14.35,12.89-12.27,56.28,2,42.37,8.74,37.18,17,38,19.05,1.68,38.12,40.73,58.18-16.92-3.93,44.62-6.53,65.54,1.72,109.26,11.45,60.68,10.67-14.5,15.37-12.25,10.21,4.83,19.72-7.44,29.42-18.48,2.82-3.21,8.12-6.67,6.86,21.07-3.23,71.24,8.48,54.5,15.14,49.25,9.86-7.78,19.08-29.15,29.56-11,3.49,6,7.62-6.11,8-25,.65-28.63-5-13.94-7.73-20.35-9.1-21.7-6.76-56.42-3-85.91,3.28-25.41,8.45-29.77,13.63-5.06,7.13,33.84,12.53,21.2,17.74-13.53,5.11-34.08,10.51-37.16,12.87,9.39,1.95,38.44,8.25,26,13.2,27.66,6.44,2.12,14.32-3.19,17.75,24.6,7,56.55,16.78,55,29.26,27.49-1.92,21.57-2.16,30.87-3.29,35.75-5.42,23.63-18.09,34-10.2,84,6.93,44,18.25,66.9,30.06,73.92,3.26,2,4.89-15.8,3.91-37.31-2.25-48.66,5.47-73.06,13.42-64.25,6.63,7.32,15.71,32.82,8.51,84.93-5.41,39.16.5,43,6.76,34.23,8.73-12.3,14.95-33.65,8.92-84.5-2.89-9.34-4.55-21.87-4.49-38.83.31-12.64,1.14-27.33,4.3-24.83,3.33,2.68,2.06,17.72,1.65,28.81-.4,11.27-.72,22.6-1.07,33.85l.25.64c1.68-4.51,1.28.21.44,1.09,7.91,19.62,15.39,36.63,23.29,54.48.93,2.12,1.87,4.24,2.82,6.38-2.28,7.84-4.28,14.72-6,20.94-12.66,45.08-11.88,55.12-5.39,137.88.31,3.91.72,7.64,1.06,11.49,16.7,8.61,16.7,8.61,20.81-60.14,5.71-6.68,7.76,16.69,11,29.4,14.44,55.93,15,56.82,19.8-32.54,2.65-49.56,10.57-67,17.94-53,14.32,27,21.64-12.76,31.18-44.75-.2-2.31-.41-4.68-.65-7.14-8.4-23.11-15.33,28.23-24.45,1,10.87-59.23,17.55-118.87,1.46-188-9.23-39.63.35-68,8.23-83.71C842.86,494.42,853,499.43,861,460c11.62-57.14,12.67-52.65,9.74-142.4,16.36,45.67,28.8,110.38,47,124.82,4.72-16.49,1.2-51.67,6.92-66C942.5,436,942.5,436,970.48,361.27c7-53.93,7.44-94.44-8.71-112.72-5.58-6.3-12.6-14.77-14.87-51.18,6.78-15.34,13.58,4.94,20.88-4.29,15.65-19.76,17.76-21.26,8.54-83.65-6.66-45.14-5-66.57,3.59-91.67A68.71,68.71,0,0,0,983.35,0H969.54c-6.62,24.89-13.14,56-24.37,46.51l-.16-.13c0-.24.07-.48.1-.73,2.27-15.38,3.67-30.49,4.49-45.65H937.77c0,22.81-.48,44.37-3.6,61.08-6.43-12.67-7-39.83-9-61.08H899.51c-.29.72-.59,1.45-.88,2.19C898,25.49,900.34,57,893.8,66.9ZM847.6,431.38c-1.17,22-4.45,32.87-9.61,26.5-3.87-4.74-5.87-19.89-5.24-37.3.8-22.08,5.12-17.25,8.49-18.28C845.39,401.08,848.24,406.54,847.6,431.38Zm1-275.14c9.53-23.37,15.41-9.06,18.91,42.56C859.08,198.94,853.42,182.37,848.64,156.24Z"/><path class="cls-21" d="M876.46,27.85c.32-1.5.65-3,1-4.52C877.11,24.52,876.78,26,876.46,27.85Z"/><path class="cls-22" d="M852.82,1008.58c20,44.29,26.93-.18,30.7-80.43.36-7.58,2.11-13.67,3-21,2-15.91,4.71-27.91,8.74-21,5.46,9.25,6.5,28.7,3.05,50-8.83,54.49.15,72.15,8.58,71.13,12.6-1.54,29.44,33.91,34.36-65.41,1.85-37.16,8.09-37,15.3-22.4,4.92,10,6.76,42.12,11.78,38.53,10.63-14,.58-78.37,10.52-80.24,11.88-2.18,18.63-55.39,30.19-54.74,4.8-40.89,10.06-61.62,18.73-16.35,3,15.59,9,27,10.78-3.28,1.18-19.59,7.34-33.26,2.21-65.74-15.4-97.51-33.33-102.34-50-6.25-2.29,13.22-4.31,30.55-8.72,20.23-4.61-10.8-6.5-30.89-4.83-53.42,3.33-44.94,28.19-119.78,39.62-104.36,10,13.48,12.61-25.81,19.22-33.77,7.84-9.43,2.78-40.69,2.2-64.25-1.57-63.5,6.89-91.6,18.55-107.46,3.62-4.88,10.24,7.76,9.07-26.13-3.06-24.9-9.83-1.54-12.26-26.51-9.47,3-17.81,32.61-27.71,25.6-.23,18.95,1,42.71-1.69,56.25a36.7,36.7,0,0,1-.91,3.65,25,25,0,0,1-2.14,5.43c-4.51,7.16-2.94-30.75-6.48-35.18-7.94-10-15.8-31.08-17.44,34.86-1,38.2-7.21,31.46-11.92,11.29-3.72-15.92-5.54-47.69-12.69-23.18-2.2,7.52-5.73,10.21-5.76-6.22,0-15.53,2.32-31.26,3.62-46.93-28,74.7-28,74.7-45.78,15.07-5.72,14.37-2.2,49.55-6.92,66-18.21-14.44-30.65-79.15-47-124.82,2.93,89.75,1.88,85.26-9.74,142.4-8,39.47-18.17,34.46-27.1,52.24-7.88,15.73-17.46,44.08-8.23,83.71,16.09,69.15,9.41,128.79-1.46,188,9.12,27.25,16-24.09,24.45-1,.47,1.29.94,2.8,1.42,4.59-.26.84-.52,1.69-.77,2.55-9.54,32-16.86,71.75-31.18,44.75-7.37-13.94-15.29,3.45-17.94,53-4.77,89.36-5.36,88.47-19.8,32.54-3.27-12.71-5.32-36.08-11-29.4-4.11,68.75-4.11,68.75-20.81,60.14-2.06,23.87-4.44,47.24,1.78,67.21,6.91,22.16,13.73,45.68,20.91,61.66h32.91l.2-.45,0,.45h39.25c-.22-4.92-.41-10-.59-15.27C841.1,1007,847,995.67,852.82,1008.58Z"/><path class="cls-8" d="M327.75,489l-.09-.05V489c1.09,33.51,1.76,70.48,9.71,82.3,3.37,4.94,5.9-18.75,5.95-35.74.15-51.48-8.43-43.34-15.37-46.5l-.09,0Z"/><path class="cls-21" d="M475.18,736.38c2,4.32,3.88.78,3.7-8.13-.11-6-2-11.17-3-16.7-2,.71-2.91,6.11-2.29,15.79C473.78,730.87,474.47,734.85,475.18,736.38Z"/><polygon class="cls-4" points="307.64 648.69 305.49 643.1 306.69 653.05 307.64 648.69"/><path class="cls-23" d="M491,36.14C483.29,59,476.24,86.8,469,112.91c-7.53,27.23-11.46,57.14-2.62,94.25,3.95,3.92,9.3,3.86,8.22,31.32-.65,16.45-4.92,18.11-8.25,20-7.68,11.42-15.42-25.68-25,5.06,7.85,34.28,9.42,77.3,8.36,123.19,1.71,21.18,2,60.73,9.44,22.48,2.7-13.92,2-40.83,3.85-59.7,2.46-24.85,7.11-40.83,13.25-33.13,7.29,9.2,6.35,36,4.64,61.58-1,15.4-2.33,44.29,1.17,39.74,13.35-17.33,27.15,73.7,39.66-5.25,5.28-14.89,19.52,36.85,15.76-50.07-1-24,6.93-41.53,14.82-34.66,9.56,8.29,12.94,39.29,17.19,72.16,1.42,11,6.63,19.4,9.51,16.46,3.77-3.93,3.54-26.15,3.63-42.84.06-12.64.06-25.34.07-38-1.66,2.89-3.33,5.77-5,8.67-2.1,4.36-4,1.73-4.13-8.09,0-6,1.56-15.92,2.8-17.66,3-3.91,4.89,5.91,6.32,17.08,4.16,6.63,7.82,17.6,12.69,2.58,24.45-75.1,34.1-65.07,52.17,35.84C653,404.38,660,435.34,669,449.4c9.19-23.88,10.56-68.3,14.2-106.24,2.72-28.43,9.78-42.69,13.18-26.82,11.08,51.88,32.71,42.25,36.46,135.07.71,17.6,3.05,32.31,7.64,25.63,3.87-5.52,5.79-19.9,4.9-39-2.28-49.5,3.78-34.12,9-25.5-.29-1.17-.25-5.05.19-11.4.49-7.06,1.22-13.74,1.83-20.6.67,2,2,4.82,1.92,5.76-.46,6.95-.91,14.59-1.89,19.91-1,5.5-1.71,7.52-2,6.4.59,23.66,2.33,39.81,8.58,31.62,15.55-20.29,29.23-62.54,45.95-72.33,10.37-6.14,15-99.21,8.67-144.12,0-.13,0-.26-.05-.38s0-.23,0-.34c-.61-4-5,3.74-7.62,6,0-12.85-.34-26,.14-38.47,3.25-84.59,3.79-86.66,18.44-31.3,7.72,29.13,13.31,4.79,19.64-6.2.16-.28.32-.54.48-.79l.12-.2v-.69c0-.61,0-1.21,0-1.78-.41-19.55-10.63-16.43-5.53-48.82,0-17.08,0-34.15,0-51.31C839,59.16,834.75,69,830.5,69.36c-3.56.32-6.76-15.2-7.17-32.21-.67-28.13,4.29-31.72,8.81-35,0-.72,0-1.44,0-2.16H492.29C494.85,11.47,496.55,19.78,491,36.14ZM807.16,234.41c2.9-4.68,3.61-2,2.34,11-.62,12.52-1.63,24.79-4.77,25.23-1,.13-3-9.2-3-13.94C801.81,242.1,804.57,238.58,807.16,234.41ZM736.43,345.56c1.94-6.54,2.87-4.3,2.66,5.66-.73,1-1.46,2-2.18,3C736.73,351.22,736.24,346.27,736.43,345.56ZM526,297.19c1-1.94,2.84,4.88,4.29,7.83-.65,6.81-1,17.39-2,19.33s-2.85-4.88-4.32-7.9C524.64,309.64,525,299.18,526,297.19Zm-9.47,77.48c3.16.38,3.91,13.16,4.81,25.16,1,13.42.49,15.86-2.42,11.11-2.57-4.17-5.05-7.64-5.58-22.35C514.44,383.72,515.53,374.54,516.57,374.67Z"/><path class="cls-21" d="M474.6,238.48c1.08-27.46-4.27-27.4-8.22-31.32,0,17.14,0,34.2,0,51.29C469.68,256.59,474,254.93,474.6,238.48Z"/><path class="cls-7" d="M228.18,53.15h-5.5Q225.43,74.26,228.18,53.15Z"/><path class="cls-5" d="M1178,389.29c.21,4.5,2.86,11.24,3.79,9.64,6.74-11.79,3.78-40.38,4.83-63,0-.28,0-.56,0-.85,0,.16-.1.3-.15.45C1182.06,348.67,1176.62,358,1178,389.29Z"/><path class="cls-16" d="M32.92,719.69c-12.14-67.54-9.35-96.49,6.78-180q0-10.12.34-20.22c-.25-1.39-.5-2.77-.74-4.17-.72-2.74-1.43-5.43-2.16-8.06-7.18-26-15-45-26.11-32.78a28.63,28.63,0,0,0-2.2,2.76q.86-5.7,1.63-10.88c10.91-73.16,10.32-76.27-2.59-144.92-2.32-12.4-4.61-25-6.92-37.57-.34,2.26-.64,4.52-.95,6.79V637.33c.69,4.69,1.49,8.24,2.25,9C25.26,670.9,20,733.48,12.81,802.1,10,828.68,18.3,857.25,14.59,879c-4.53,20.6-8.12,17.07-11.65,11.81-1-1.43-2-3-2.94-4.22v69.2c4.23,11.3,6.19,29.72,5.86,53.26C5.51,1034,6,1057.35,7.18,1080H27.59c2.43-66.68,5.14-133.1,8.66-198.53C39.42,822.4,43.36,777.79,32.92,719.69Z"/><path class="cls-22" d="M1011.71,855.78c.94,2.19,2.91-5.45,4.42-8.72.92-9.56.34-19-1.79-19.38-1.53-.2-5.5-20.11-5,7.69C1009.49,842.77,1010.47,853,1011.71,855.78Z"/><path class="cls-22" d="M1059.16,310c1.09-5,2.18-10,3.27-15l2.28-10.57q-1.18,5.46-2.36,10.9Q1060.74,302.66,1059.16,310Z"/><path class="cls-24" d="M139.16,1027.63c-2.22-7-5.72-12-6.43-21.46-6.83-92.12-6.39-192.64-15.11-283.22-1.86-19.28,1.12-40.45,5-54.25,1.82-8.75,3.65-17.33,5.57-25.49v-.06c1.83-8.61,3.49-18,5.52-25.74,0-25.56.06-51,.09-76.59-1.78-51.43,4.39-109.13-5.6-154,1.63,105.29-2.22,204.33-17.81,285.66-5.79,30.18-7,55.4-2.77,90.07,11.14,90.91,13.19,191.62,11.3,292.22a182.66,182.66,0,0,0,1,25.24h30C149.41,1050.06,146.33,1031.35,139.16,1027.63Z"/><path class="cls-4" d="M194.81,360.89v0h0Z"/><path class="cls-4" d="M192.79,355.51c-.06,1.1,1.3,3.52,2,5.38C193.94,349.53,193.14,347.62,192.79,355.51Z"/><path class="cls-25" d="M39.68,412.2q-.16,46.73-.35,93.56l0,9.59.9-1C60.63,526,60.79,525.83,55.75,442.69c-2.15-35.44-5.86-69.08-5-107.46Q45.22,373.65,39.68,412.2Z"/><path class="cls-26" d="M119,1054.76c1.89-100.6-.16-201.31-11.3-292.22-4.26-34.67-3-59.89,2.77-90.07C126,591.14,129.87,492.1,128.24,386.81c-6-18.56-7.75-50.21-11-77.3-13.2-.59-25.13-11.75-29.14-82.06-7.19,17.59-7.45,40.2-6,66.77.34,6.11-1,14.06-1.49,21.11-12.13-64.51-18.84,48-29.85,19.9-.89,38.38,2.82,72,5,107.46,5,83.14,4.88,83.33-15.55,71.69-.06,1.71-.11,3.43-.16,5.14q-.32,10.1-.34,20.22c4.29,124.5,15.74,241.14,3,377.09C38.18,965.65,34,1022,33,1080h86.94A182.66,182.66,0,0,1,119,1054.76Z"/><path class="cls-25" d="M84.08,79.17c-17.64,21.17-30.16,61.4-27.78,158.29.86,35.44-2.21,67-5.52,97.77,11,28.12,17.72-84.41,29.85-19.9.54-7.05,1.83-15,1.49-21.11-1.42-26.57-1.16-49.18,6-66.77,4,70.31,15.94,81.47,29.14,82.06C115.67,203.46,94.18,158.9,84.08,79.17Z"/><path class="cls-4" d="M269.35,493c.35-4.31-1.1-16.64-2.07-17.6-6.5-6.36-8.63,16.7-11.69,39.47-.16,1.16-.31,2.32-.48,3.48.21-.4.42-.75.63-1.07C260.84,509.5,266.87,523.39,269.35,493Z"/><path class="cls-17" d="M117.62,723c8.72,90.58,8.28,191.1,15.11,283.22.71,9.44,4.21,14.45,6.43,21.46,3.68-29.15,13.79-40.77,7.85-94.56-9.41-85.07-16.37-176-24.36-264.37C118.74,682.5,115.76,703.67,117.62,723Z"/><path class="cls-17" d="M133.75,617.41c-1.84,8.6-3.68,17.13-5.52,25.74C130.07,634.54,131.92,626,133.75,617.41Z"/><path class="cls-6" d="M1432.49,109.26c-2.92,1.54-5.59,8.61-4.89,23.68.67,14.65,3.63,15.29,6.42,12.46,2.51-4.88,5-9.82,7.51-14.7C1439.38,115.75,1436.44,107,1432.49,109.26Z"/><path class="cls-5" d="M1441.29,387.56c-.71,2.4-1.93,5.58-1.85,6.8.45,6.49,1.27,12.33,2,18.49,0-8.5,0-16.93,0-25.38v-.3C1441.38,387.29,1441.33,387.43,1441.29,387.56Z"/><polygon class="cls-5" points="1443.55 418.37 1441.4 412.85 1442.59 422.74 1443.55 418.37"/><path class="cls-8" d="M899.51,0h-.73l-.15,2.19C898.92,1.45,899.22.72,899.51,0Z"/><path class="cls-8" d="M823.33,37.15c.41,17,3.61,32.53,7.17,32.21,4.25-.36,8.47-10.2,12.69-15.92q-5.52-25.59-11.05-51.28C827.62,5.43,822.66,9,823.33,37.15Z"/><path class="cls-8" d="M854.28,53.45H843.19c0,17.16,0,34.23,0,51.31C848.4,94.87,852.11,77.73,854.28,53.45Z"/><path class="cls-8" d="M832.61,0h-.46c0,.72,0,1.44,0,2.16C832.3,1.44,832.46.72,832.61,0Z"/><polygon class="cls-8" points="882.86 0 882.27 0 882.01 2.18 882.86 0"/><path class="cls-8" d="M882,27.86c0-8.54,0-17.15,0-25.68-.4,1.87-.81,3.75-1.22,5.62L880,11.27l-2.61,12.06c-.32,1.51-.65,3-1,4.52Z"/><polygon class="cls-22" points="1023.74 355.77 1025.89 361.3 1024.7 351.36 1023.74 355.77"/><path class="cls-22" d="M841.24,402.3c-3.37,1-7.69-3.8-8.49,18.28-.63,17.41,1.37,32.56,5.24,37.3,5.16,6.37,8.44-4.54,9.61-26.5C848.24,406.54,845.39,401.08,841.24,402.3Z"/><path class="cls-23" d="M848.64,156.24c4.78,26.13,10.44,42.7,18.91,42.56C864.05,147.18,858.17,132.87,848.64,156.24Z"/><path class="cls-7" d="M732.14,718.23c.35-11.25.67-22.58,1.07-33.85.41-11.09,1.68-26.13-1.65-28.81-3.16-2.5-4,12.19-4.3,24.83-.06,17,1.6,29.49,4.49,38.83.11.34.21.7.33,1,0-.19,0-.38,0-.57v-.13C732.11,719.13,732.12,718.68,732.14,718.23Z"/><path class="cls-21" d="M804.73,270.68c3.14-.44,4.15-12.71,4.77-25.23,1.27-13,.56-15.72-2.34-11-2.59,4.17-5.35,7.69-5.44,22.33C801.69,261.48,803.7,270.81,804.73,270.68Z"/><path class="cls-21" d="M528.31,324.35c1.05-1.94,1.37-12.52,2-19.33-1.45-2.95-3.25-9.77-4.29-7.83s-1.4,12.45-2,19.26C525.46,319.47,527.25,326.21,528.31,324.35Z"/><path class="cls-21" d="M519,410.94c2.91,4.75,3.43,2.31,2.42-11.11-.9-12-1.65-24.78-4.81-25.16-1-.13-2.13,9.05-3.19,13.92C513.91,403.3,516.39,406.77,519,410.94Z"/><path class="cls-21" d="M576.34,318.39c-1.24,1.74-2.85,11.68-2.8,17.66.08,9.82,2,12.45,4.13,8.09,1.66-2.9,3.33-5.78,5-8.67C581.23,324.3,579.32,314.48,576.34,318.39Z"/><path class="cls-21" d="M739.09,351.22c.21-10-.72-12.2-2.66-5.66-.19.71.3,5.66.48,8.66C737.63,353.2,738.36,352.24,739.09,351.22Z"/><path class="cls-21" d="M756.42,406.17c1-5.32,1.43-13,1.89-19.91.06-.94-1.25-3.77-1.92-5.76-.61,6.86-1.34,13.54-1.83,20.6-.44,6.35-.48,10.23-.19,11.4a.14.14,0,0,0,0,.07C754.71,413.69,755.42,411.67,756.42,406.17Z"/><path class="cls-15" d="M42.74,916.83c12.7-136,1.25-252.59-3-377.09-16.13,83.46-18.92,112.41-6.78,180,10.44,58.1,6.5,102.71,3.33,161.78C32.73,946.9,30,1013.32,27.59,1080H33C34,1022,38.18,965.65,42.74,916.83Z"/></g></svg>